<svg width="432" height="288" viewBox="0 0 432 288" fill="none" xmlns="http://www.w3.org/2000/svg">
<path d="M170.07 209.6H191.26V239.15H153.74L153.66 197.15L170.07 196.77V209.6Z" fill="#A977AB"/>
<path d="M292.59 191.7H285.5V197.91H292.59V191.7Z" fill="#B8D7D7"/>
<mask id="mask0_1_3" style="mask-type:luminance" maskUnits="userSpaceOnUse" x="285" y="191" width="8" height="7">
<path d="M292.59 191.7H285.5V197.91H292.59V191.7Z" fill="white"/>
</mask>
<g mask="url(#mask0_1_3)">
<path d="M368.64 69.54H56.32V255.71H368.64V69.54Z" fill="#B8D7D7"/>
<mask id="mask1_1_3" style="mask-type:luminance" maskUnits="userSpaceOnUse" x="56" y="69" width="313" height="187">
<path d="M368.64 69.54H56.32V255.71H368.64V69.54Z" fill="white"/>
</mask>
<g mask="url(#mask1_1_3)">
<path d="M293.31 191.27H284.78V198.34H293.31V191.27Z" fill="#B8D7D7" stroke="#0E3F41" stroke-miterlimit="10"/>
</g>
<path d="M368.64 69.54H56.32V255.71H368.64V69.54Z" stroke="#0E3F41" stroke-miterlimit="10"/>
</g>
<path d="M292.59 191.7H285.5V197.91H292.59V191.7Z" stroke="#0E3F41" stroke-miterlimit="10"/>
<mask id="mask2_1_3" style="mask-type:luminance" maskUnits="userSpaceOnUse" x="284" y="180" width="12" height="8">
<path d="M295.12 180.13H284.71V187.64H295.12V180.13Z" fill="white"/>
</mask>
<g mask="url(#mask2_1_3)">
<path d="M368.64 -17.43H56.32V294.89H368.64V-17.43Z" stroke="#0E3F41" stroke-miterlimit="10"/>
</g>
<path d="M295.12 180.13H284.71V187.64H295.12V180.13Z" stroke="#0E3F41" stroke-miterlimit="10"/>
<path d="M154.01 198.02H134.94V221.66H154.01V198.02Z" fill="#B8D7D7" stroke="#0E3F41" stroke-miterlimit="10"/>
<path fill-rule="evenodd" clip-rule="evenodd" d="M134.87 221.64H153.66V197.15H147.7V202.35H139.75V197.15H134.87V221.64Z" fill="#B8D7D7"/>
<mask id="mask3_1_3" style="mask-type:luminance" maskUnits="userSpaceOnUse" x="126" y="164" width="16" height="20">
<path d="M126.3 164.67H141.44V181.67L129.61 183.42" fill="white"/>
</mask>
<g mask="url(#mask3_1_3)">
<path d="M368.64 -17.43H56.32V294.89H368.64V-17.43Z" stroke="#0E3F41" stroke-miterlimit="10"/>
</g>
<path d="M126.3 164.67H141.44V181.67L129.61 183.42" stroke="#0E3F41" stroke-miterlimit="10"/>
<mask id="mask4_1_3" style="mask-type:luminance" maskUnits="userSpaceOnUse" x="137" y="57" width="21" height="26">
<path d="M140.94 57.9L137.4 80.23L153.73 82.39L157.03 60.15" fill="white"/>
</mask>
<g mask="url(#mask4_1_3)">
<path d="M368.64 -17.43H56.32V294.89H368.64V-17.43Z" stroke="#0E3F41" stroke-miterlimit="10"/>
</g>
<path d="M140.94 57.9L137.4 80.23L153.73 82.39L157.03 60.15" stroke="#0E3F41" stroke-miterlimit="10"/>
<path fill-rule="evenodd" clip-rule="evenodd" d="M150.1 215.6V218.23C150.1 218.29 150.1 218.35 150.08 218.41C150.01 218.59 149.81 218.67 149.62 218.6C149.48 218.55 149.4 218.43 149.4 218.27C149.4 218.14 149.4 218.02 149.4 217.89C149.4 217.32 149.4 216.74 149.4 216.17C149.4 215.84 149.4 215.51 149.4 215.17C149.4 215.15 149.4 215.12 149.4 215.1C149.39 215.05 149.35 215.02 149.3 215.01C149.24 215.01 149.2 215.03 149.18 215.08C149.17 215.11 149.17 215.14 149.17 215.17C149.17 216.19 149.17 217.22 149.17 218.24C149.17 218.34 149.16 218.43 149.09 218.5C148.99 218.61 148.87 218.65 148.73 218.62C148.59 218.59 148.5 218.49 148.46 218.36C148.45 218.32 148.44 218.27 148.44 218.22C148.44 217.51 148.44 216.8 148.44 216.1C148.44 215.05 148.44 214 148.44 212.94C148.44 212.86 148.42 212.83 148.36 212.81C148.29 212.79 148.21 212.81 148.17 212.87C148.16 212.89 148.16 212.9 148.16 212.92C148.16 213.3 148.16 213.67 148.16 214.05C148.16 214.33 148.16 214.6 148.16 214.88C148.16 214.99 148.12 215.08 148.01 215.13C147.91 215.17 147.8 215.15 147.72 215.07C147.67 215.02 147.65 214.97 147.65 214.9C147.65 214.19 147.65 213.48 147.65 212.77C147.65 212.58 147.69 212.4 147.79 212.24C147.97 211.96 148.22 211.8 148.56 211.79C148.99 211.78 149.42 211.79 149.84 211.79C150.28 211.79 150.7 212.14 150.8 212.57C150.82 212.67 150.84 212.77 150.84 212.87C150.84 213.53 150.84 214.2 150.84 214.86C150.84 215 150.78 215.08 150.66 215.12C150.5 215.17 150.35 215.07 150.34 214.9C150.34 214.88 150.34 214.86 150.34 214.84C150.34 214.2 150.34 213.55 150.34 212.91C150.34 212.81 150.25 212.77 150.19 212.79C150.13 212.8 150.1 212.84 150.1 212.9V215.58V215.6Z" fill="#5B629C"/>
<mask id="mask5_1_3" style="mask-type:luminance" maskUnits="userSpaceOnUse" x="147" y="211" width="4" height="8">
<path d="M150.1 215.6V218.23C150.1 218.29 150.1 218.35 150.08 218.41C150.01 218.59 149.81 218.67 149.62 218.6C149.48 218.55 149.4 218.43 149.4 218.27C149.4 218.14 149.4 218.02 149.4 217.89C149.4 217.32 149.4 216.74 149.4 216.17C149.4 215.84 149.4 215.51 149.4 215.17C149.4 215.15 149.4 215.12 149.4 215.1C149.39 215.05 149.35 215.02 149.3 215.01C149.24 215.01 149.2 215.03 149.18 215.08C149.17 215.11 149.17 215.14 149.17 215.17C149.17 216.19 149.17 217.22 149.17 218.24C149.17 218.34 149.16 218.43 149.09 218.5C148.99 218.61 148.87 218.65 148.73 218.62C148.59 218.59 148.5 218.49 148.46 218.36C148.45 218.32 148.44 218.27 148.44 218.22C148.44 217.51 148.44 216.8 148.44 216.1C148.44 215.05 148.44 214 148.44 212.94C148.44 212.86 148.42 212.83 148.36 212.81C148.29 212.79 148.21 212.81 148.17 212.87C148.16 212.89 148.16 212.9 148.16 212.92C148.16 213.3 148.16 213.67 148.16 214.05C148.16 214.33 148.16 214.6 148.16 214.88C148.16 214.99 148.12 215.08 148.01 215.13C147.91 215.17 147.8 215.15 147.72 215.07C147.67 215.02 147.65 214.97 147.65 214.9C147.65 214.19 147.65 213.48 147.65 212.77C147.65 212.58 147.69 212.4 147.79 212.24C147.97 211.96 148.22 211.8 148.56 211.79C148.99 211.78 149.42 211.79 149.84 211.79C150.28 211.79 150.7 212.14 150.8 212.57C150.82 212.67 150.84 212.77 150.84 212.87C150.84 213.53 150.84 214.2 150.84 214.86C150.84 215 150.78 215.08 150.66 215.12C150.5 215.17 150.35 215.07 150.34 214.9C150.34 214.88 150.34 214.86 150.34 214.84C150.34 214.2 150.34 213.55 150.34 212.91C150.34 212.81 150.25 212.77 150.19 212.79C150.13 212.8 150.1 212.84 150.1 212.9V215.58V215.6Z" fill="white"/>
</mask>
<g mask="url(#mask5_1_3)">
<path d="M368.64 -17.43H56.32V294.89H368.64V-17.43Z" fill="#5B629C"/>
<mask id="mask6_1_3" style="mask-type:luminance" maskUnits="userSpaceOnUse" x="56" y="-18" width="313" height="313">
<path d="M368.64 -17.43H56.32V294.89H368.64V-17.43Z" fill="white"/>
</mask>
<g mask="url(#mask6_1_3)">
<path d="M151.56 211.07H146.92V219.36H151.56V211.07Z" fill="#5B629C"/>
</g>
</g>
<path fill-rule="evenodd" clip-rule="evenodd" d="M149.22 210.23C149.59 210.23 149.89 210.53 149.89 210.9C149.89 211.27 149.6 211.57 149.22 211.57C148.84 211.57 148.56 211.29 148.55 210.9C148.55 210.52 148.84 210.23 149.22 210.22" fill="#5B629C"/>
<mask id="mask7_1_3" style="mask-type:luminance" maskUnits="userSpaceOnUse" x="148" y="210" width="2" height="2">
<path d="M149.22 210.23C149.59 210.23 149.89 210.53 149.89 210.9C149.89 211.27 149.6 211.57 149.22 211.57C148.84 211.57 148.56 211.29 148.55 210.9C148.55 210.52 148.84 210.23 149.22 210.22" fill="white"/>
</mask>
<g mask="url(#mask7_1_3)">
<path d="M368.64 -17.43H56.32V294.89H368.64V-17.43Z" fill="#5B629C"/>
<mask id="mask8_1_3" style="mask-type:luminance" maskUnits="userSpaceOnUse" x="56" y="-18" width="313" height="313">
<path d="M368.64 -17.43H56.32V294.89H368.64V-17.43Z" fill="white"/>
</mask>
<g mask="url(#mask8_1_3)">
<path d="M150.61 209.51H147.83V212.3H150.61V209.51Z" fill="#5B629C"/>
</g>
</g>
<path fill-rule="evenodd" clip-rule="evenodd" d="M289.38 195.55V196.76C289.38 196.76 289.38 196.82 289.37 196.84C289.34 196.92 289.24 196.96 289.16 196.93C289.1 196.91 289.06 196.85 289.06 196.78C289.06 196.72 289.06 196.66 289.06 196.61C289.06 196.35 289.06 196.08 289.06 195.82C289.06 195.67 289.06 195.52 289.06 195.36C289.06 195.35 289.06 195.34 289.06 195.33C289.06 195.31 289.04 195.29 289.01 195.29C288.98 195.29 288.96 195.29 288.95 195.32C288.95 195.33 288.95 195.35 288.95 195.36C288.95 195.83 288.95 196.3 288.95 196.77C288.95 196.81 288.95 196.86 288.91 196.89C288.87 196.94 288.81 196.96 288.74 196.94C288.68 196.93 288.64 196.88 288.62 196.82C288.62 196.8 288.62 196.78 288.62 196.76C288.62 196.44 288.62 196.11 288.62 195.79C288.62 195.31 288.62 194.82 288.62 194.34C288.62 194.3 288.62 194.29 288.58 194.28C288.55 194.27 288.51 194.28 288.49 194.31V194.33C288.49 194.5 288.49 194.68 288.49 194.85C288.49 194.98 288.49 195.1 288.49 195.23C288.49 195.28 288.47 195.32 288.42 195.34C288.38 195.36 288.32 195.34 288.29 195.31C288.27 195.29 288.26 195.26 288.26 195.23C288.26 194.9 288.26 194.58 288.26 194.25C288.26 194.16 288.28 194.08 288.32 194.01C288.4 193.88 288.52 193.81 288.67 193.8C288.87 193.8 289.06 193.8 289.26 193.8C289.46 193.8 289.65 193.96 289.7 194.16C289.71 194.21 289.72 194.25 289.72 194.3C289.72 194.6 289.72 194.91 289.72 195.21C289.72 195.27 289.69 195.31 289.64 195.33C289.57 195.35 289.5 195.31 289.49 195.23C289.49 195.23 289.49 195.21 289.49 195.2C289.49 194.9 289.49 194.61 289.49 194.31C289.49 194.27 289.45 194.25 289.42 194.25C289.39 194.25 289.38 194.27 289.38 194.3V195.53V195.55Z" fill="#5B629C"/>
<mask id="mask9_1_3" style="mask-type:luminance" maskUnits="userSpaceOnUse" x="288" y="193" width="2" height="4">
<path d="M289.38 195.55V196.76C289.38 196.76 289.38 196.82 289.37 196.84C289.34 196.92 289.24 196.96 289.16 196.93C289.1 196.91 289.06 196.85 289.06 196.78C289.06 196.72 289.06 196.66 289.06 196.61C289.06 196.35 289.06 196.08 289.06 195.82C289.06 195.67 289.06 195.52 289.06 195.36C289.06 195.35 289.06 195.34 289.06 195.33C289.06 195.31 289.04 195.29 289.01 195.29C288.98 195.29 288.96 195.29 288.95 195.32C288.95 195.33 288.95 195.35 288.95 195.36C288.95 195.83 288.95 196.3 288.95 196.77C288.95 196.81 288.95 196.86 288.91 196.89C288.87 196.94 288.81 196.96 288.74 196.94C288.68 196.93 288.64 196.88 288.62 196.82C288.62 196.8 288.62 196.78 288.62 196.76C288.62 196.44 288.62 196.11 288.62 195.79C288.62 195.31 288.62 194.82 288.62 194.34C288.62 194.3 288.62 194.29 288.58 194.28C288.55 194.27 288.51 194.28 288.49 194.31V194.33C288.49 194.5 288.49 194.68 288.49 194.85C288.49 194.98 288.49 195.1 288.49 195.23C288.49 195.28 288.47 195.32 288.42 195.34C288.38 195.36 288.32 195.34 288.29 195.31C288.27 195.29 288.26 195.26 288.26 195.23C288.26 194.9 288.26 194.58 288.26 194.25C288.26 194.16 288.28 194.08 288.32 194.01C288.4 193.88 288.52 193.81 288.67 193.8C288.87 193.8 289.06 193.8 289.26 193.8C289.46 193.8 289.65 193.96 289.7 194.16C289.71 194.21 289.72 194.25 289.72 194.3C289.72 194.6 289.72 194.91 289.72 195.21C289.72 195.27 289.69 195.31 289.64 195.33C289.57 195.35 289.5 195.31 289.49 195.23C289.49 195.23 289.49 195.21 289.49 195.2C289.49 194.9 289.49 194.61 289.49 194.31C289.49 194.27 289.45 194.25 289.42 194.25C289.39 194.25 289.38 194.27 289.38 194.3V195.53V195.55Z" fill="white"/>
</mask>
<g mask="url(#mask9_1_3)">
<path d="M389.63 88.66H246.37V231.92H389.63V88.66Z" fill="#5B629C"/>
<mask id="mask10_1_3" style="mask-type:luminance" maskUnits="userSpaceOnUse" x="246" y="88" width="144" height="144">
<path d="M389.63 88.66H246.37V231.92H389.63V88.66Z" fill="white"/>
</mask>
<g mask="url(#mask10_1_3)">
<path d="M290.06 193.47H287.93V197.27H290.06V193.47Z" fill="#5B629C"/>
</g>
</g>
<path fill-rule="evenodd" clip-rule="evenodd" d="M288.98 193.08C289.15 193.08 289.29 193.22 289.29 193.39C289.29 193.56 289.16 193.7 288.98 193.7C288.8 193.7 288.68 193.57 288.67 193.39C288.67 193.21 288.8 193.08 288.98 193.08Z" fill="#5B629C"/>
<mask id="mask11_1_3" style="mask-type:luminance" maskUnits="userSpaceOnUse" x="288" y="193" width="2" height="1">
<path d="M288.98 193.08C289.15 193.08 289.29 193.22 289.29 193.39C289.29 193.56 289.16 193.7 288.98 193.7C288.8 193.7 288.68 193.57 288.67 193.39C288.67 193.21 288.8 193.08 288.98 193.08Z" fill="white"/>
</mask>
<g mask="url(#mask11_1_3)">
<path d="M389.63 88.66H246.37V231.92H389.63V88.66Z" fill="#5B629C"/>
<mask id="mask12_1_3" style="mask-type:luminance" maskUnits="userSpaceOnUse" x="246" y="88" width="144" height="144">
<path d="M389.63 88.66H246.37V231.92H389.63V88.66Z" fill="white"/>
</mask>
<g mask="url(#mask12_1_3)">
<path d="M289.62 192.75H288.34V194.03H289.62V192.75Z" fill="#5B629C"/>
</g>
</g>
<path fill-rule="evenodd" clip-rule="evenodd" d="M139.99 217.24C139.99 217.6 139.99 217.97 139.99 218.33C139.99 218.44 139.95 218.53 139.85 218.59C139.75 218.65 139.64 218.65 139.53 218.59C139.42 218.54 139.38 218.44 139.38 218.33C139.38 217.62 139.38 216.91 139.38 216.2C139.38 216.18 139.38 216.16 139.38 216.14C139.38 216.08 139.33 216.05 139.28 216.05C139.22 216.05 139.18 216.09 139.18 216.15V218.3C139.18 218.41 139.16 218.5 139.07 218.57C138.96 218.65 138.84 218.66 138.72 218.6C138.6 218.55 138.56 218.44 138.55 218.32C138.55 218.3 138.55 218.28 138.55 218.26V216.13C138.55 216.083 138.527 216.06 138.48 216.06C138.22 216.06 137.97 216.06 137.72 216.06C137.67 216.06 137.66 216.06 137.68 216.01C137.74 215.8 137.81 215.58 137.88 215.37C137.98 215.06 138.07 214.74 138.17 214.43C138.25 214.17 138.33 213.91 138.41 213.64C138.49 213.38 138.57 213.11 138.65 212.85C138.67 212.78 138.65 212.73 138.59 212.71C138.53 212.69 138.47 212.71 138.45 212.79C138.4 212.93 138.36 213.08 138.31 213.22C138.19 213.58 138.08 213.93 137.96 214.29C137.91 214.44 137.86 214.6 137.81 214.75C137.76 214.91 137.63 214.97 137.48 214.9C137.37 214.85 137.32 214.74 137.36 214.62C137.46 214.28 137.57 213.94 137.67 213.6C137.79 213.2 137.91 212.8 138.03 212.4C138.12 212.09 138.39 211.87 138.71 211.83C138.76 211.83 138.82 211.83 138.87 211.83C139.22 211.83 139.57 211.83 139.92 211.83C140.11 211.83 140.29 211.88 140.44 212C140.59 212.12 140.67 212.27 140.72 212.45C140.85 212.92 140.98 213.39 141.1 213.86C141.17 214.12 141.24 214.39 141.31 214.65C141.34 214.78 141.25 214.92 141.11 214.93C140.98 214.94 140.89 214.88 140.85 214.75C140.74 214.38 140.64 214.01 140.54 213.64L140.34 212.93C140.32 212.87 140.31 212.81 140.29 212.76C140.27 212.7 140.22 212.68 140.17 212.69C140.11 212.71 140.09 212.75 140.1 212.81C140.18 213.12 140.26 213.44 140.34 213.75C140.43 214.1 140.52 214.45 140.61 214.8C140.71 215.21 140.82 215.62 140.92 216.03C140.93 216.07 140.91 216.07 140.88 216.07C140.61 216.07 140.34 216.07 140.07 216.07C140 216.07 140 216.07 140 216.14V217.24H139.99Z" fill="#5B629C"/>
<mask id="mask13_1_3" style="mask-type:luminance" maskUnits="userSpaceOnUse" x="137" y="211" width="5" height="8">
<path d="M139.99 217.24C139.99 217.6 139.99 217.97 139.99 218.33C139.99 218.44 139.95 218.53 139.85 218.59C139.75 218.65 139.64 218.65 139.53 218.59C139.42 218.54 139.38 218.44 139.38 218.33C139.38 217.62 139.38 216.91 139.38 216.2C139.38 216.18 139.38 216.16 139.38 216.14C139.38 216.08 139.33 216.05 139.28 216.05C139.22 216.05 139.18 216.09 139.18 216.15V218.3C139.18 218.41 139.16 218.5 139.07 218.57C138.96 218.65 138.84 218.66 138.72 218.6C138.6 218.55 138.56 218.44 138.55 218.32C138.55 218.3 138.55 218.28 138.55 218.26V216.13C138.55 216.083 138.527 216.06 138.48 216.06C138.22 216.06 137.97 216.06 137.72 216.06C137.67 216.06 137.66 216.06 137.68 216.01C137.74 215.8 137.81 215.58 137.88 215.37C137.98 215.06 138.07 214.74 138.17 214.43C138.25 214.17 138.33 213.91 138.41 213.64C138.49 213.38 138.57 213.11 138.65 212.85C138.67 212.78 138.65 212.73 138.59 212.71C138.53 212.69 138.47 212.71 138.45 212.79C138.4 212.93 138.36 213.08 138.31 213.22C138.19 213.58 138.08 213.93 137.96 214.29C137.91 214.44 137.86 214.6 137.81 214.75C137.76 214.91 137.63 214.97 137.48 214.9C137.37 214.85 137.32 214.74 137.36 214.62C137.46 214.28 137.57 213.94 137.67 213.6C137.79 213.2 137.91 212.8 138.03 212.4C138.12 212.09 138.39 211.87 138.71 211.83C138.76 211.83 138.82 211.83 138.87 211.83C139.22 211.83 139.57 211.83 139.92 211.83C140.11 211.83 140.29 211.88 140.44 212C140.59 212.12 140.67 212.27 140.72 212.45C140.85 212.92 140.98 213.39 141.1 213.86C141.17 214.12 141.24 214.39 141.31 214.65C141.34 214.78 141.25 214.92 141.11 214.93C140.98 214.94 140.89 214.88 140.85 214.75C140.74 214.38 140.64 214.01 140.54 213.64L140.34 212.93C140.32 212.87 140.31 212.81 140.29 212.76C140.27 212.7 140.22 212.68 140.17 212.69C140.11 212.71 140.09 212.75 140.1 212.81C140.18 213.12 140.26 213.44 140.34 213.75C140.43 214.1 140.52 214.45 140.61 214.8C140.71 215.21 140.82 215.62 140.92 216.03C140.93 216.07 140.91 216.07 140.88 216.07C140.61 216.07 140.34 216.07 140.07 216.07C140 216.07 140 216.07 140 216.14V217.24H139.99Z" fill="white"/>
</mask>
<g mask="url(#mask13_1_3)">
<path d="M368.64 -17.43H56.32V294.89H368.64V-17.43Z" fill="#5B629C"/>
<mask id="mask14_1_3" style="mask-type:luminance" maskUnits="userSpaceOnUse" x="56" y="-18" width="313" height="313">
<path d="M368.64 -17.43H56.32V294.89H368.64V-17.43Z" fill="white"/>
</mask>
<g mask="url(#mask14_1_3)">
<path d="M142.03 211.11H136.61V219.36H142.03V211.11Z" fill="#5B629C"/>
</g>
</g>
<path fill-rule="evenodd" clip-rule="evenodd" d="M138.69 210.91C138.69 210.55 138.97 210.23 139.36 210.23C139.75 210.23 140.04 210.54 140.04 210.92C140.04 211.29 139.73 211.6 139.36 211.59C138.99 211.59 138.68 211.28 138.69 210.91Z" fill="#5B629C"/>
<mask id="mask15_1_3" style="mask-type:luminance" maskUnits="userSpaceOnUse" x="138" y="210" width="3" height="2">
<path d="M138.69 210.91C138.69 210.55 138.97 210.23 139.36 210.23C139.75 210.23 140.04 210.54 140.04 210.92C140.04 211.29 139.73 211.6 139.36 211.59C138.99 211.59 138.68 211.28 138.69 210.91Z" fill="white"/>
</mask>
<g mask="url(#mask15_1_3)">
<path d="M368.64 -17.43H56.32V294.89H368.64V-17.43Z" fill="#5B629C"/>
<mask id="mask16_1_3" style="mask-type:luminance" maskUnits="userSpaceOnUse" x="56" y="-18" width="313" height="313">
<path d="M368.64 -17.43H56.32V294.89H368.64V-17.43Z" fill="white"/>
</mask>
<g mask="url(#mask16_1_3)">
<path d="M140.77 209.51H137.97V212.32H140.77V209.51Z" fill="#5B629C"/>
</g>
</g>
<mask id="mask17_1_3" style="mask-type:luminance" maskUnits="userSpaceOnUse" x="127" y="196" width="7" height="4">
<path d="M128.2 197.83C128.12 197.93 128.03 198.04 127.94 198.13C127.78 198.3 127.58 198.35 127.39 198.2C127.21 198.07 127.16 197.86 127.28 197.68C127.63 197.15 128.04 196.66 128.5 196.22C128.73 196 128.97 196.15 129.15 196.36C129.49 196.77 129.84 197.17 130.18 197.58C130.23 197.64 130.28 197.79 130.35 197.75C130.8 197.48 131.02 197.83 131.33 198.14C131.33 197.65 131.33 197.24 131.33 196.84C131.33 196.5 131.33 196.16 131.79 196.11C132.11 196.08 132.27 196.34 132.27 196.86C132.27 197.26 132.27 197.66 132.27 198.13C132.43 197.98 132.53 197.86 132.65 197.77C132.82 197.63 133.01 197.63 133.18 197.77C133.34 197.91 133.39 198.12 133.25 198.29C132.87 198.76 132.49 199.24 132.08 199.68C131.85 199.92 131.58 199.8 131.39 199.57C131.04 199.15 130.7 198.72 130.35 198.3C130.3 198.24 130.28 198.07 130.2 198.14C129.79 198.48 129.57 198.09 129.24 197.85C129.24 198.3 129.24 198.68 129.24 199.06C129.24 199.22 129.24 199.39 129.16 199.54C129.06 199.74 128.9 199.83 128.69 199.8C128.43 199.77 128.3 199.59 128.27 199.35C128.23 198.85 128.23 198.35 128.21 197.82" fill="white"/>
</mask>
<g mask="url(#mask17_1_3)">
<mask id="mask18_1_3" style="mask-type:luminance" maskUnits="userSpaceOnUse" x="56" y="-18" width="313" height="313">
<path d="M368.64 -17.43H56.32V294.89H368.64V-17.43Z" fill="white"/>
</mask>
<g mask="url(#mask18_1_3)">
<path d="M134.04 195.39H126.49V200.54H134.04V195.39Z" fill="#191818"/>
</g>
</g>
<path d="M79.25 180.96V65.8H120.76" stroke="#0E3F41" stroke-width="2" stroke-miterlimit="10"/>
<path d="M138.22 76.5L138.64 74.25" stroke="#0E3F41" stroke-width="0.75" stroke-miterlimit="10"/>
<path d="M141.04 57.9L138.65 74.25L129.97 73.01L130.2 71.68" stroke="#0E3F41" stroke-width="0.75" stroke-miterlimit="10"/>
<path d="M127.58 73.06H129.97" stroke="#0E3F41" stroke-width="0.75" stroke-miterlimit="10"/>
<path d="M130.43 69.34L130.57 67.96" stroke="#0E3F41" stroke-width="0.75" stroke-miterlimit="10"/>
<path d="M113.84 226H117.14" stroke="#0E3F41" stroke-width="0.75" stroke-miterlimit="10"/>
<path d="M119.48 226H122.17" stroke="#0E3F41" stroke-width="0.75" stroke-miterlimit="10"/>
<path d="M153.74 197.13V221.74H125.65V219.95" stroke="#0E3F41" stroke-width="0.75" stroke-miterlimit="10"/>
<path d="M125.65 217.64V215.2" stroke="#0E3F41" stroke-width="0.75" stroke-miterlimit="10"/>
<path d="M125.65 215.68H134.89" stroke="#0E3F41" stroke-width="0.75" stroke-miterlimit="10"/>
<path d="M125.65 212.79V209.12" stroke="#0E3F41" stroke-width="0.75" stroke-miterlimit="10"/>
<path d="M125.65 201.24H134.89" stroke="#0E3F41" stroke-width="0.75" stroke-miterlimit="10"/>
<path d="M134.89 195.11V221.74V239.15" stroke="#0E3F41" stroke-width="0.75" stroke-miterlimit="10"/>
<path d="M144.19 221.74V207.78H141.54V202.38" stroke="#0E3F41" stroke-width="0.75" stroke-miterlimit="10"/>
<path d="M138.44 202.38H142.71" stroke="#0E3F41" stroke-width="0.75" stroke-miterlimit="10"/>
<path d="M144.88 202.38H150" stroke="#0E3F41" stroke-width="0.75" stroke-miterlimit="10"/>
<path d="M146.71 202.38V207.78" stroke="#0E3F41" stroke-width="0.75" stroke-miterlimit="10"/>
<path d="M141.27 207.78H146.97" stroke="#0E3F41" stroke-width="0.75" stroke-miterlimit="10"/>
<path d="M159.75 197.21H153.74H147.57V199.67" stroke="#0E3F41" stroke-width="0.75" stroke-miterlimit="10"/>
<path d="M173.16 197.15H179.13V209.6H183.77" stroke="#0E3F41" stroke-width="0.75" stroke-miterlimit="10"/>
<path d="M206.33 209.6H201.68V197.15H195.71" stroke="#0E3F41" stroke-width="0.75" stroke-miterlimit="10"/>
<path d="M297.81 205.01H294V210.3" stroke="#0E3F41" stroke-width="0.75" stroke-miterlimit="10"/>
<path d="M294 212.38V221.69H296.67H290.68" stroke="#0E3F41" stroke-width="0.75" stroke-miterlimit="10"/>
<path d="M307.55 226.1H304.22" stroke="#0E3F41" stroke-width="0.75" stroke-miterlimit="10"/>
<path d="M170.07 197.21V196.77H186.44V198.05" stroke="#0E3F41" stroke-width="0.75" stroke-miterlimit="10"/>
<path d="M191.26 209.6V197.15" stroke="#0E3F41" stroke-width="0.75" stroke-miterlimit="10"/>
<path d="M170.07 197.15V209.6" stroke="#0E3F41" stroke-width="0.75" stroke-miterlimit="10"/>
<path d="M280.44 180.39H286.92" stroke="#0E3F41" stroke-width="0.75" stroke-miterlimit="10"/>
<path d="M288.99 180.39H294.92V181.44" stroke="#0E3F41" stroke-width="0.75" stroke-miterlimit="10"/>
<path d="M290.96 180.39V187.37" stroke="#0E3F41" stroke-width="0.75" stroke-miterlimit="10"/>
<path d="M284.23 203.39H285.25V190.49" stroke="#0E3F41" stroke-width="0.75" stroke-miterlimit="10"/>
<path d="M285.25 198.05H294.07V200.41" stroke="#0E3F41" stroke-width="0.75" stroke-miterlimit="10"/>
<path d="M294 205.01V203.94" stroke="#0E3F41" stroke-width="0.75" stroke-miterlimit="10"/>
<path d="M294 207.61H284.23" stroke="#0E3F41" stroke-width="0.75" stroke-miterlimit="10"/>
<path d="M132.41 195.23H135.26" stroke="#0E3F41" stroke-width="0.75" stroke-miterlimit="10"/>
<path d="M139.82 199.67V197.13H134.89" stroke="#0E3F41" stroke-width="0.75" stroke-miterlimit="10"/>
<path d="M125.65 206.72V201.03V195.21H129.68" stroke="#0E3F41" stroke-width="0.75" stroke-miterlimit="10"/>
<path d="M292.57 198.05V196.12" stroke="#0E3F41" stroke-width="0.75" stroke-miterlimit="10"/>
<path d="M292.57 193.91V189.99" stroke="#0E3F41" stroke-width="0.75" stroke-miterlimit="10"/>
<path d="M292.57 187.91V187.37" stroke="#0E3F41" stroke-width="0.75" stroke-miterlimit="10"/>
<path d="M292.57 192.06H285.25" stroke="#0E3F41" stroke-width="0.75" stroke-miterlimit="10"/>
<path d="M96.37 189.02C96.37 189.02 103.09 187.26 103.57 187.3" stroke="#0E3F41" stroke-width="0.75" stroke-miterlimit="10"/>
<path d="M109.15 186.4C109.15 186.4 118.03 185.81 119.09 186.06" stroke="#0E3F41" stroke-width="0.75" stroke-miterlimit="10"/>
<path d="M105.74 186.92L107.11 186.75" stroke="#0E3F41" stroke-width="0.75" stroke-miterlimit="10"/>
<path d="M106.42 186.75L107.47 194.34" stroke="#0E3F41" stroke-width="0.75" stroke-miterlimit="10"/>
<path d="M96.37 197.15V200.66" stroke="#0E3F41" stroke-width="0.75" stroke-miterlimit="10"/>
<path d="M93.26 197.26H96.37" stroke="#0E3F41" stroke-width="0.75" stroke-miterlimit="10"/>
<path d="M178.26 178.34H144.88" stroke="#0E3F41" stroke-width="0.75" stroke-miterlimit="10"/>
<path d="M139.3 156.31V164.67H126.07H109.75V181.21H117.94V168.76" stroke="#0E3F41" stroke-width="0.75" stroke-miterlimit="10"/>
<path d="M139.3 163.8H141.51V178.34" stroke="#0E3F41" stroke-width="0.75" stroke-miterlimit="10"/>
<path d="M128.6 67.96H120.9V66.26V65.8H117.94" stroke="#0E3F41" stroke-width="2" stroke-miterlimit="10"/>
<path d="M137.83 78.76L137.65 80.23H136.82L138.64 80.46" stroke="#0E3F41" stroke-width="0.75" stroke-miterlimit="10"/>
<path d="M126.62 91.11H126.07V95.8V86.38" stroke="#0E3F41" stroke-width="0.75" stroke-miterlimit="10"/>
<path d="M126.62 109.9H126.07V114.59V105.17" stroke="#0E3F41" stroke-width="0.75" stroke-miterlimit="10"/>
<path d="M126.62 128.68H126.07V133.37V123.95" stroke="#0E3F41" stroke-width="0.75" stroke-miterlimit="10"/>
<path d="M126.62 147.47H126.07V152.16V142.74" stroke="#0E3F41" stroke-width="0.75" stroke-miterlimit="10"/>
<path d="M96.37 202.39V195.65" stroke="#0E3F41" stroke-width="0.75" stroke-miterlimit="10"/>
<path d="M116.8 186.02C116.8 186.02 117.49 190.7 117.76 192.96" stroke="#0E3F41" stroke-width="0.75" stroke-miterlimit="10"/>
<path d="M276.86 154.56L274.61 146.78" stroke="#0E3F41" stroke-width="0.75" stroke-miterlimit="10"/>
<path d="M281.2 170L281.68 171.79" stroke="#0E3F41" stroke-width="0.75" stroke-miterlimit="10"/>
<path d="M282.37 173.97L282.6 174.96L279.29 175.33L322.55 170.87" stroke="#0E3F41" stroke-width="0.75" stroke-miterlimit="10"/>
<path d="M319.56 170.42L319.79 171.16" stroke="#0E3F41" stroke-width="0.75" stroke-miterlimit="10"/>
<path d="M319.04 168.44L313.04 147.74" stroke="#0E3F41" stroke-width="0.75" stroke-miterlimit="10"/>
<path d="M318.36 166.09L326.16 163.82" stroke="#0E3F41" stroke-width="0.75" stroke-miterlimit="10"/>
<path d="M271.07 158.97L271.64 158.82L272.21 158.66" stroke="#0E3F41" stroke-width="0.75" stroke-miterlimit="10"/>
<path d="M271.64 158.82L274.61 169.25" stroke="#0E3F41" stroke-width="0.75" stroke-miterlimit="10"/>
<path d="M274.14 158.04L277.51 157.08L280.55 167.66L268.45 170.9L265.38 160.63L269 159.56" stroke="#0E3F41" stroke-width="0.75" stroke-miterlimit="10"/>
<path d="M341.28 159.95L329.28 162.36L330.29 167.76" stroke="#0E3F41" stroke-width="0.75" stroke-miterlimit="10"/>
<path d="M328.17 163.25L329.38 162.89" stroke="#0E3F41" stroke-width="0.75" stroke-miterlimit="10"/>
<path d="M330.72 170.06L330.98 171.46L340.23 169.32" stroke="#0E3F41" stroke-width="0.75" stroke-miterlimit="10"/>
<path d="M181.04 186.07L187.32 195.81" stroke="#0E3F41" stroke-width="0.75" stroke-miterlimit="10"/>
<path d="M210.2 177.82V192.43" stroke="#0E3F41" stroke-width="0.75" stroke-miterlimit="10"/>
<path d="M184.18 190.94C184.18 190.94 194.2 182.71 210.2 183.75" stroke="#0E3F41" stroke-width="0.75" stroke-miterlimit="10"/>
<path d="M340.17 180.38H342.1V222.38H307.55V226.24H309.53V239.15H232.25H111.73V226.14H77.41V180.13H79.25" stroke="#0E3F41" stroke-width="2" stroke-miterlimit="10"/>
<path d="M127.86 67.97H130.62L132.92 50.97L142.2 52.16L141.46 58.52L154.79 59.98L156.48 60.15L153.31 82.39L139.25 80.41V164H141.44V178.2H155.43H208.42L206.36 171.38L256.6 157.11L255.7 154.7L291.88 140.16L293.47 145.19L310.56 138.44L313.2 147.58L330.75 140.41L336.45 160.63" stroke="#0E3F41" stroke-width="2" stroke-miterlimit="10"/>
<path d="M340.65 171.1V180.38H342.1" stroke="#0E3F41" stroke-width="2" stroke-miterlimit="10"/>
<path d="M350.51 157.95L336.45 160.92L335.93 158.77" stroke="#0E3F41" stroke-width="2" stroke-miterlimit="10"/>
<path d="M347.61 158.56L350.79 157.88L351.33 160.33L352.72 166.5L340.65 169.32V172.66" stroke="#0E3F41" stroke-width="2" stroke-miterlimit="10"/>
<path d="M181.92 187.17C181.92 187.17 195.78 177.83 210.53 179.21" stroke="#0E3F41" stroke-width="0.75" stroke-miterlimit="10"/>
<path d="M205.71 179.07L205.96 183.91" stroke="#0E3F41" stroke-width="0.3" stroke-miterlimit="10"/>
<path d="M205.06 179.15L205.23 183.98" stroke="#0E3F41" stroke-width="0.3" stroke-miterlimit="10"/>
<path d="M204.23 179.22L204.47 184.04" stroke="#0E3F41" stroke-width="0.3" stroke-miterlimit="10"/>
<path d="M203.46 179.3L203.82 184.09" stroke="#0E3F41" stroke-width="0.3" stroke-miterlimit="10"/>
<path d="M182.7 186.68L185.35 190.57" stroke="#0E3F41" stroke-width="0.3" stroke-miterlimit="10"/>
<path d="M183.4 186.25L185.94 190.18" stroke="#0E3F41" stroke-width="0.3" stroke-miterlimit="10"/>
<path d="M184.02 185.89L186.46 189.65" stroke="#0E3F41" stroke-width="0.3" stroke-miterlimit="10"/>
<path d="M184.8 185.46L187.16 189.42" stroke="#0E3F41" stroke-width="0.3" stroke-miterlimit="10"/>
<path d="M185.44 185.12L187.77 189.06" stroke="#0E3F41" stroke-width="0.3" stroke-miterlimit="10"/>
<path d="M186.12 184.76L188.38 188.72" stroke="#0E3F41" stroke-width="0.3" stroke-miterlimit="10"/>
<path d="M186.8 184.42L188.97 188.41" stroke="#0E3F41" stroke-width="0.3" stroke-miterlimit="10"/>
<path d="M189.52 187.99L187.48 184.09" stroke="#0E3F41" stroke-width="0.3" stroke-miterlimit="10"/>
<path d="M190.16 187.67L188.26 183.73" stroke="#0E3F41" stroke-width="0.3" stroke-miterlimit="10"/>
<path d="M190.87 187.44L188.97 183.41" stroke="#0E3F41" stroke-width="0.3" stroke-miterlimit="10"/>
<path d="M191.49 187.09L189.73 183.12" stroke="#0E3F41" stroke-width="0.3" stroke-miterlimit="10"/>
<path d="M190.36 182.81L192.03 186.74" stroke="#0E3F41" stroke-width="0.3" stroke-miterlimit="10"/>
<path d="M191.09 182.51L192.67 186.42" stroke="#0E3F41" stroke-width="0.3" stroke-miterlimit="10"/>
<path d="M191.79 182.24L193.41 186.17" stroke="#0E3F41" stroke-width="0.3" stroke-miterlimit="10"/>
<path d="M194.58 181.25L195.01 185.67" stroke="#0E3F41" stroke-width="0.3" stroke-miterlimit="10"/>
<path d="M202.64 179.4L203.13 183.91" stroke="#0E3F41" stroke-width="0.3" stroke-miterlimit="10"/>
<path d="M201.89 179.51L202.45 183.98" stroke="#0E3F41" stroke-width="0.3" stroke-miterlimit="10"/>
<path d="M201.06 179.64L201.76 184.09" stroke="#0E3F41" stroke-width="0.3" stroke-miterlimit="10"/>
<path d="M200.25 179.79L201.06 184.2" stroke="#0E3F41" stroke-width="0.3" stroke-miterlimit="10"/>
<path d="M199.46 179.95L200.36 184.37" stroke="#0E3F41" stroke-width="0.3" stroke-miterlimit="10"/>
<path d="M198.71 180.11L199.66 184.46" stroke="#0E3F41" stroke-width="0.3" stroke-miterlimit="10"/>
<path d="M197.93 180.3L198.98 184.63" stroke="#0E3F41" stroke-width="0.3" stroke-miterlimit="10"/>
<path d="M197.08 180.52L198.32 184.78" stroke="#0E3F41" stroke-width="0.3" stroke-miterlimit="10"/>
<path d="M196.46 180.69L197.58 184.95" stroke="#0E3F41" stroke-width="0.3" stroke-miterlimit="10"/>
<path d="M338.59 169.55L337.79 165.88L347.83 163.72L347.63 162.52L337.56 164.69" stroke="#0E3F41" stroke-width="0.75" stroke-miterlimit="10"/>
<path d="M338.59 165.74L339.4 169.42" stroke="#0E3F41" stroke-width="0.3" stroke-miterlimit="10"/>
<path d="M339.17 165.44L339.97 169.12" stroke="#0E3F41" stroke-width="0.3" stroke-miterlimit="10"/>
<path d="M339.97 165.31L340.78 168.99" stroke="#0E3F41" stroke-width="0.3" stroke-miterlimit="10"/>
<path d="M340.6 165.22L341.4 168.9" stroke="#0E3F41" stroke-width="0.3" stroke-miterlimit="10"/>
<path d="M341.22 165.12L342.03 168.79" stroke="#0E3F41" stroke-width="0.3" stroke-miterlimit="10"/>
<path d="M341.93 164.91L342.73 168.59" stroke="#0E3F41" stroke-width="0.3" stroke-miterlimit="10"/>
<path d="M342.59 164.77L343.4 168.45" stroke="#0E3F41" stroke-width="0.3" stroke-miterlimit="10"/>
<path d="M343.4 164.69L344.2 168.36" stroke="#0E3F41" stroke-width="0.3" stroke-miterlimit="10"/>
<path d="M344.2 164.55L345.01 168.23" stroke="#0E3F41" stroke-width="0.3" stroke-miterlimit="10"/>
<path d="M344.78 164.25L345.58 167.93" stroke="#0E3F41" stroke-width="0.3" stroke-miterlimit="10"/>
<path d="M345.58 164.12L346.38 167.79" stroke="#0E3F41" stroke-width="0.3" stroke-miterlimit="10"/>
<path d="M346.2 164.03L347.01 167.7" stroke="#0E3F41" stroke-width="0.3" stroke-miterlimit="10"/>
<path d="M346.83 163.92L347.63 167.6" stroke="#0E3F41" stroke-width="0.3" stroke-miterlimit="10"/>
<path d="M337.56 160.85L338.32 164.52" stroke="#0E3F41" stroke-width="0.3" stroke-miterlimit="10"/>
<path d="M338.23 160.59L339 164.38" stroke="#0E3F41" stroke-width="0.3" stroke-miterlimit="10"/>
<path d="M338.82 160.39L339.68 164.23" stroke="#0E3F41" stroke-width="0.3" stroke-miterlimit="10"/>
<path d="M339.57 160.24L340.38 164.03" stroke="#0E3F41" stroke-width="0.3" stroke-miterlimit="10"/>
<path d="M340.22 160.35L340.98 164.03" stroke="#0E3F41" stroke-width="0.3" stroke-miterlimit="10"/>
<path d="M340.88 160.1L341.65 163.88" stroke="#0E3F41" stroke-width="0.3" stroke-miterlimit="10"/>
<path d="M341.48 159.89L342.34 163.74" stroke="#0E3F41" stroke-width="0.3" stroke-miterlimit="10"/>
<path d="M342.23 159.74L343.03 163.53" stroke="#0E3F41" stroke-width="0.3" stroke-miterlimit="10"/>
<path d="M342.99 159.56L343.76 163.24" stroke="#0E3F41" stroke-width="0.3" stroke-miterlimit="10"/>
<path d="M343.66 159.31L344.43 163.09" stroke="#0E3F41" stroke-width="0.3" stroke-miterlimit="10"/>
<path d="M344.26 159.1L345.12 162.94" stroke="#0E3F41" stroke-width="0.3" stroke-miterlimit="10"/>
<path d="M345.01 158.95L345.81 162.74" stroke="#0E3F41" stroke-width="0.3" stroke-miterlimit="10"/>
<path d="M345.65 159.07L346.41 162.74" stroke="#0E3F41" stroke-width="0.3" stroke-miterlimit="10"/>
<path d="M346.32 158.81L347.09 162.6" stroke="#0E3F41" stroke-width="0.3" stroke-miterlimit="10"/>
<path d="M136.11 66.52L137.14 56.3L135.95 56.12L134.91 66.37" stroke="#0E3F41" stroke-width="0.75" stroke-miterlimit="10"/>
<path d="M136.23 65.71L139.98 66.08" stroke="#0E3F41" stroke-width="0.3" stroke-miterlimit="10"/>
<path d="M136.12 65.07L139.87 65.44" stroke="#0E3F41" stroke-width="0.3" stroke-miterlimit="10"/>
<path d="M136.24 64.27L139.99 64.63" stroke="#0E3F41" stroke-width="0.3" stroke-miterlimit="10"/>
<path d="M136.35 63.65L140.09 64.01" stroke="#0E3F41" stroke-width="0.3" stroke-miterlimit="10"/>
<path d="M136.44 63.02L140.19 63.38" stroke="#0E3F41" stroke-width="0.3" stroke-miterlimit="10"/>
<path d="M136.47 62.28L140.45 62.65" stroke="#0E3F41" stroke-width="0.3" stroke-miterlimit="10"/>
<path d="M136.54 61.61L140.45 61.97" stroke="#0E3F41" stroke-width="0.3" stroke-miterlimit="10"/>
<path d="M136.7 60.82L140.45 61.18" stroke="#0E3F41" stroke-width="0.3" stroke-miterlimit="10"/>
<path d="M136.82 60.01L140.57 60.38" stroke="#0E3F41" stroke-width="0.3" stroke-miterlimit="10"/>
<path d="M136.71 59.37L140.89 59.74" stroke="#0E3F41" stroke-width="0.3" stroke-miterlimit="10"/>
<path d="M136.83 58.57L140.89 58.93" stroke="#0E3F41" stroke-width="0.3" stroke-miterlimit="10"/>
<path d="M136.94 57.95L140.89 58.31" stroke="#0E3F41" stroke-width="0.3" stroke-miterlimit="10"/>
<path d="M137.03 57.32L140.99 57.68" stroke="#0E3F41" stroke-width="0.3" stroke-miterlimit="10"/>
<path d="M131.25 65.44L134.98 65.84" stroke="#0E3F41" stroke-width="0.3" stroke-miterlimit="10"/>
<path d="M131.21 64.72L135.05 65.16" stroke="#0E3F41" stroke-width="0.3" stroke-miterlimit="10"/>
<path d="M131.2 64.1L135.12 64.46" stroke="#0E3F41" stroke-width="0.3" stroke-miterlimit="10"/>
<path d="M131.29 63.34L135.14 63.74" stroke="#0E3F41" stroke-width="0.3" stroke-miterlimit="10"/>
<path d="M131.59 62.76L135.32 63.16" stroke="#0E3F41" stroke-width="0.3" stroke-miterlimit="10"/>
<path d="M131.56 62.04L135.39 62.48" stroke="#0E3F41" stroke-width="0.3" stroke-miterlimit="10"/>
<path d="M131.54 61.42L135.47 61.78" stroke="#0E3F41" stroke-width="0.3" stroke-miterlimit="10"/>
<path d="M131.63 60.66L135.49 61.06" stroke="#0E3F41" stroke-width="0.3" stroke-miterlimit="10"/>
<path d="M131.7 59.87L135.43 60.28" stroke="#0E3F41" stroke-width="0.3" stroke-miterlimit="10"/>
<path d="M131.66 59.16L135.5 59.59" stroke="#0E3F41" stroke-width="0.3" stroke-miterlimit="10"/>
<path d="M131.65 58.53L135.57 58.89" stroke="#0E3F41" stroke-width="0.3" stroke-miterlimit="10"/>
<path d="M131.73 57.77L135.59 58.17" stroke="#0E3F41" stroke-width="0.3" stroke-miterlimit="10"/>
<path d="M132.04 57.19L135.77 57.6" stroke="#0E3F41" stroke-width="0.3" stroke-miterlimit="10"/>
<path d="M132.01 56.48L135.84 56.91" stroke="#0E3F41" stroke-width="0.3" stroke-miterlimit="10"/>
<path d="M137.15 56.73L141.22 57.09" stroke="#0E3F41" stroke-width="0.3" stroke-miterlimit="10"/>
<path d="M111.34 198.4L111.75 202.36" stroke="#0E3F41" stroke-width="0.3" stroke-miterlimit="10"/>
<path d="M110.62 198.62L111.01 202.47" stroke="#0E3F41" stroke-width="0.3" stroke-miterlimit="10"/>
<path d="M109.91 198.61L110.32 202.37" stroke="#0E3F41" stroke-width="0.3" stroke-miterlimit="10"/>
<path d="M109.24 198.82L109.75 202.51" stroke="#0E3F41" stroke-width="0.3" stroke-miterlimit="10"/>
<path d="M108.55 198.86L108.93 202.65" stroke="#0E3F41" stroke-width="0.3" stroke-miterlimit="10"/>
<path d="M107.91 199.04L108.25 202.8" stroke="#0E3F41" stroke-width="0.3" stroke-miterlimit="10"/>
<path d="M106.42 199.22L106.77 202.93" stroke="#0E3F41" stroke-width="0.3" stroke-miterlimit="10"/>
<path d="M101.75 200.02L115.69 197.97L115.56 196.73L101.66 198.81L101.75 200.02Z" stroke="#0E3F41" stroke-width="0.75" stroke-miterlimit="10"/>
<path d="M107.14 199.05L107.54 203.02" stroke="#0E3F41" stroke-width="0.3" stroke-miterlimit="10"/>
<path d="M106.42 199.28L106.81 203.13" stroke="#0E3F41" stroke-width="0.3" stroke-miterlimit="10"/>
<path d="M105.7 199.27L106.12 203.03" stroke="#0E3F41" stroke-width="0.3" stroke-miterlimit="10"/>
<path d="M105.05 199.48L105.53 203.17" stroke="#0E3F41" stroke-width="0.3" stroke-miterlimit="10"/>
<path d="M104.29 199.53L104.78 203.3" stroke="#0E3F41" stroke-width="0.3" stroke-miterlimit="10"/>
<path d="M103.63 199.56L104.12 203.3" stroke="#0E3F41" stroke-width="0.3" stroke-miterlimit="10"/>
<path d="M98.67 204.26C105.82 203.26 112.97 202.25 120.13 201.25C119.88 199.53 119.62 197.8 119.37 196.08" stroke="#0E3F41" stroke-width="0.75" stroke-miterlimit="10"/>
<path d="M99.74 204.12L98.56 204.38L97.6 195.67" stroke="#0E3F41" stroke-width="0.75" stroke-miterlimit="10"/>
<path d="M293.76 198.35H285.52V207.32H293.76V198.35Z" fill="#FCB13F"/>
<path d="M289.42 199.67C289.34 199.67 289.27 199.71 289.23 199.76L287.39 202.21C287.33 202.3 287.37 202.41 287.48 202.45C287.51 202.47 287.55 202.47 287.59 202.47H291.27H291.29C291.42 202.46 291.51 202.37 291.5 202.27C291.5 202.25 291.49 202.22 291.47 202.2L289.63 199.75C289.59 199.69 289.5 199.66 289.41 199.66L289.42 199.67ZM289.43 200.2L290.87 202.11H287.99L289.43 200.2ZM287.57 202.93C287.44 202.93 287.35 203.03 287.36 203.12C287.36 203.15 287.37 203.17 287.39 203.19L289.23 205.64C289.29 205.73 289.44 205.76 289.55 205.71C289.59 205.69 289.62 205.67 289.64 205.64L291.48 203.19C291.54 203.1 291.51 202.99 291.4 202.94C291.37 202.93 291.34 202.92 291.31 202.92H291.29H287.61C287.61 202.92 287.6 202.92 287.59 202.92L287.57 202.93ZM288 203.29H290.88L289.44 205.2L288 203.29Z" fill="#045876"/>
<path d="M286.58 203.66H284.5V207.32H286.58V203.66Z" fill="#FCB13F"/>
<path d="M134.44 195.48H126.03V200.81H134.44V195.48Z" fill="#FCB13F"/>
<path d="M130.34 195.74C130.28 195.74 130.22 195.77 130.19 195.81L128.76 197.71C128.71 197.78 128.74 197.86 128.83 197.9C128.86 197.91 128.89 197.92 128.92 197.92H131.78C131.78 197.92 131.79 197.92 131.8 197.92C131.9 197.92 131.97 197.84 131.96 197.77C131.96 197.75 131.95 197.73 131.94 197.72L130.51 195.82C130.51 195.82 130.41 195.75 130.34 195.75V195.74ZM130.35 196.16L131.47 197.65H129.24L130.36 196.16H130.35ZM128.9 198.28C128.8 198.28 128.73 198.35 128.74 198.43C128.74 198.45 128.75 198.47 128.76 198.49L130.19 200.39C130.24 200.46 130.35 200.48 130.44 200.44C130.47 200.43 130.49 200.41 130.51 200.39L131.94 198.49C131.99 198.42 131.96 198.34 131.87 198.3C131.85 198.3 131.82 198.28 131.8 198.28C131.8 198.28 131.79 198.28 131.78 198.28H128.92C128.92 198.28 128.92 198.28 128.91 198.28H128.9ZM129.23 198.56H131.46L130.34 200.05L129.22 198.56H129.23Z" fill="#045876"/>
<path d="M120.13 201.25L121.59 226H126.69" stroke="#0E3F41" stroke-width="0.75" stroke-miterlimit="10"/>
<path d="M307.55 192.7H341.28" stroke="#0E3F41" stroke-width="0.75" stroke-miterlimit="10"/>
<path d="M307.55 204.34V180.91" stroke="#0E3F41" stroke-width="0.75" stroke-miterlimit="10"/>
<path d="M304.22 207.65H326.16V193.07V175.74L307.55 180.39" stroke="#0E3F41" stroke-width="0.75" stroke-miterlimit="10"/>
<path d="M284.71 187.64L276.86 188.5L275.73 180.65" stroke="#0E3F41" stroke-width="0.75" stroke-miterlimit="10"/>
<path d="M275.73 193.95V212.38" stroke="#0E3F41" stroke-width="0.75" stroke-miterlimit="10"/>
<path d="M284.25 190.49L284.5 226.1" stroke="#0E3F41" stroke-width="0.75" stroke-miterlimit="10"/>
<path d="M243.05 195.11H254.22H265.38" stroke="#0E3F41" stroke-width="0.75" stroke-miterlimit="10"/>
<path d="M251.41 212.06V195.11" stroke="#0E3F41" stroke-width="0.75" stroke-miterlimit="10"/>
<path d="M270.96 199.82V212.06H231.24V199.82" stroke="#0E3F41" stroke-width="0.75" stroke-miterlimit="10"/>
<rect x="191" y="219" width="40" height="20" fill="#A977AB"/>
<path d="M225.55 202.36H209.76V209.84H225.68L225.55 202.36Z" stroke="#0E3F41" stroke-width="0.75" stroke-miterlimit="10"/>
<path d="M126.69 169.76V181.39H118.94" stroke="#0E3F41" stroke-width="0.75" stroke-miterlimit="10"/>
<path d="M141.44 181.67H129.61" stroke="#0E3F41" stroke-width="0.75" stroke-miterlimit="10"/>
<path d="M191.26 239.15V218.64H206.33H230.61V239.15" stroke="#0E3F41" stroke-width="0.75" stroke-miterlimit="10"/>
<path d="M204.07 239.15V218.64" stroke="#0E3F41" stroke-width="0.75" stroke-miterlimit="10"/>
<path d="M217.72 239.15V218.64" stroke="#0E3F41" stroke-width="0.75" stroke-miterlimit="10"/>
<path d="M270.96 212.06V239.15" stroke="#0E3F41" stroke-width="0.75" stroke-miterlimit="10"/>
<path d="M163 223.22C163 221.17 164.1 220 165.57 220C167.04 220 168.14 221.17 168.14 223.22C168.14 225.27 167.04 226.44 165.57 226.44C164.1 226.44 163 225.27 163 223.22ZM167.24 223.22C167.24 221.61 166.56 220.8 165.57 220.8C164.58 220.8 163.9 221.61 163.9 223.22C163.9 224.83 164.58 225.64 165.57 225.64C166.56 225.64 167.24 224.83 167.24 223.22Z" fill="#ECD2D2"/>
<path d="M173.43 225.59V226.37H168.9V225.76L171.47 223.28C172.14 222.63 172.26 222.24 172.26 221.84C172.26 221.19 171.8 220.8 170.92 220.8C170.25 220.8 169.7 221.02 169.31 221.48L168.7 220.95C169.19 220.35 170.02 220 171 220C172.31 220 173.16 220.68 173.16 221.76C173.16 222.37 172.98 222.92 172.12 223.74L170.19 225.59H173.42H173.43Z" fill="#ECD2D2"/>
<path d="M176.12 220.07V226.37H175.23V220.85H173.81V220.07H176.12Z" fill="#ECD2D2"/>
<path d="M182.38 224.46C182.38 225.68 181.4 226.45 180.15 226.45C178.46 226.45 177.5 225.32 177.5 223.31C177.5 221.16 178.72 220.01 180.48 220.01C181.07 220.01 181.64 220.13 182.05 220.38L181.71 221.08C181.39 220.86 180.95 220.78 180.5 220.78C179.22 220.78 178.4 221.58 178.4 223.16C178.4 223.23 178.4 223.3 178.4 223.38C178.76 222.84 179.43 222.55 180.21 222.55C181.46 222.55 182.37 223.3 182.37 224.46H182.38ZM181.51 224.49C181.51 223.75 180.95 223.28 180.07 223.28C179.19 223.28 178.62 223.81 178.62 224.5C178.62 225.15 179.14 225.72 180.11 225.72C180.93 225.72 181.51 225.24 181.51 224.5V224.49Z" fill="#ECD2D2"/>
<line x1="197.5" y1="230" x2="197.5" y2="249" stroke="#A977AB"/>
<line x1="210.5" y1="230" x2="210.5" y2="260" stroke="#A977AB"/>
<line x1="224.5" y1="230" x2="224.5" y2="249" stroke="#A977AB"/>
<path d="M190.006 257.072C189.514 257.072 189.073 256.946 188.683 256.694C188.299 256.442 187.993 256.076 187.765 255.596C187.543 255.116 187.432 254.534 187.432 253.85C187.432 253.166 187.543 252.584 187.765 252.104C187.993 251.624 188.299 251.258 188.683 251.006C189.073 250.754 189.514 250.628 190.006 250.628C190.492 250.628 190.93 250.754 191.32 251.006C191.71 251.258 192.016 251.624 192.238 252.104C192.46 252.584 192.571 253.166 192.571 253.85C192.571 254.534 192.46 255.116 192.238 255.596C192.016 256.076 191.71 256.442 191.32 256.694C190.93 256.946 190.492 257.072 190.006 257.072ZM190.006 256.271C190.336 256.271 190.624 256.181 190.87 256.001C191.122 255.821 191.317 255.551 191.455 255.191C191.599 254.831 191.671 254.384 191.671 253.85C191.671 253.316 191.599 252.869 191.455 252.509C191.317 252.149 191.122 251.879 190.87 251.699C190.624 251.519 190.336 251.429 190.006 251.429C189.676 251.429 189.385 251.519 189.133 251.699C188.881 251.879 188.683 252.149 188.539 252.509C188.401 252.869 188.332 253.316 188.332 253.85C188.332 254.384 188.401 254.831 188.539 255.191C188.683 255.551 188.881 255.821 189.133 256.001C189.385 256.181 189.676 256.271 190.006 256.271ZM193.336 257V256.388L195.901 253.913C196.129 253.697 196.297 253.508 196.405 253.346C196.519 253.178 196.594 253.025 196.63 252.887C196.672 252.743 196.693 252.605 196.693 252.473C196.693 252.149 196.579 251.894 196.351 251.708C196.123 251.522 195.79 251.429 195.352 251.429C195.016 251.429 194.713 251.486 194.443 251.6C194.173 251.708 193.939 251.879 193.741 252.113L193.129 251.582C193.369 251.276 193.69 251.042 194.092 250.88C194.5 250.712 194.947 250.628 195.433 250.628C195.871 250.628 196.252 250.7 196.576 250.844C196.9 250.982 197.149 251.183 197.323 251.447C197.503 251.711 197.593 252.023 197.593 252.383C197.593 252.587 197.566 252.788 197.512 252.986C197.458 253.184 197.356 253.394 197.206 253.616C197.056 253.838 196.84 254.087 196.558 254.363L194.272 256.568L194.056 256.217H197.863V257H193.336ZM199.665 257V251.06L200.052 251.483H198.243V250.7H200.556V257H199.665ZM204.391 257.072C203.881 257.072 203.44 256.997 203.068 256.847C202.696 256.697 202.408 256.484 202.204 256.208C202 255.926 201.898 255.596 201.898 255.218C201.898 254.846 201.994 254.531 202.186 254.273C202.384 254.009 202.669 253.811 203.041 253.679C203.413 253.541 203.863 253.472 204.391 253.472C204.919 253.472 205.369 253.541 205.741 253.679C206.119 253.811 206.407 254.009 206.605 254.273C206.803 254.537 206.902 254.852 206.902 255.218C206.902 255.596 206.8 255.926 206.596 256.208C206.392 256.484 206.101 256.697 205.723 256.847C205.345 256.997 204.901 257.072 204.391 257.072ZM204.391 256.343C204.895 256.343 205.288 256.241 205.57 256.037C205.858 255.827 206.002 255.545 206.002 255.191C206.002 254.843 205.858 254.57 205.57 254.372C205.288 254.168 204.895 254.066 204.391 254.066C203.893 254.066 203.503 254.168 203.221 254.372C202.939 254.57 202.798 254.843 202.798 255.191C202.798 255.545 202.939 255.827 203.221 256.037C203.503 256.241 203.893 256.343 204.391 256.343ZM204.391 253.958C203.911 253.958 203.503 253.895 203.167 253.769C202.831 253.637 202.573 253.451 202.393 253.211C202.213 252.965 202.123 252.674 202.123 252.338C202.123 251.984 202.216 251.681 202.402 251.429C202.594 251.171 202.861 250.973 203.203 250.835C203.545 250.697 203.941 250.628 204.391 250.628C204.847 250.628 205.246 250.697 205.588 250.835C205.93 250.973 206.197 251.171 206.389 251.429C206.581 251.681 206.677 251.984 206.677 252.338C206.677 252.674 206.587 252.965 206.407 253.211C206.227 253.451 205.966 253.637 205.624 253.769C205.282 253.895 204.871 253.958 204.391 253.958ZM204.391 253.382C204.829 253.382 205.171 253.292 205.417 253.112C205.669 252.932 205.795 252.686 205.795 252.374C205.795 252.056 205.666 251.807 205.408 251.627C205.15 251.447 204.811 251.357 204.391 251.357C203.971 251.357 203.635 251.447 203.383 251.627C203.137 251.807 203.014 252.056 203.014 252.374C203.014 252.686 203.134 252.932 203.374 253.112C203.62 253.292 203.959 253.382 204.391 253.382Z" fill="#A977AB"/>
<path d="M203.006 268.072C202.514 268.072 202.073 267.946 201.683 267.694C201.299 267.442 200.993 267.076 200.765 266.596C200.543 266.116 200.432 265.534 200.432 264.85C200.432 264.166 200.543 263.584 200.765 263.104C200.993 262.624 201.299 262.258 201.683 262.006C202.073 261.754 202.514 261.628 203.006 261.628C203.492 261.628 203.93 261.754 204.32 262.006C204.71 262.258 205.016 262.624 205.238 263.104C205.46 263.584 205.571 264.166 205.571 264.85C205.571 265.534 205.46 266.116 205.238 266.596C205.016 267.076 204.71 267.442 204.32 267.694C203.93 267.946 203.492 268.072 203.006 268.072ZM203.006 267.271C203.336 267.271 203.624 267.181 203.87 267.001C204.122 266.821 204.317 266.551 204.455 266.191C204.599 265.831 204.671 265.384 204.671 264.85C204.671 264.316 204.599 263.869 204.455 263.509C204.317 263.149 204.122 262.879 203.87 262.699C203.624 262.519 203.336 262.429 203.006 262.429C202.676 262.429 202.385 262.519 202.133 262.699C201.881 262.879 201.683 263.149 201.539 263.509C201.401 263.869 201.332 264.316 201.332 264.85C201.332 265.384 201.401 265.831 201.539 266.191C201.683 266.551 201.881 266.821 202.133 267.001C202.385 267.181 202.676 267.271 203.006 267.271ZM206.336 268V267.388L208.901 264.913C209.129 264.697 209.297 264.508 209.405 264.346C209.519 264.178 209.594 264.025 209.63 263.887C209.672 263.743 209.693 263.605 209.693 263.473C209.693 263.149 209.579 262.894 209.351 262.708C209.123 262.522 208.79 262.429 208.352 262.429C208.016 262.429 207.713 262.486 207.443 262.6C207.173 262.708 206.939 262.879 206.741 263.113L206.129 262.582C206.369 262.276 206.69 262.042 207.092 261.88C207.5 261.712 207.947 261.628 208.433 261.628C208.871 261.628 209.252 261.7 209.576 261.844C209.9 261.982 210.149 262.183 210.323 262.447C210.503 262.711 210.593 263.023 210.593 263.383C210.593 263.587 210.566 263.788 210.512 263.986C210.458 264.184 210.356 264.394 210.206 264.616C210.056 264.838 209.84 265.087 209.558 265.363L207.272 267.568L207.056 267.217H210.863V268H206.336ZM211.504 268V267.388L214.069 264.913C214.297 264.697 214.465 264.508 214.573 264.346C214.687 264.178 214.762 264.025 214.798 263.887C214.84 263.743 214.861 263.605 214.861 263.473C214.861 263.149 214.747 262.894 214.519 262.708C214.291 262.522 213.958 262.429 213.52 262.429C213.184 262.429 212.881 262.486 212.611 262.6C212.341 262.708 212.107 262.879 211.909 263.113L211.297 262.582C211.537 262.276 211.858 262.042 212.26 261.88C212.668 261.712 213.115 261.628 213.601 261.628C214.039 261.628 214.42 261.7 214.744 261.844C215.068 261.982 215.317 262.183 215.491 262.447C215.671 262.711 215.761 263.023 215.761 263.383C215.761 263.587 215.734 263.788 215.68 263.986C215.626 264.184 215.524 264.394 215.374 264.616C215.224 264.838 215.008 265.087 214.726 265.363L212.44 267.568L212.224 267.217H216.031V268H211.504ZM219.336 268.072C218.844 268.072 218.403 267.946 218.013 267.694C217.629 267.442 217.323 267.076 217.095 266.596C216.873 266.116 216.762 265.534 216.762 264.85C216.762 264.166 216.873 263.584 217.095 263.104C217.323 262.624 217.629 262.258 218.013 262.006C218.403 261.754 218.844 261.628 219.336 261.628C219.822 261.628 220.26 261.754 220.65 262.006C221.04 262.258 221.346 262.624 221.568 263.104C221.79 263.584 221.901 264.166 221.901 264.85C221.901 265.534 221.79 266.116 221.568 266.596C221.346 267.076 221.04 267.442 220.65 267.694C220.26 267.946 219.822 268.072 219.336 268.072ZM219.336 267.271C219.666 267.271 219.954 267.181 220.2 267.001C220.452 266.821 220.647 266.551 220.785 266.191C220.929 265.831 221.001 265.384 221.001 264.85C221.001 264.316 220.929 263.869 220.785 263.509C220.647 263.149 220.452 262.879 220.2 262.699C219.954 262.519 219.666 262.429 219.336 262.429C219.006 262.429 218.715 262.519 218.463 262.699C218.211 262.879 218.013 263.149 217.869 263.509C217.731 263.869 217.662 264.316 217.662 264.85C217.662 265.384 217.731 265.831 217.869 266.191C218.013 266.551 218.211 266.821 218.463 267.001C218.715 267.181 219.006 267.271 219.336 267.271Z" fill="#A977AB"/>
<path d="M217.006 257.072C216.514 257.072 216.073 256.946 215.683 256.694C215.299 256.442 214.993 256.076 214.765 255.596C214.543 255.116 214.432 254.534 214.432 253.85C214.432 253.166 214.543 252.584 214.765 252.104C214.993 251.624 215.299 251.258 215.683 251.006C216.073 250.754 216.514 250.628 217.006 250.628C217.492 250.628 217.93 250.754 218.32 251.006C218.71 251.258 219.016 251.624 219.238 252.104C219.46 252.584 219.571 253.166 219.571 253.85C219.571 254.534 219.46 255.116 219.238 255.596C219.016 256.076 218.71 256.442 218.32 256.694C217.93 256.946 217.492 257.072 217.006 257.072ZM217.006 256.271C217.336 256.271 217.624 256.181 217.87 256.001C218.122 255.821 218.317 255.551 218.455 255.191C218.599 254.831 218.671 254.384 218.671 253.85C218.671 253.316 218.599 252.869 218.455 252.509C218.317 252.149 218.122 251.879 217.87 251.699C217.624 251.519 217.336 251.429 217.006 251.429C216.676 251.429 216.385 251.519 216.133 251.699C215.881 251.879 215.683 252.149 215.539 252.509C215.401 252.869 215.332 253.316 215.332 253.85C215.332 254.384 215.401 254.831 215.539 255.191C215.683 255.551 215.881 255.821 216.133 256.001C216.385 256.181 216.676 256.271 217.006 256.271ZM220.336 257V256.388L222.901 253.913C223.129 253.697 223.297 253.508 223.405 253.346C223.519 253.178 223.594 253.025 223.63 252.887C223.672 252.743 223.693 252.605 223.693 252.473C223.693 252.149 223.579 251.894 223.351 251.708C223.123 251.522 222.79 251.429 222.352 251.429C222.016 251.429 221.713 251.486 221.443 251.6C221.173 251.708 220.939 251.879 220.741 252.113L220.129 251.582C220.369 251.276 220.69 251.042 221.092 250.88C221.5 250.712 221.947 250.628 222.433 250.628C222.871 250.628 223.252 250.7 223.576 250.844C223.9 250.982 224.149 251.183 224.323 251.447C224.503 251.711 224.593 252.023 224.593 252.383C224.593 252.587 224.566 252.788 224.512 252.986C224.458 253.184 224.356 253.394 224.206 253.616C224.056 253.838 223.84 254.087 223.558 254.363L221.272 256.568L221.056 256.217H224.863V257H220.336ZM225.504 257V256.388L228.069 253.913C228.297 253.697 228.465 253.508 228.573 253.346C228.687 253.178 228.762 253.025 228.798 252.887C228.84 252.743 228.861 252.605 228.861 252.473C228.861 252.149 228.747 251.894 228.519 251.708C228.291 251.522 227.958 251.429 227.52 251.429C227.184 251.429 226.881 251.486 226.611 251.6C226.341 251.708 226.107 251.879 225.909 252.113L225.297 251.582C225.537 251.276 225.858 251.042 226.26 250.88C226.668 250.712 227.115 250.628 227.601 250.628C228.039 250.628 228.42 250.7 228.744 250.844C229.068 250.982 229.317 251.183 229.491 251.447C229.671 251.711 229.761 252.023 229.761 252.383C229.761 252.587 229.734 252.788 229.68 252.986C229.626 253.184 229.524 253.394 229.374 253.616C229.224 253.838 229.008 254.087 228.726 254.363L226.44 256.568L226.224 256.217H230.031V257H225.504ZM230.672 257V256.388L233.237 253.913C233.465 253.697 233.633 253.508 233.741 253.346C233.855 253.178 233.93 253.025 233.966 252.887C234.008 252.743 234.029 252.605 234.029 252.473C234.029 252.149 233.915 251.894 233.687 251.708C233.459 251.522 233.126 251.429 232.688 251.429C232.352 251.429 232.049 251.486 231.779 251.6C231.509 251.708 231.275 251.879 231.077 252.113L230.465 251.582C230.705 251.276 231.026 251.042 231.428 250.88C231.836 250.712 232.283 250.628 232.769 250.628C233.207 250.628 233.588 250.7 233.912 250.844C234.236 250.982 234.485 251.183 234.659 251.447C234.839 251.711 234.929 252.023 234.929 252.383C234.929 252.587 234.902 252.788 234.848 252.986C234.794 253.184 234.692 253.394 234.542 253.616C234.392 253.838 234.176 254.087 233.894 254.363L231.608 256.568L231.392 256.217H235.199V257H230.672Z" fill="#A977AB"/>
</svg>
