<svg width="432" height="288" viewBox="0 0 432 288" fill="none" xmlns="http://www.w3.org/2000/svg">
<path d="M126 165H142V182L130 183.5L126 165Z" fill="#A977AB"/>
<path d="M313 147.5L331 140L336.5 160.5L318.5 166L313 147.5Z" fill="#A977AB"/>
<rect x="300" y="179" width="25" height="26" fill="#A977AB"/>
<path d="M209.76 180.71L206.36 171.38L256.6 157.11L257.86 157.95L258.43 172.34C258.43 172.34 238.66 164.62 218.4 182.27L209.76 180.7V180.71Z" fill="#C8355A"/>
<path d="M149.71 129.48L150.15 128.54C150.77 129.1 151.84 129.51 152.92 129.51C154.37 129.51 155 128.95 155 128.22C155 126.17 149.91 127.46 149.91 124.35C149.91 123.06 150.92 121.95 153.12 121.95C154.1 121.95 155.12 122.21 155.82 122.69L155.42 123.65C154.69 123.18 153.86 122.97 153.12 122.97C151.69 122.97 151.08 123.57 151.08 124.3C151.08 126.35 156.16 125.07 156.16 128.15C156.16 129.43 155.13 130.54 152.91 130.54C151.63 130.54 150.37 130.11 149.7 129.49L149.71 129.48Z" fill="#C8355A"/>
<path d="M163.49 127.65H158.33C158.47 128.77 159.37 129.51 160.63 129.51C161.37 129.51 162 129.26 162.46 128.74L163.1 129.48C162.52 130.15 161.65 130.51 160.59 130.51C158.54 130.51 157.17 129.15 157.17 127.26C157.17 125.37 158.53 124.02 160.36 124.02C162.19 124.02 163.5 125.34 163.5 127.29C163.5 127.39 163.49 127.53 163.48 127.64L163.49 127.65ZM158.33 126.82H162.41C162.29 125.75 161.49 125 160.37 125C159.25 125 158.45 125.74 158.33 126.82Z" fill="#C8355A"/>
<path d="M164.52 127.26C164.52 125.37 165.92 124.02 167.88 124.02C169.02 124.02 169.97 124.49 170.47 125.37L169.59 125.93C169.18 125.31 168.56 125.02 167.86 125.02C166.61 125.02 165.68 125.9 165.68 127.25C165.68 128.6 166.62 129.49 167.86 129.49C168.56 129.49 169.18 129.2 169.59 128.58L170.47 129.13C169.97 130.02 169.02 130.5 167.88 130.5C165.92 130.5 164.52 129.14 164.52 127.25V127.26Z" fill="#C8355A"/>
<path d="M171.37 127.26C171.37 125.37 172.77 124.02 174.68 124.02C176.59 124.02 177.98 125.36 177.98 127.26C177.98 129.16 176.59 130.51 174.68 130.51C172.77 130.51 171.37 129.15 171.37 127.26ZM176.82 127.26C176.82 125.91 175.91 125.03 174.69 125.03C173.47 125.03 172.54 125.91 172.54 127.26C172.54 128.61 173.46 129.5 174.69 129.5C175.92 129.5 176.82 128.61 176.82 127.26Z" fill="#C8355A"/>
<path d="M185.61 126.78V130.44H184.46V126.91C184.46 125.66 183.84 125.05 182.75 125.05C181.53 125.05 180.74 125.78 180.74 127.16V130.43H179.59V124.07H180.69V125.03C181.16 124.38 181.97 124.01 182.98 124.01C184.53 124.01 185.62 124.9 185.62 126.77L185.61 126.78Z" fill="#C8355A"/>
<path d="M193.75 121.54V130.44H192.65V129.43C192.13 130.15 191.32 130.51 190.38 130.51C188.52 130.51 187.17 129.2 187.17 127.26C187.17 125.32 188.53 124.02 190.38 124.02C191.28 124.02 192.07 124.35 192.6 125.04V121.54H193.75ZM192.61 127.26C192.61 125.91 191.69 125.03 190.47 125.03C189.25 125.03 188.32 125.91 188.32 127.26C188.32 128.61 189.24 129.5 190.47 129.5C191.7 129.5 192.61 128.61 192.61 127.26Z" fill="#C8355A"/>
<path d="M200.53 123.09V126.02H204.74V127.05H200.53V130.44H199.33V122.04H205.25V123.08H200.53V123.09Z" fill="#C8355A"/>
<path d="M206.78 121.54H207.93V130.44H206.78V121.54Z" fill="#C8355A"/>
<path d="M209.54 127.26C209.54 125.37 210.94 124.02 212.85 124.02C214.76 124.02 216.15 125.36 216.15 127.26C216.15 129.16 214.76 130.51 212.85 130.51C210.94 130.51 209.54 129.15 209.54 127.26ZM214.99 127.26C214.99 125.91 214.08 125.03 212.86 125.03C211.64 125.03 210.71 125.91 210.71 127.26C210.71 128.61 211.63 129.5 212.86 129.5C214.09 129.5 214.99 128.61 214.99 127.26Z" fill="#C8355A"/>
<path d="M217.16 127.26C217.16 125.37 218.56 124.02 220.47 124.02C222.38 124.02 223.77 125.36 223.77 127.26C223.77 129.16 222.38 130.51 220.47 130.51C218.56 130.51 217.16 129.15 217.16 127.26ZM222.61 127.26C222.61 125.91 221.7 125.03 220.48 125.03C219.26 125.03 218.33 125.91 218.33 127.26C218.33 128.61 219.25 129.5 220.48 129.5C221.71 129.5 222.61 128.61 222.61 127.26Z" fill="#C8355A"/>
<path d="M228.79 124.03V125.15C228.69 125.14 228.61 125.14 228.53 125.14C227.3 125.14 226.53 125.9 226.53 127.29V130.46H225.38V124.1H226.48V125.17C226.89 124.43 227.68 124.04 228.8 124.04L228.79 124.03Z" fill="#C8355A"/>
<path d="M239.04 128.34H234.58L233.66 130.44H232.43L236.23 122.04H237.42L241.23 130.44H239.97L239.05 128.34H239.04ZM238.62 127.38L236.81 123.27L235 127.38H238.62Z" fill="#C8355A"/>
<path d="M245.88 130.07C245.53 130.37 245 130.51 244.49 130.51C243.21 130.51 242.47 129.8 242.47 128.52V125.03H241.39V124.08H242.47V122.69H243.62V124.08H245.44V125.03H243.62V128.47C243.62 129.15 243.98 129.54 244.62 129.54C244.96 129.54 245.28 129.43 245.52 129.24L245.88 130.07Z" fill="#C8355A"/>
<path d="M250.69 124.03V125.15C250.59 125.14 250.51 125.14 250.43 125.14C249.19 125.14 248.43 125.9 248.43 127.29V130.46H247.28V124.1H248.38V125.17C248.79 124.43 249.58 124.04 250.69 124.04V124.03Z" fill="#C8355A"/>
<path d="M251.99 122.12C251.99 121.7 252.32 121.36 252.77 121.36C253.22 121.36 253.55 121.68 253.55 122.09C253.55 122.52 253.23 122.86 252.77 122.86C252.31 122.86 251.99 122.54 251.99 122.12ZM252.19 124.09H253.34V130.45H252.19V124.09Z" fill="#C8355A"/>
<path d="M261.46 124.09V130.45H260.37V129.49C259.9 130.15 259.11 130.52 258.21 130.52C256.57 130.52 255.48 129.62 255.48 127.75V124.09H256.63V127.62C256.63 128.87 257.25 129.49 258.35 129.49C259.55 129.49 260.32 128.75 260.32 127.38V124.09H261.47H261.46Z" fill="#C8355A"/>
<path d="M274.22 126.78V130.44H273.07V126.91C273.07 125.66 272.47 125.05 271.43 125.05C270.28 125.05 269.52 125.78 269.52 127.16V130.43H268.37V126.9C268.37 125.65 267.77 125.04 266.73 125.04C265.58 125.04 264.82 125.77 264.82 127.15V130.42H263.67V124.06H264.77V125.01C265.23 124.36 266.01 124 266.97 124C267.93 124 268.76 124.38 269.18 125.17C269.66 124.45 270.55 124 271.63 124C273.18 124 274.23 124.89 274.23 126.76L274.22 126.78Z" fill="#C8355A"/>
<path d="M325.1 205.79H299.87V178.4H325.1V205.79ZM300.86 204.79H324.09V179.4H300.86V204.79Z" fill="#0E3F41"/>
<mask id="mask0_3_2" style="mask-type:luminance" maskUnits="userSpaceOnUse" x="299" y="178" width="27" height="28">
<path d="M325.1 205.79H299.87V178.4H325.1V205.79ZM300.86 204.79H324.09V179.4H300.86V204.79Z" fill="white"/>
</mask>
<g mask="url(#mask0_3_2)">
<path d="M369.14 295.39H55.82V-17.93H369.14V295.39ZM56.82 294.39H368.14V-16.93H56.82V294.39Z" fill="#0E3F41"/>
</g>
<path d="M309.9 239.67H251.36V225.45H309.9V239.67ZM252.11 238.92H309.15V226.2H252.11V238.92Z" fill="#0E3F41"/>
<path d="M342.88 214.06H328.27V179.82H342.88V214.06ZM329.27 213.06H341.88V180.82H329.27V213.06Z" fill="#0E3F41"/>
<path d="M292.59 187.49H285.5V197.9H292.59V187.49Z" fill="#B8D7D7"/>
<mask id="mask1_3_2" style="mask-type:luminance" maskUnits="userSpaceOnUse" x="285" y="187" width="8" height="11">
<path d="M292.59 187.49H285.5V197.9H292.59V187.49Z" fill="white"/>
</mask>
<g mask="url(#mask1_3_2)">
<path d="M368.64 -17.43H56.32V294.89H368.64V-17.43Z" fill="#B8D7D7"/>
<mask id="mask2_3_2" style="mask-type:luminance" maskUnits="userSpaceOnUse" x="56" y="-18" width="313" height="313">
<path d="M368.64 -17.43H56.32V294.89H368.64V-17.43Z" fill="white"/>
</mask>
<g mask="url(#mask2_3_2)">
<path d="M293.31 186.77H284.78V198.63H293.31V186.77Z" fill="#B8D7D7"/>
</g>
</g>
<path d="M295.62 188.14H284.21V179.63H295.62V188.14ZM285.21 187.14H294.62V180.63H285.21V187.14Z" fill="#0E3F41"/>
<mask id="mask3_3_2" style="mask-type:luminance" maskUnits="userSpaceOnUse" x="284" y="179" width="12" height="10">
<path d="M295.62 188.14H284.21V179.63H295.62V188.14ZM285.21 187.14H294.62V180.63H285.21V187.14Z" fill="white"/>
</mask>
<g mask="url(#mask3_3_2)">
<path d="M369.14 295.39H55.82V-17.93H369.14V295.39ZM56.82 294.39H368.14V-16.93H56.82V294.39Z" fill="#0E3F41"/>
</g>
<path d="M96.74 222.44H83.06V188.64H96.74V222.44ZM83.81 221.69H95.99V189.39H83.81V221.69Z" fill="#0E3F41"/>
<mask id="mask4_3_2" style="mask-type:luminance" maskUnits="userSpaceOnUse" x="83" y="188" width="14" height="35">
<path d="M96.74 222.44H83.06V188.64H96.74V222.44ZM83.81 221.69H95.99V189.39H83.81V221.69Z" fill="white"/>
</mask>
<g mask="url(#mask4_3_2)">
<path d="M369.01 295.26H55.95V-17.81H369.02V295.26H369.01ZM56.7 294.51H368.27V-17.06H56.7V294.51Z" fill="#0E3F41"/>
</g>
<path d="M91.56 84.32H79.35V73.24H91.56V84.32ZM80.35 83.32H90.56V74.24H80.35V83.32Z" fill="#0E3F41"/>
<mask id="mask5_3_2" style="mask-type:luminance" maskUnits="userSpaceOnUse" x="79" y="73" width="13" height="12">
<path d="M91.56 84.32H79.35V73.24H91.56V84.32ZM80.35 83.32H90.56V74.24H80.35V83.32Z" fill="white"/>
</mask>
<g mask="url(#mask5_3_2)">
<path d="M369.14 295.39H55.82V-17.93H369.14V295.39ZM56.82 294.39H368.14V-16.93H56.82V294.39Z" fill="#0E3F41"/>
</g>
<path d="M121.4 78.98H93.9V65.57H121.4V78.98ZM94.9 77.98H120.4V66.57H94.9V77.98Z" fill="#0E3F41"/>
<mask id="mask6_3_2" style="mask-type:luminance" maskUnits="userSpaceOnUse" x="93" y="65" width="29" height="14">
<path d="M121.4 78.98H93.9V65.57H121.4V78.98ZM94.9 77.98H120.4V66.57H94.9V77.98Z" fill="white"/>
</mask>
<g mask="url(#mask6_3_2)">
<path d="M369.14 295.39H55.82V-17.93H369.14V295.39ZM56.82 294.39H368.14V-16.93H56.82V294.39Z" fill="#0E3F41"/>
</g>
<path d="M93.03 182.18H78.78V163.94H93.03V182.18ZM79.78 181.18H92.03V164.94H79.78V181.18Z" fill="#0E3F41"/>
<mask id="mask7_3_2" style="mask-type:luminance" maskUnits="userSpaceOnUse" x="78" y="163" width="16" height="20">
<path d="M93.03 182.18H78.78V163.94H93.03V182.18ZM79.78 181.18H92.03V164.94H79.78V181.18Z" fill="white"/>
</mask>
<g mask="url(#mask7_3_2)">
<path d="M369.14 295.39H55.82V-17.93H369.14V295.39ZM56.82 294.39H368.14V-16.93H56.82V294.39Z" fill="#0E3F41"/>
</g>
<path d="M121.37 134H114.22V123.89H121.37V134ZM115.22 133H120.37V124.89H115.22V133Z" fill="#0E3F41"/>
<path d="M121.96 222.44H95.99V208.68H121.96V222.44ZM96.74 221.69H121.21V209.43H96.74V221.69Z" fill="#0E3F41"/>
<mask id="mask8_3_2" style="mask-type:luminance" maskUnits="userSpaceOnUse" x="95" y="208" width="27" height="15">
<path d="M121.96 222.44H95.99V208.68H121.96V222.44ZM96.74 221.69H121.21V209.43H96.74V221.69Z" fill="white"/>
</mask>
<g mask="url(#mask8_3_2)">
<path d="M369.01 295.26H55.95V-17.81H369.02V295.26H369.01ZM56.7 294.51H368.27V-17.06H56.7V294.51Z" fill="#0E3F41"/>
</g>
<path d="M203.86 238.92H186.1V228.46H203.86V238.92ZM186.85 238.17H203.11V229.21H186.85V238.17Z" fill="#0E3F41"/>
<mask id="mask9_3_2" style="mask-type:luminance" maskUnits="userSpaceOnUse" x="186" y="228" width="18" height="11">
<path d="M203.86 238.92H186.1V228.46H203.86V238.92ZM186.85 238.17H203.11V229.21H186.85V238.17Z" fill="white"/>
</mask>
<g mask="url(#mask9_3_2)">
<path d="M369.01 295.26H55.95V-17.81H369.02V295.26H369.01ZM56.7 294.51H368.27V-17.06H56.7V294.51Z" fill="#0E3F41"/>
</g>
<path d="M154.01 198.02H134.94V221.66H154.01V198.02Z" fill="#B8D7D7"/>
<path fill-rule="evenodd" clip-rule="evenodd" d="M134.87 221.64H153.66V197.15H147.7V202.35H139.75V197.15H134.87V221.64Z" fill="#B8D7D7"/>
<path d="M203.08 210.21H189.93V196.57H203.08V210.21ZM190.68 209.46H202.33V197.32H190.68V209.46Z" fill="#0E3F41"/>
<path d="M252.11 240.04H242.07V221.29H252.11V240.04ZM242.83 239.29H251.37V222.04H242.83V239.29Z" fill="#0E3F41"/>
<mask id="mask10_3_2" style="mask-type:luminance" maskUnits="userSpaceOnUse" x="242" y="221" width="11" height="20">
<path d="M252.11 240.04H242.07V221.29H252.11V240.04ZM242.83 239.29H251.37V222.04H242.83V239.29Z" fill="white"/>
</mask>
<g mask="url(#mask10_3_2)">
<path d="M369.01 295.26H55.95V-17.81H369.02V295.26H369.01ZM56.7 294.51H368.27V-17.06H56.7V294.51Z" fill="#0E3F41"/>
</g>
<path d="M227.83 239.34H202.88V221.29H227.83V239.34ZM203.63 238.59H227.08V222.04H203.63V238.59Z" fill="#0E3F41"/>
<path d="M129.68 183.91L129.53 182.92L140.94 181.24V165.17H126.3V164.17H141.94V182.1L129.68 183.91Z" fill="#0E3F41"/>
<mask id="mask11_3_2" style="mask-type:luminance" maskUnits="userSpaceOnUse" x="126" y="164" width="16" height="20">
<path d="M129.68 183.91L129.53 182.92L140.94 181.24V165.17H126.3V164.17H141.94V182.1L129.68 183.91Z" fill="white"/>
</mask>
<g mask="url(#mask11_3_2)">
<path d="M369.14 295.39H55.82V-17.93H369.14V295.39ZM56.82 294.39H368.14V-16.93H56.82V294.39Z" fill="#0E3F41"/>
</g>
<path d="M154.15 82.95L136.83 80.65L140.45 57.82L141.44 57.97L137.98 79.8L153.31 81.83L156.54 60.07L157.53 60.22L154.15 82.95Z" fill="#0E3F41"/>
<mask id="mask12_3_2" style="mask-type:luminance" maskUnits="userSpaceOnUse" x="136" y="57" width="22" height="26">
<path d="M154.15 82.95L136.83 80.65L140.45 57.82L141.44 57.97L137.98 79.8L153.31 81.83L156.54 60.07L157.53 60.22L154.15 82.95Z" fill="white"/>
</mask>
<g mask="url(#mask12_3_2)">
<path d="M369.14 295.39H55.82V-17.93H369.14V295.39ZM56.82 294.39H368.14V-16.93H56.82V294.39Z" fill="#0E3F41"/>
</g>
<path fill-rule="evenodd" clip-rule="evenodd" d="M274.61 147.71L277.58 158.42L282.34 174.99L319.79 171.16L310.62 138.64L294.71 144.6L293.64 145.43L292 140.53" fill="#A977AB"/>
<mask id="mask13_3_2" style="mask-type:luminance" maskUnits="userSpaceOnUse" x="274" y="138" width="46" height="37">
<path d="M274.61 147.71L277.58 158.42L282.34 174.99L319.79 171.16L310.62 138.64L294.71 144.6L293.64 145.43L292 140.53" fill="white"/>
</mask>
<g mask="url(#mask13_3_2)">
<path d="M368.64 -17.43H56.32V294.89H368.64V-17.43Z" fill="#A977AB"/>
<mask id="mask14_3_2" style="mask-type:luminance" maskUnits="userSpaceOnUse" x="56" y="-18" width="313" height="313">
<path d="M368.64 -17.43H56.32V294.89H368.64V-17.43Z" fill="white"/>
</mask>
<g mask="url(#mask14_3_2)">
<path d="M320.51 137.91H273.88V175.71H320.51V137.91Z" fill="#A977AB"/>
</g>
</g>
<path fill-rule="evenodd" clip-rule="evenodd" d="M150.1 215.6V218.23C150.1 218.29 150.1 218.35 150.08 218.41C150.01 218.59 149.81 218.67 149.62 218.6C149.48 218.55 149.4 218.43 149.4 218.27C149.4 218.14 149.4 218.02 149.4 217.89C149.4 217.32 149.4 216.74 149.4 216.17C149.4 215.84 149.4 215.51 149.4 215.17C149.4 215.15 149.4 215.12 149.4 215.1C149.39 215.05 149.35 215.02 149.3 215.01C149.24 215.01 149.2 215.03 149.18 215.08C149.17 215.11 149.17 215.14 149.17 215.17C149.17 216.19 149.17 217.22 149.17 218.24C149.17 218.34 149.16 218.43 149.09 218.5C148.99 218.61 148.87 218.65 148.73 218.62C148.59 218.59 148.5 218.49 148.46 218.36C148.45 218.32 148.44 218.27 148.44 218.22C148.44 217.51 148.44 216.8 148.44 216.1C148.44 215.05 148.44 214 148.44 212.94C148.44 212.86 148.42 212.83 148.36 212.81C148.29 212.79 148.21 212.81 148.17 212.87C148.16 212.89 148.16 212.9 148.16 212.92C148.16 213.3 148.16 213.67 148.16 214.05C148.16 214.33 148.16 214.6 148.16 214.88C148.16 214.99 148.12 215.08 148.01 215.13C147.91 215.17 147.8 215.15 147.72 215.07C147.67 215.02 147.65 214.97 147.65 214.9C147.65 214.19 147.65 213.48 147.65 212.77C147.65 212.58 147.69 212.4 147.79 212.24C147.97 211.96 148.22 211.8 148.56 211.79C148.99 211.78 149.42 211.79 149.84 211.79C150.28 211.79 150.7 212.14 150.8 212.57C150.82 212.67 150.84 212.77 150.84 212.87C150.84 213.53 150.84 214.2 150.84 214.86C150.84 215 150.78 215.08 150.66 215.12C150.5 215.17 150.35 215.07 150.34 214.9C150.34 214.88 150.34 214.86 150.34 214.84C150.34 214.2 150.34 213.55 150.34 212.91C150.34 212.81 150.25 212.77 150.19 212.79C150.13 212.8 150.1 212.84 150.1 212.9V215.58V215.6Z" fill="#5B629C"/>
<mask id="mask15_3_2" style="mask-type:luminance" maskUnits="userSpaceOnUse" x="147" y="211" width="4" height="8">
<path d="M150.1 215.6V218.23C150.1 218.29 150.1 218.35 150.08 218.41C150.01 218.59 149.81 218.67 149.62 218.6C149.48 218.55 149.4 218.43 149.4 218.27C149.4 218.14 149.4 218.02 149.4 217.89C149.4 217.32 149.4 216.74 149.4 216.17C149.4 215.84 149.4 215.51 149.4 215.17C149.4 215.15 149.4 215.12 149.4 215.1C149.39 215.05 149.35 215.02 149.3 215.01C149.24 215.01 149.2 215.03 149.18 215.08C149.17 215.11 149.17 215.14 149.17 215.17C149.17 216.19 149.17 217.22 149.17 218.24C149.17 218.34 149.16 218.43 149.09 218.5C148.99 218.61 148.87 218.65 148.73 218.62C148.59 218.59 148.5 218.49 148.46 218.36C148.45 218.32 148.44 218.27 148.44 218.22C148.44 217.51 148.44 216.8 148.44 216.1C148.44 215.05 148.44 214 148.44 212.94C148.44 212.86 148.42 212.83 148.36 212.81C148.29 212.79 148.21 212.81 148.17 212.87C148.16 212.89 148.16 212.9 148.16 212.92C148.16 213.3 148.16 213.67 148.16 214.05C148.16 214.33 148.16 214.6 148.16 214.88C148.16 214.99 148.12 215.08 148.01 215.13C147.91 215.17 147.8 215.15 147.72 215.07C147.67 215.02 147.65 214.97 147.65 214.9C147.65 214.19 147.65 213.48 147.65 212.77C147.65 212.58 147.69 212.4 147.79 212.24C147.97 211.96 148.22 211.8 148.56 211.79C148.99 211.78 149.42 211.79 149.84 211.79C150.28 211.79 150.7 212.14 150.8 212.57C150.82 212.67 150.84 212.77 150.84 212.87C150.84 213.53 150.84 214.2 150.84 214.86C150.84 215 150.78 215.08 150.66 215.12C150.5 215.17 150.35 215.07 150.34 214.9C150.34 214.88 150.34 214.86 150.34 214.84C150.34 214.2 150.34 213.55 150.34 212.91C150.34 212.81 150.25 212.77 150.19 212.79C150.13 212.8 150.1 212.84 150.1 212.9V215.58V215.6Z" fill="white"/>
</mask>
<g mask="url(#mask15_3_2)">
<path d="M368.64 -17.43H56.32V294.89H368.64V-17.43Z" fill="#5B629C"/>
<mask id="mask16_3_2" style="mask-type:luminance" maskUnits="userSpaceOnUse" x="56" y="-18" width="313" height="313">
<path d="M368.64 -17.43H56.32V294.89H368.64V-17.43Z" fill="white"/>
</mask>
<g mask="url(#mask16_3_2)">
<path d="M151.56 211.07H146.92V219.36H151.56V211.07Z" fill="#5B629C"/>
</g>
</g>
<path fill-rule="evenodd" clip-rule="evenodd" d="M149.22 210.23C149.59 210.23 149.89 210.53 149.89 210.9C149.89 211.27 149.6 211.57 149.22 211.57C148.84 211.57 148.56 211.29 148.55 210.9C148.55 210.52 148.84 210.23 149.22 210.22" fill="#5B629C"/>
<mask id="mask17_3_2" style="mask-type:luminance" maskUnits="userSpaceOnUse" x="148" y="210" width="2" height="2">
<path d="M149.22 210.23C149.59 210.23 149.89 210.53 149.89 210.9C149.89 211.27 149.6 211.57 149.22 211.57C148.84 211.57 148.56 211.29 148.55 210.9C148.55 210.52 148.84 210.23 149.22 210.22" fill="white"/>
</mask>
<g mask="url(#mask17_3_2)">
<path d="M368.64 -17.43H56.32V294.89H368.64V-17.43Z" fill="#5B629C"/>
<mask id="mask18_3_2" style="mask-type:luminance" maskUnits="userSpaceOnUse" x="56" y="-18" width="313" height="313">
<path d="M368.64 -17.43H56.32V294.89H368.64V-17.43Z" fill="white"/>
</mask>
<g mask="url(#mask18_3_2)">
<path d="M150.61 209.51H147.83V212.3H150.61V209.51Z" fill="#5B629C"/>
</g>
</g>
<path fill-rule="evenodd" clip-rule="evenodd" d="M139.99 217.24C139.99 217.6 139.99 217.97 139.99 218.33C139.99 218.44 139.95 218.53 139.85 218.59C139.75 218.65 139.64 218.65 139.53 218.59C139.42 218.54 139.38 218.44 139.38 218.33C139.38 217.62 139.38 216.91 139.38 216.2C139.38 216.18 139.38 216.16 139.38 216.14C139.38 216.08 139.33 216.05 139.28 216.05C139.22 216.05 139.18 216.09 139.18 216.15V218.3C139.18 218.41 139.16 218.5 139.07 218.57C138.96 218.65 138.84 218.66 138.72 218.6C138.6 218.55 138.56 218.44 138.55 218.32C138.55 218.3 138.55 218.28 138.55 218.26V216.13C138.55 216.083 138.527 216.06 138.48 216.06C138.22 216.06 137.97 216.06 137.72 216.06C137.67 216.06 137.66 216.06 137.68 216.01C137.74 215.8 137.81 215.58 137.88 215.37C137.98 215.06 138.07 214.74 138.17 214.43C138.25 214.17 138.33 213.91 138.41 213.64C138.49 213.38 138.57 213.11 138.65 212.85C138.67 212.78 138.65 212.73 138.59 212.71C138.53 212.69 138.47 212.71 138.45 212.79C138.4 212.93 138.36 213.08 138.31 213.22C138.19 213.58 138.08 213.93 137.96 214.29C137.91 214.44 137.86 214.6 137.81 214.75C137.76 214.91 137.63 214.97 137.48 214.9C137.37 214.85 137.32 214.74 137.36 214.62C137.46 214.28 137.57 213.94 137.67 213.6C137.79 213.2 137.91 212.8 138.03 212.4C138.12 212.09 138.39 211.87 138.71 211.83C138.76 211.83 138.82 211.83 138.87 211.83C139.22 211.83 139.57 211.83 139.92 211.83C140.11 211.83 140.29 211.88 140.44 212C140.59 212.12 140.67 212.27 140.72 212.45C140.85 212.92 140.98 213.39 141.1 213.86C141.17 214.12 141.24 214.39 141.31 214.65C141.34 214.78 141.25 214.92 141.11 214.93C140.98 214.94 140.89 214.88 140.85 214.75C140.74 214.38 140.64 214.01 140.54 213.64L140.34 212.93C140.32 212.87 140.31 212.81 140.29 212.76C140.27 212.7 140.22 212.68 140.17 212.69C140.11 212.71 140.09 212.75 140.1 212.81C140.18 213.12 140.26 213.44 140.34 213.75C140.43 214.1 140.52 214.45 140.61 214.8C140.71 215.21 140.82 215.62 140.92 216.03C140.93 216.07 140.91 216.07 140.88 216.07C140.61 216.07 140.34 216.07 140.07 216.07C140 216.07 140 216.07 140 216.14V217.24H139.99Z" fill="#5B629C"/>
<mask id="mask19_3_2" style="mask-type:luminance" maskUnits="userSpaceOnUse" x="137" y="211" width="5" height="8">
<path d="M139.99 217.24C139.99 217.6 139.99 217.97 139.99 218.33C139.99 218.44 139.95 218.53 139.85 218.59C139.75 218.65 139.64 218.65 139.53 218.59C139.42 218.54 139.38 218.44 139.38 218.33C139.38 217.62 139.38 216.91 139.38 216.2C139.38 216.18 139.38 216.16 139.38 216.14C139.38 216.08 139.33 216.05 139.28 216.05C139.22 216.05 139.18 216.09 139.18 216.15V218.3C139.18 218.41 139.16 218.5 139.07 218.57C138.96 218.65 138.84 218.66 138.72 218.6C138.6 218.55 138.56 218.44 138.55 218.32C138.55 218.3 138.55 218.28 138.55 218.26V216.13C138.55 216.083 138.527 216.06 138.48 216.06C138.22 216.06 137.97 216.06 137.72 216.06C137.67 216.06 137.66 216.06 137.68 216.01C137.74 215.8 137.81 215.58 137.88 215.37C137.98 215.06 138.07 214.74 138.17 214.43C138.25 214.17 138.33 213.91 138.41 213.64C138.49 213.38 138.57 213.11 138.65 212.85C138.67 212.78 138.65 212.73 138.59 212.71C138.53 212.69 138.47 212.71 138.45 212.79C138.4 212.93 138.36 213.08 138.31 213.22C138.19 213.58 138.08 213.93 137.96 214.29C137.91 214.44 137.86 214.6 137.81 214.75C137.76 214.91 137.63 214.97 137.48 214.9C137.37 214.85 137.32 214.74 137.36 214.62C137.46 214.28 137.57 213.94 137.67 213.6C137.79 213.2 137.91 212.8 138.03 212.4C138.12 212.09 138.39 211.87 138.71 211.83C138.76 211.83 138.82 211.83 138.87 211.83C139.22 211.83 139.57 211.83 139.92 211.83C140.11 211.83 140.29 211.88 140.44 212C140.59 212.12 140.67 212.27 140.72 212.45C140.85 212.92 140.98 213.39 141.1 213.86C141.17 214.12 141.24 214.39 141.31 214.65C141.34 214.78 141.25 214.92 141.11 214.93C140.98 214.94 140.89 214.88 140.85 214.75C140.74 214.38 140.64 214.01 140.54 213.64L140.34 212.93C140.32 212.87 140.31 212.81 140.29 212.76C140.27 212.7 140.22 212.68 140.17 212.69C140.11 212.71 140.09 212.75 140.1 212.81C140.18 213.12 140.26 213.44 140.34 213.75C140.43 214.1 140.52 214.45 140.61 214.8C140.71 215.21 140.82 215.62 140.92 216.03C140.93 216.07 140.91 216.07 140.88 216.07C140.61 216.07 140.34 216.07 140.07 216.07C140 216.07 140 216.07 140 216.14V217.24H139.99Z" fill="white"/>
</mask>
<g mask="url(#mask19_3_2)">
<path d="M368.64 -17.43H56.32V294.89H368.64V-17.43Z" fill="#5B629C"/>
<mask id="mask20_3_2" style="mask-type:luminance" maskUnits="userSpaceOnUse" x="56" y="-18" width="313" height="313">
<path d="M368.64 -17.43H56.32V294.89H368.64V-17.43Z" fill="white"/>
</mask>
<g mask="url(#mask20_3_2)">
<path d="M142.03 211.11H136.61V219.36H142.03V211.11Z" fill="#5B629C"/>
</g>
</g>
<path fill-rule="evenodd" clip-rule="evenodd" d="M138.69 210.91C138.69 210.55 138.97 210.23 139.36 210.23C139.75 210.23 140.04 210.54 140.04 210.92C140.04 211.29 139.73 211.6 139.36 211.59C138.99 211.59 138.68 211.28 138.69 210.91Z" fill="#5B629C"/>
<mask id="mask21_3_2" style="mask-type:luminance" maskUnits="userSpaceOnUse" x="138" y="210" width="3" height="2">
<path d="M138.69 210.91C138.69 210.55 138.97 210.23 139.36 210.23C139.75 210.23 140.04 210.54 140.04 210.92C140.04 211.29 139.73 211.6 139.36 211.59C138.99 211.59 138.68 211.28 138.69 210.91Z" fill="white"/>
</mask>
<g mask="url(#mask21_3_2)">
<path d="M368.64 -17.43H56.32V294.89H368.64V-17.43Z" fill="#5B629C"/>
<mask id="mask22_3_2" style="mask-type:luminance" maskUnits="userSpaceOnUse" x="56" y="-18" width="313" height="313">
<path d="M368.64 -17.43H56.32V294.89H368.64V-17.43Z" fill="white"/>
</mask>
<g mask="url(#mask22_3_2)">
<path d="M140.77 209.51H137.97V212.32H140.77V209.51Z" fill="#5B629C"/>
</g>
</g>
<path d="M131.79 200.32C131.79 200.32 131.77 200.32 131.76 200.32C131.48 200.32 131.21 200.17 130.99 199.9C130.77 199.64 130.56 199.38 130.35 199.12L130.06 198.76C129.94 198.79 129.82 198.79 129.72 198.76V199.06C129.72 199.24 129.72 199.5 129.59 199.76C129.4 200.15 129.03 200.35 128.62 200.3C128.14 200.25 127.8 199.89 127.76 199.4C127.74 199.19 127.73 198.99 127.72 198.78C127.5 198.81 127.27 198.75 127.08 198.59C126.69 198.29 126.6 197.79 126.86 197.4C127.25 196.82 127.68 196.3 128.15 195.85C128.38 195.63 128.63 195.6 128.78 195.61C129.05 195.62 129.3 195.77 129.53 196.04L130.49 197.18C130.61 197.16 130.73 197.16 130.83 197.18V196.85C130.83 196.57 130.83 195.71 131.74 195.62C132.08 195.59 132.29 195.72 132.41 195.83C132.65 196.04 132.76 196.38 132.76 196.86V197.17C133.02 197.12 133.28 197.19 133.5 197.38C133.88 197.71 133.94 198.22 133.64 198.59C133.27 199.06 132.87 199.55 132.44 200.01C132.22 200.25 131.97 200.3 131.8 200.3L131.79 200.32ZM128.65 196.78L128.7 197.81C128.71 198.02 128.72 198.22 128.72 198.43C128.72 198.48 128.72 198.53 128.72 198.58V196.88L129.23 197.25L128.77 196.7C128.77 196.7 128.76 196.69 128.75 196.68C128.72 196.71 128.68 196.75 128.65 196.78Z" fill="#0E3F41"/>
<mask id="mask23_3_2" style="mask-type:luminance" maskUnits="userSpaceOnUse" x="126" y="195" width="8" height="6">
<path d="M131.79 200.32C131.79 200.32 131.77 200.32 131.76 200.32C131.48 200.32 131.21 200.17 130.99 199.9C130.77 199.64 130.56 199.38 130.35 199.12L130.06 198.76C129.94 198.79 129.82 198.79 129.72 198.76V199.06C129.72 199.24 129.72 199.5 129.59 199.76C129.4 200.15 129.03 200.35 128.62 200.3C128.14 200.25 127.8 199.89 127.76 199.4C127.74 199.19 127.73 198.99 127.72 198.78C127.5 198.81 127.27 198.75 127.08 198.59C126.69 198.29 126.6 197.79 126.86 197.4C127.25 196.82 127.68 196.3 128.15 195.85C128.38 195.63 128.63 195.6 128.78 195.61C129.05 195.62 129.3 195.77 129.53 196.04L130.49 197.18C130.61 197.16 130.73 197.16 130.83 197.18V196.85C130.83 196.57 130.83 195.71 131.74 195.62C132.08 195.59 132.29 195.72 132.41 195.83C132.65 196.04 132.76 196.38 132.76 196.86V197.17C133.02 197.12 133.28 197.19 133.5 197.38C133.88 197.71 133.94 198.22 133.64 198.59C133.27 199.06 132.87 199.55 132.44 200.01C132.22 200.25 131.97 200.3 131.8 200.3L131.79 200.32ZM128.65 196.78L128.7 197.81C128.71 198.02 128.72 198.22 128.72 198.43C128.72 198.48 128.72 198.53 128.72 198.58V196.88L129.23 197.25L128.77 196.7C128.77 196.7 128.76 196.69 128.75 196.68C128.72 196.71 128.68 196.75 128.65 196.78Z" fill="white"/>
</mask>
<g mask="url(#mask23_3_2)">
<path d="M369.14 295.39H55.82V-17.93H369.14V295.39ZM56.82 294.39H368.14V-16.93H56.82V294.39Z" fill="#0E3F41"/>
<mask id="mask24_3_2" style="mask-type:luminance" maskUnits="userSpaceOnUse" x="55" y="-18" width="315" height="314">
<path d="M369.14 295.39H55.82V-17.93H369.14V295.39ZM56.82 294.39H368.14V-16.93H56.82V294.39Z" fill="white"/>
</mask>
<g mask="url(#mask24_3_2)">
<path d="M134.04 195.39H126.49V200.54H134.04V195.39Z" fill="#191818"/>
<path d="M134.55 201.04H126V194.89H134.55V201.04ZM126.99 200.04H133.54V195.89H126.99V200.04Z" fill="#0E3F41"/>
</g>
</g>
<path d="M80.25 180.96H78.25V64.8H120.76V66.8H80.25V180.96Z" fill="#0E3F41"/>
<path d="M138.268 74.1766L137.854 76.4288L138.591 76.5645L139.006 74.3122L138.268 74.1766Z" fill="#0E3F41"/>
<path d="M138.97 74.68L129.54 73.33L129.83 71.62L130.57 71.74L130.41 72.69L138.34 73.83L140.67 57.84L141.42 57.95L138.97 74.68Z" fill="#0E3F41"/>
<path d="M113.52 77.86H110.73V78.61H113.52V77.86Z" fill="#0E3F41"/>
<path d="M129.97 72.68H127.58V73.43H129.97V72.68Z" fill="#0E3F41"/>
<path d="M130.189 67.921L130.052 69.2942L130.799 69.3684L130.935 67.9952L130.189 67.921Z" fill="#0E3F41"/>
<path d="M101.97 173.26H101.22V181.75H101.97V173.26Z" fill="#0E3F41"/>
<path d="M117.14 225.63H113.84V226.38H117.14V225.63Z" fill="#0E3F41"/>
<path d="M122.17 225.63H119.48V226.38H122.17V225.63Z" fill="#0E3F41"/>
<path d="M121.2 226H120.45V239.59H121.2V226Z" fill="#0E3F41"/>
<path d="M129.59 226H128.84V239.42H129.59V226Z" fill="#0E3F41"/>
<path d="M137.95 239.42H137.2V226.38H136.27V225.63H137.95V239.42Z" fill="#0E3F41"/>
<path d="M121.96 222.08H113.84V221.33H121.21V219.12H121.96V222.08Z" fill="#0E3F41"/>
<path d="M154.11 222.12H125.28V219.95H126.03V221.37H153.36V197.13H154.11V222.12Z" fill="#0E3F41"/>
<path d="M126.03 215.2H125.28V217.65H126.03V215.2Z" fill="#0E3F41"/>
<path d="M134.88 215.3H125.65V216.05H134.88V215.3Z" fill="#0E3F41"/>
<path d="M126.03 209.12H125.28V212.78H126.03V209.12Z" fill="#0E3F41"/>
<path d="M134.88 200.87H125.65V201.62H134.88V200.87Z" fill="#0E3F41"/>
<path d="M135.26 195.11H134.51V221.75H135.26V195.11Z" fill="#0E3F41"/>
<path d="M144.57 221.74H143.82V208.16H141.16V202.38H141.91V207.41H144.57V221.74Z" fill="#0E3F41"/>
<path d="M142.71 202H138.44V202.75H142.71V202Z" fill="#0E3F41"/>
<path d="M150 202H144.88V202.75H150V202Z" fill="#0E3F41"/>
<path d="M147.08 202.38H146.33V207.78H147.08V202.38Z" fill="#0E3F41"/>
<path d="M146.97 207.41H141.27V208.16H146.97V207.41Z" fill="#0E3F41"/>
<path d="M100.78 97.19H79.25V97.94H100.78V97.19Z" fill="#0E3F41"/>
<path d="M101.15 91.57H100.4V106.94H101.15V91.57Z" fill="#0E3F41"/>
<path d="M92.89 83.45H79.25V84.2H92.89V83.45Z" fill="#0E3F41"/>
<path d="M91.12 82.13H90.37V83.82H91.12V82.13Z" fill="#0E3F41"/>
<path d="M91.12 74.34H90.37V79.82H91.12V74.34Z" fill="#0E3F41"/>
<path d="M91.75 73.97H79.25V74.72H91.75V73.97Z" fill="#0E3F41"/>
<path d="M99.67 78.61H94.16V65.8H94.91V77.86H99.67V78.61Z" fill="#0E3F41"/>
<path d="M108.53 77.86H101.91V78.61H108.53V77.86Z" fill="#0E3F41"/>
<path d="M103.77 65.8H103.02V78.24H103.77V65.8Z" fill="#0E3F41"/>
<path d="M112.49 65.8H111.74V78.24H112.49V65.8Z" fill="#0E3F41"/>
<path d="M121.27 78.61H115.59V77.86H120.52V67.96H121.27V78.61Z" fill="#0E3F41"/>
<path d="M101.15 89.41H100.4V84.2H95.1V83.45H101.15V89.41Z" fill="#0E3F41"/>
<path d="M101.35 97.19H100.78V97.94H101.35V97.19Z" fill="#0E3F41"/>
<path d="M121.53 107.06H100.78V106.31H120.78V97.94H103.6V97.19H121.53V107.06Z" fill="#0E3F41"/>
<path d="M101.15 109.4H100.4V130.95H101.15V109.4Z" fill="#0E3F41"/>
<path d="M118.26 120.01H100.78V120.76H118.26V120.01Z" fill="#0E3F41"/>
<path d="M100.78 121.43H79.25V122.18H100.78V121.43Z" fill="#0E3F41"/>
<path d="M98.64 141.55H79.25V142.3H98.64V141.55Z" fill="#0E3F41"/>
<path d="M100.77 141.55H99.83V142.3H100.77V141.55Z" fill="#0E3F41"/>
<path d="M101.4 147.5H100.4V133.2H101.15V146.75H101.4V147.5Z" fill="#0E3F41"/>
<path d="M120.65 146.75H103.56V147.5H120.65V146.75Z" fill="#0E3F41"/>
<path d="M147.95 199.67H147.2V196.83H159.75V197.58H147.95V199.67Z" fill="#0E3F41"/>
<path d="M171.48 222.05H164.39V209.24H169.7V197.58H164.09V196.83H170.45V209.99H165.14V221.3H171.48V222.05Z" fill="#0E3F41"/>
<path d="M193.61 221.3H173.66V222.05H193.61V221.3Z" fill="#0E3F41"/>
<path d="M191.19 222.55H190.44V213.39H198.67V222.05H195.5V221.3H197.92V214.14H191.19V222.55Z" fill="#0E3F41"/>
<path d="M191.19 213.07H190.44V213.76H191.19V213.07Z" fill="#0E3F41"/>
<path d="M191.19 210.9H190.44V209.97H186.07V196.78H208.67V197.53H186.82V209.22H191.81V209.97H191.19V210.9Z" fill="#0E3F41"/>
<path d="M118.63 119.32H117.88V121.53H118.63V119.32Z" fill="#0E3F41"/>
<path d="M121.02 134.08H100.78V133.33H120.27V125.07H117.88V124.1H118.63V124.32H121.02V134.08Z" fill="#0E3F41"/>
<path d="M118.63 133.7H117.88V135.22H118.63V133.7Z" fill="#0E3F41"/>
<path d="M121.02 149.14H120.27V138.86H117.88V137.84H118.63V138.11H121.34V138.86H121.02V149.14Z" fill="#0E3F41"/>
<path d="M121.48 151.3H120.73V165.22H121.48V151.3Z" fill="#0E3F41"/>
<path d="M120.93 173.91H96.38V160.62H121.11V161.37H97.13V173.16H120.18V169.91H120.93V173.91Z" fill="#0E3F41"/>
<path d="M120.93 181.84H101.6V181.09H120.18V173.54H120.93V181.84Z" fill="#0E3F41"/>
<path d="M92.63 169.04H91.88V165.05H79.25V164.3H92.63V169.04Z" fill="#0E3F41"/>
<path d="M96.76 164.63H94.92V165.38H96.76V164.63Z" fill="#0E3F41"/>
<path d="M92.63 177.37H91.88V173.09H79.25V172.34H91.88V171.33H92.63V177.37Z" fill="#0E3F41"/>
<path d="M92.63 181.77H78.87V180.27H79.62V181.02H91.88V179.56H92.63V181.77Z" fill="#0E3F41"/>
<path d="M118.63 116.75H117.88V115.78H120.27V106.69H121.02V116.53H118.63V116.75Z" fill="#0E3F41"/>
<path d="M118.62 94.33H117.87V92.25H120.27V83.35H101.15V84.92H100.4V82.6H121.02V92.25H121.47V93H118.62V94.33Z" fill="#0E3F41"/>
<path d="M196 209.98H193.93V209.23H194.18V197.15H194.93V209.23H196V209.98Z" fill="#0E3F41"/>
<path d="M203.08 209.98H198.11V209.23H202.33V197.15H203.08V209.98Z" fill="#0E3F41"/>
<path d="M223.7 209.98H218.69V197.53H213.09V196.78H219.44V209.23H223.7V209.98Z" fill="#0E3F41"/>
<path d="M228.57 209.23H225.81V209.98H228.57V209.23Z" fill="#0E3F41"/>
<path d="M253.94 222.07H234.95V209.98H230.73V209.23H235.7V221.32H253.19V220.45H253.94V222.07Z" fill="#0E3F41"/>
<path d="M329.38 185.39H328.63V180.01H342.1V180.76H329.38V185.39Z" fill="#0E3F41"/>
<path d="M329.38 187.69H328.63V193.8H329.38V187.69Z" fill="#0E3F41"/>
<path d="M329.38 195.87H328.63V198.63H329.38V195.87Z" fill="#0E3F41"/>
<path d="M329.38 206.71H328.63V200.69H329.38V205.05H341.73V197.62H329.01V196.87H342.48V205.8H329.38V206.71Z" fill="#0E3F41"/>
<path d="M342.48 222.75H324.68V209.66H320.51V208.91H325.43V213.14H325.65V213.89H325.43V222H341.73V213.93H327.86V213.18H328.63V208.87H329.38V213.18H341.73V205.42H342.48V222.75Z" fill="#0E3F41"/>
<path d="M324.97 205.39H320.83V204.64H324.22V179.15H313.03V200.05H312.28V178.4H324.97V205.39Z" fill="#0E3F41"/>
<path d="M301.03 199.91H300.28V178.4H312.65V179.15H301.03V199.91Z" fill="#0E3F41"/>
<path d="M316.33 204.64H300.02V205.39H316.33V204.64Z" fill="#0E3F41"/>
<path d="M294.37 210.3H293.62V204.64H297.81V205.39H294.37V210.3Z" fill="#0E3F41"/>
<path d="M325.06 222.75H316.55V209.61H312.38V208.86H318.26V209.61H317.3V222H325.06V222.75Z" fill="#0E3F41"/>
<path d="M316.92 222.75H308.33V209.61H307.32V208.86H310.17V209.61H309.08V222H316.92V222.75Z" fill="#0E3F41"/>
<path d="M306.96 222.25H300.19V208.86H305.21V209.61H300.94V221.5H306.96V222.25Z" fill="#0E3F41"/>
<path d="M342.1 188.65H329.01V189.4H342.1V188.65Z" fill="#0E3F41"/>
<path d="M296.67 222.06H290.68V221.31H293.62V212.38H294.37V221.31H296.67V222.06Z" fill="#0E3F41"/>
<path d="M288.44 222.06H283.86V203.77H258.05V202.18H258.8V203.02H284.61V212.66H296.67V213.41H284.61V221.31H288.44V222.06Z" fill="#0E3F41"/>
<path d="M307.55 225.72H304.22V226.47H307.55V225.72Z" fill="#0E3F41"/>
<path d="M300.92 239.52H292.13V226.47H287.85V225.72H297.05V226.47H292.88V238.77H300.17V226.47H299.19V225.72H301.91V226.47H300.92V239.52Z" fill="#0E3F41"/>
<path d="M284.69 239.52H251.36V221.7H252.11V225.72H256.29V226.47H252.11V238.77H259.43V226.47H258.46V225.72H264.49V226.47H260.18V238.77H267.66V226.47H266.59V225.72H269.42V226.47H268.41V238.77H275.76V226.47H271.48V225.72H280.75V226.47H276.51V238.77H283.94V226.47H282.96V225.72H285.68V226.47H284.69V239.52Z" fill="#0E3F41"/>
<path d="M242.82 221.69H242.07V222.61H242.82V221.69Z" fill="#0E3F41"/>
<path d="M242.82 224.72H242.07V239.15H242.82V224.72Z" fill="#0E3F41"/>
<path d="M242.45 225.77H230.73V226.52H242.45V225.77Z" fill="#0E3F41"/>
<path d="M227.57 239.38H226.82V224.72H227.57V225.77H228.52V226.52H227.57V239.38Z" fill="#0E3F41"/>
<path d="M218.98 239.15H218.23V221.32H218.78V219.67H219.53V221.32H227.57V222.61H226.82V222.07H218.98V239.15Z" fill="#0E3F41"/>
<path d="M186.81 198.05H186.06V197.15H170.45V197.21H169.7V196.4H186.81V198.05Z" fill="#0E3F41"/>
<path d="M126.69 225.63H121.59V226.38H126.69V225.63Z" fill="#0E3F41"/>
<path d="M134 225.63H128.76V226.38H134V225.63Z" fill="#0E3F41"/>
<path d="M138.88 225.63H137.57V226.38H138.88V225.63Z" fill="#0E3F41"/>
<path d="M170.41 239.6H145.23V226.38H140.99V225.63H150.33V226.38H145.98V238.85H153.42V226.38H152.3V225.63H155.11V226.38H154.17V238.85H161.55V226.38H157.33V225.63H166.59V226.38H162.3V238.85H169.66V226.38H168.66V225.63H171.49V226.38H170.41V239.6Z" fill="#0E3F41"/>
<path d="M182.96 225.63H173.66V226.38H182.96V225.63Z" fill="#0E3F41"/>
<path d="M186.78 239.6H177.93V226H178.68V238.85H186.03V226.38H185.03V225.63H186.78V228.82H187.33V229.57H186.78V239.6Z" fill="#0E3F41"/>
<path d="M204.22 239.6H202.88V229.61H189.4V228.86H190.44V224.72H191.19V228.86H203.63V238.85H204.22V239.6Z" fill="#0E3F41"/>
<path d="M203.63 229.23H202.88V226.52H201.33V225.77H202.88V222.05H202.36V219.67H203.11V221.3H203.63V229.23Z" fill="#0E3F41"/>
<path d="M219.43 217.57H218.68V217.5H203.1V217.57H202.35V216.75H219.43V217.57Z" fill="#0E3F41"/>
<path d="M235.68 209.6H234.93V197.53H219.06V196.78H235.68V209.6Z" fill="#0E3F41"/>
<path d="M270.38 222.06H258.05V206.11H258.8V221.31H270.38V222.06Z" fill="#0E3F41"/>
<path d="M227.57 197.15H226.82V209.6H227.57V197.15Z" fill="#0E3F41"/>
<path d="M253.94 216.17H253.19V196.37H258.8V198.05H258.05V197.12H253.94V216.17Z" fill="#0E3F41"/>
<path d="M280.76 222.07H272.49V221.32H272.72V203.39H273.47V221.32H280.76V222.07Z" fill="#0E3F41"/>
<path d="M284.24 221.32H282.79V222.07H284.24V221.32Z" fill="#0E3F41"/>
<path d="M263.13 197.12H258.42V196.37H262.38V193.07H263.13V197.12Z" fill="#0E3F41"/>
<path d="M274.98 203.39H274.23V180.76H263.13V188.66H262.38V180.01H278.47V180.76H274.98V203.39Z" fill="#0E3F41"/>
<path d="M286.06 190.87H274.61V190.12H285.31V186.99H294.54V183.6H295.29V187.74H286.06V190.87Z" fill="#0E3F41"/>
<path d="M286.92 180.01H280.44V180.76H286.92V180.01Z" fill="#0E3F41"/>
<path d="M295.29 181.44H294.54V180.76H288.99V180.01H295.29V181.44Z" fill="#0E3F41"/>
<path d="M291.34 180.39H290.59V187.37H291.34V180.39Z" fill="#0E3F41"/>
<path d="M285.62 203.77H284.23V203.02H284.87V190.49H285.62V203.77Z" fill="#0E3F41"/>
<path d="M294.44 200.41H293.69V198.42H285.25V197.67H294.44V200.41Z" fill="#0E3F41"/>
<path d="M294.37 203.94H293.62V205.01H294.37V203.94Z" fill="#0E3F41"/>
<path d="M294 207.23H284.23V207.98H294V207.23Z" fill="#0E3F41"/>
<path d="M135.26 194.86H132.41V195.61H135.26V194.86Z" fill="#0E3F41"/>
<path d="M140.19 199.67H139.44V197.51H134.89V196.76H140.19V199.67Z" fill="#0E3F41"/>
<path d="M126.03 206.72H125.28V194.84H129.68V195.59H126.03V206.72Z" fill="#0E3F41"/>
<path d="M292.95 196.12H292.2V198.05H292.95V196.12Z" fill="#0E3F41"/>
<path d="M292.95 189.99H292.2V193.92H292.95V189.99Z" fill="#0E3F41"/>
<path d="M292.95 187.37H292.2V187.91H292.95V187.37Z" fill="#0E3F41"/>
<path d="M292.57 191.69H285.25V192.44H292.57V191.69Z" fill="#0E3F41"/>
<path d="M235.68 197.15H234.93V196.37H253.56V197.12L235.68 197.15Z" fill="#0E3F41"/>
<path d="M197.02 226H196.47V226.75H197.02V226Z" fill="#0E3F41"/>
<path d="M192.06 226H190.82V226.75H192.06V226Z" fill="#0E3F41"/>
<path fill-rule="evenodd" clip-rule="evenodd" d="M289.44 190.31V191.56C289.44 191.56 289.44 191.62 289.43 191.65C289.39 191.74 289.3 191.78 289.21 191.74C289.14 191.72 289.11 191.66 289.1 191.59C289.1 191.53 289.1 191.47 289.1 191.41C289.1 191.14 289.1 190.86 289.1 190.59C289.1 190.43 289.1 190.28 289.1 190.12C289.1 190.11 289.1 190.1 289.1 190.08C289.1 190.06 289.08 190.04 289.05 190.04C289.02 190.04 289 190.05 288.99 190.07C288.99 190.08 288.99 190.1 288.99 190.11C288.99 190.6 288.99 191.08 288.99 191.57C288.99 191.62 288.99 191.66 288.95 191.7C288.9 191.75 288.84 191.77 288.78 191.75C288.71 191.74 288.67 191.69 288.65 191.63C288.65 191.61 288.65 191.59 288.65 191.56C288.65 191.22 288.65 190.89 288.65 190.55C288.65 190.05 288.65 189.55 288.65 189.05C288.65 189.01 288.65 189 288.61 188.99C288.58 188.98 288.54 188.99 288.52 189.02V189.04C288.52 189.22 288.52 189.4 288.52 189.58C288.52 189.71 288.52 189.84 288.52 189.98C288.52 190.03 288.5 190.07 288.45 190.1C288.4 190.12 288.35 190.1 288.31 190.07C288.29 190.05 288.28 190.02 288.28 189.99C288.28 189.65 288.28 189.32 288.28 188.98C288.28 188.89 288.3 188.81 288.35 188.73C288.43 188.6 288.56 188.52 288.71 188.51C288.91 188.51 289.12 188.51 289.32 188.51C289.53 188.51 289.73 188.68 289.78 188.88C289.79 188.93 289.8 188.97 289.8 189.02C289.8 189.33 289.8 189.65 289.8 189.96C289.8 190.03 289.77 190.06 289.72 190.08C289.64 190.1 289.57 190.05 289.57 189.98C289.57 189.98 289.57 189.96 289.57 189.95C289.57 189.64 289.57 189.34 289.57 189.03C289.57 188.98 289.53 188.96 289.5 188.97C289.47 188.97 289.46 188.99 289.46 189.02V190.29L289.44 190.31Z" fill="#5B629C"/>
<mask id="mask25_3_2" style="mask-type:luminance" maskUnits="userSpaceOnUse" x="288" y="188" width="2" height="4">
<path d="M289.44 190.31V191.56C289.44 191.56 289.44 191.62 289.43 191.65C289.39 191.74 289.3 191.78 289.21 191.74C289.14 191.72 289.11 191.66 289.1 191.59C289.1 191.53 289.1 191.47 289.1 191.41C289.1 191.14 289.1 190.86 289.1 190.59C289.1 190.43 289.1 190.28 289.1 190.12C289.1 190.11 289.1 190.1 289.1 190.08C289.1 190.06 289.08 190.04 289.05 190.04C289.02 190.04 289 190.05 288.99 190.07C288.99 190.08 288.99 190.1 288.99 190.11C288.99 190.6 288.99 191.08 288.99 191.57C288.99 191.62 288.99 191.66 288.95 191.7C288.9 191.75 288.84 191.77 288.78 191.75C288.71 191.74 288.67 191.69 288.65 191.63C288.65 191.61 288.65 191.59 288.65 191.56C288.65 191.22 288.65 190.89 288.65 190.55C288.65 190.05 288.65 189.55 288.65 189.05C288.65 189.01 288.65 189 288.61 188.99C288.58 188.98 288.54 188.99 288.52 189.02V189.04C288.52 189.22 288.52 189.4 288.52 189.58C288.52 189.71 288.52 189.84 288.52 189.98C288.52 190.03 288.5 190.07 288.45 190.1C288.4 190.12 288.35 190.1 288.31 190.07C288.29 190.05 288.28 190.02 288.28 189.99C288.28 189.65 288.28 189.32 288.28 188.98C288.28 188.89 288.3 188.81 288.35 188.73C288.43 188.6 288.56 188.52 288.71 188.51C288.91 188.51 289.12 188.51 289.32 188.51C289.53 188.51 289.73 188.68 289.78 188.88C289.79 188.93 289.8 188.97 289.8 189.02C289.8 189.33 289.8 189.65 289.8 189.96C289.8 190.03 289.77 190.06 289.72 190.08C289.64 190.1 289.57 190.05 289.57 189.98C289.57 189.98 289.57 189.96 289.57 189.95C289.57 189.64 289.57 189.34 289.57 189.03C289.57 188.98 289.53 188.96 289.5 188.97C289.47 188.97 289.46 188.99 289.46 189.02V190.29L289.44 190.31Z" fill="white"/>
</mask>
<g mask="url(#mask25_3_2)">
<path d="M368.64 -17.43H56.32V294.89H368.64V-17.43Z" fill="#5B629C"/>
<mask id="mask26_3_2" style="mask-type:luminance" maskUnits="userSpaceOnUse" x="56" y="-18" width="313" height="313">
<path d="M368.64 -17.43H56.32V294.89H368.64V-17.43Z" fill="white"/>
</mask>
<g mask="url(#mask26_3_2)">
<path d="M290.51 187.78H287.55V192.47H290.51V187.78Z" fill="#5B629C"/>
</g>
</g>
<path fill-rule="evenodd" clip-rule="evenodd" d="M289.03 187.76C289.2 187.76 289.35 187.9 289.35 188.08C289.35 188.25 289.21 188.4 289.03 188.4C288.85 188.4 288.71 188.27 288.71 188.08C288.71 187.9 288.85 187.76 289.03 187.76Z" fill="#5B629C"/>
<mask id="mask27_3_2" style="mask-type:luminance" maskUnits="userSpaceOnUse" x="288" y="187" width="2" height="2">
<path d="M289.03 187.76C289.2 187.76 289.35 187.9 289.35 188.08C289.35 188.25 289.21 188.4 289.03 188.4C288.85 188.4 288.71 188.27 288.71 188.08C288.71 187.9 288.85 187.76 289.03 187.76Z" fill="white"/>
</mask>
<g mask="url(#mask27_3_2)">
<path d="M368.64 -17.43H56.32V294.89H368.64V-17.43Z" fill="#5B629C"/>
<mask id="mask28_3_2" style="mask-type:luminance" maskUnits="userSpaceOnUse" x="56" y="-18" width="313" height="313">
<path d="M368.64 -17.43H56.32V294.89H368.64V-17.43Z" fill="white"/>
</mask>
<g mask="url(#mask28_3_2)">
<path d="M290.07 187.04H287.99V189.12H290.07V187.04Z" fill="#5B629C"/>
</g>
</g>
<path fill-rule="evenodd" clip-rule="evenodd" d="M289.36 196.51C289.36 196.68 289.36 196.86 289.36 197.03C289.36 197.08 289.34 197.13 289.29 197.15C289.24 197.18 289.19 197.18 289.14 197.15C289.09 197.12 289.07 197.08 289.07 197.02C289.07 196.68 289.07 196.35 289.07 196.01C289.07 196.01 289.07 195.99 289.07 195.98C289.07 195.95 289.05 195.94 289.02 195.94C288.99 195.94 288.97 195.96 288.97 195.99V197.01C288.97 197.06 288.97 197.11 288.92 197.14C288.87 197.18 288.81 197.18 288.76 197.16C288.7 197.13 288.68 197.08 288.68 197.03C288.68 197.03 288.68 197.01 288.68 197V195.99C288.68 195.99 288.68 195.96 288.65 195.96H288.29C288.29 195.96 288.26 195.96 288.27 195.94C288.3 195.84 288.33 195.74 288.36 195.64C288.41 195.49 288.45 195.34 288.5 195.19C288.54 195.07 288.58 194.94 288.62 194.82C288.66 194.69 288.7 194.57 288.73 194.44C288.73 194.41 288.73 194.38 288.7 194.37C288.67 194.37 288.64 194.37 288.63 194.41C288.61 194.48 288.59 194.55 288.56 194.62C288.5 194.79 288.45 194.96 288.4 195.13C288.38 195.2 288.35 195.28 288.33 195.35C288.31 195.43 288.25 195.45 288.17 195.42C288.12 195.4 288.09 195.34 288.11 195.29C288.16 195.13 288.21 194.97 288.26 194.81C288.32 194.62 288.38 194.43 288.43 194.24C288.47 194.09 288.6 193.99 288.75 193.97C288.78 193.97 288.8 193.97 288.83 193.97C289 193.97 289.16 193.97 289.33 193.97C289.42 193.97 289.5 193.99 289.58 194.05C289.65 194.11 289.69 194.18 289.71 194.26C289.77 194.48 289.83 194.71 289.89 194.93C289.92 195.05 289.96 195.18 289.99 195.31C290.01 195.37 289.96 195.44 289.9 195.44C289.84 195.44 289.79 195.42 289.78 195.36C289.73 195.19 289.68 195.01 289.63 194.83C289.6 194.72 289.57 194.61 289.53 194.49C289.53 194.46 289.52 194.43 289.51 194.41C289.51 194.38 289.48 194.37 289.45 194.38C289.42 194.38 289.41 194.41 289.42 194.44C289.46 194.59 289.5 194.74 289.53 194.89C289.57 195.06 289.61 195.22 289.66 195.39C289.71 195.58 289.76 195.78 289.81 195.97C289.81 195.99 289.81 195.99 289.79 195.99C289.66 195.99 289.53 195.99 289.41 195.99C289.38 195.99 289.38 195.99 289.38 196.02V196.54L289.36 196.51Z" fill="#5B629C"/>
<mask id="mask29_3_2" style="mask-type:luminance" maskUnits="userSpaceOnUse" x="288" y="193" width="2" height="5">
<path d="M289.36 196.51C289.36 196.68 289.36 196.86 289.36 197.03C289.36 197.08 289.34 197.13 289.29 197.15C289.24 197.18 289.19 197.18 289.14 197.15C289.09 197.12 289.07 197.08 289.07 197.02C289.07 196.68 289.07 196.35 289.07 196.01C289.07 196.01 289.07 195.99 289.07 195.98C289.07 195.95 289.05 195.94 289.02 195.94C288.99 195.94 288.97 195.96 288.97 195.99V197.01C288.97 197.06 288.97 197.11 288.92 197.14C288.87 197.18 288.81 197.18 288.76 197.16C288.7 197.13 288.68 197.08 288.68 197.03C288.68 197.03 288.68 197.01 288.68 197V195.99C288.68 195.99 288.68 195.96 288.65 195.96H288.29C288.29 195.96 288.26 195.96 288.27 195.94C288.3 195.84 288.33 195.74 288.36 195.64C288.41 195.49 288.45 195.34 288.5 195.19C288.54 195.07 288.58 194.94 288.62 194.82C288.66 194.69 288.7 194.57 288.73 194.44C288.73 194.41 288.73 194.38 288.7 194.37C288.67 194.37 288.64 194.37 288.63 194.41C288.61 194.48 288.59 194.55 288.56 194.62C288.5 194.79 288.45 194.96 288.4 195.13C288.38 195.2 288.35 195.28 288.33 195.35C288.31 195.43 288.25 195.45 288.17 195.42C288.12 195.4 288.09 195.34 288.11 195.29C288.16 195.13 288.21 194.97 288.26 194.81C288.32 194.62 288.38 194.43 288.43 194.24C288.47 194.09 288.6 193.99 288.75 193.97C288.78 193.97 288.8 193.97 288.83 193.97C289 193.97 289.16 193.97 289.33 193.97C289.42 193.97 289.5 193.99 289.58 194.05C289.65 194.11 289.69 194.18 289.71 194.26C289.77 194.48 289.83 194.71 289.89 194.93C289.92 195.05 289.96 195.18 289.99 195.31C290.01 195.37 289.96 195.44 289.9 195.44C289.84 195.44 289.79 195.42 289.78 195.36C289.73 195.19 289.68 195.01 289.63 194.83C289.6 194.72 289.57 194.61 289.53 194.49C289.53 194.46 289.52 194.43 289.51 194.41C289.51 194.38 289.48 194.37 289.45 194.38C289.42 194.38 289.41 194.41 289.42 194.44C289.46 194.59 289.5 194.74 289.53 194.89C289.57 195.06 289.61 195.22 289.66 195.39C289.71 195.58 289.76 195.78 289.81 195.97C289.81 195.99 289.81 195.99 289.79 195.99C289.66 195.99 289.53 195.99 289.41 195.99C289.38 195.99 289.38 195.99 289.38 196.02V196.54L289.36 196.51Z" fill="white"/>
</mask>
<g mask="url(#mask29_3_2)">
<path d="M368.64 -17.43H56.32V294.89H368.64V-17.43Z" fill="#5B629C"/>
<mask id="mask30_3_2" style="mask-type:luminance" maskUnits="userSpaceOnUse" x="56" y="-18" width="313" height="313">
<path d="M368.64 -17.43H56.32V294.89H368.64V-17.43Z" fill="white"/>
</mask>
<g mask="url(#mask30_3_2)">
<path d="M290.71 193.23H287.38V197.91H290.71V193.23Z" fill="#5B629C"/>
</g>
</g>
<path fill-rule="evenodd" clip-rule="evenodd" d="M288.74 193.51C288.74 193.34 288.88 193.19 289.06 193.19C289.24 193.19 289.38 193.34 289.38 193.52C289.38 193.7 289.23 193.84 289.06 193.84C288.89 193.84 288.74 193.7 288.74 193.52" fill="#5B629C"/>
<mask id="mask31_3_2" style="mask-type:luminance" maskUnits="userSpaceOnUse" x="288" y="193" width="2" height="1">
<path d="M288.74 193.51C288.74 193.34 288.88 193.19 289.06 193.19C289.24 193.19 289.38 193.34 289.38 193.52C289.38 193.7 289.23 193.84 289.06 193.84C288.89 193.84 288.74 193.7 288.74 193.52" fill="white"/>
</mask>
<g mask="url(#mask31_3_2)">
<path d="M368.64 -17.43H56.32V294.89H368.64V-17.43Z" fill="#5B629C"/>
<mask id="mask32_3_2" style="mask-type:luminance" maskUnits="userSpaceOnUse" x="56" y="-18" width="313" height="313">
<path d="M368.64 -17.43H56.32V294.89H368.64V-17.43Z" fill="white"/>
</mask>
<g mask="url(#mask32_3_2)">
<path d="M290.11 192.47H288.02V194.56H290.11V192.47Z" fill="#5B629C"/>
</g>
</g>
<path d="M111.46 222.08H102.84V221.33H104.12V209.12H104.87V221.33H111.46V222.08Z" fill="#0E3F41"/>
<path d="M100.84 222.12H83.38V220.1H84.13V221.37H100.84V222.12Z" fill="#0E3F41"/>
<path d="M96.74 221.71H95.99V213.93H84.13V218H83.38V211.9H84.13V213.18H95.99V205.8H84.13V209.83H83.38V203.8H84.13V205.05H95.99V199.88H96.74V221.71Z" fill="#0E3F41"/>
<path d="M84.13 201.6H83.38V195.53H84.13V196.88H94.81V197.63H84.13V201.6Z" fill="#0E3F41"/>
<path d="M95.99 196.07V189.4H84.13V193.46H83.38V188.65H96.74V195.23L119.04 192.59L119.13 193.33L95.99 196.07Z" fill="#0E3F41"/>
<path d="M121.96 209.37H96.37V208.62H121.21V197.57H119.46V196.82H121.96V209.37Z" fill="#0E3F41"/>
<path d="M121.96 208.43H121.21V220.11H121.96V208.43Z" fill="#0E3F41"/>
<path d="M96.46 189.38L96.27 188.65C98.28 188.12 102.97 186.91 103.57 186.91H103.59L103.54 187.66C103.12 187.66 98.97 188.71 96.46 189.37V189.38Z" fill="#0E3F41"/>
<path d="M109.17 186.78L109.12 186.03C110.04 185.97 118.08 185.45 119.17 185.69L119 186.42C118.26 186.25 112.72 186.54 109.17 186.77V186.78Z" fill="#0E3F41"/>
<path d="M107.055 186.381L105.686 186.553L105.78 187.297L107.149 187.125L107.055 186.381Z" fill="#0E3F41"/>
<path d="M106.806 186.689L106.063 186.791L107.106 194.379L107.849 194.277L106.806 186.689Z" fill="#0E3F41"/>
<path d="M96.74 197.15H95.99V200.65H96.74V197.15Z" fill="#0E3F41"/>
<path d="M96.36 196.88H93.26V197.63H96.36V196.88Z" fill="#0E3F41"/>
<path d="M203.08 191.4H201.12V190.65H202.33V178.71H194.95V190.65H198.98V191.4H190.02V190.65H194.2V177.96H203.08V191.4Z" fill="#0E3F41"/>
<path d="M188 191.4H184.79V190.65H186.02V178.71H178.63V190.65H182.72V191.4H173.85V190.65H177.88V177.96H194.57V178.71H186.77V190.65H188V191.4Z" fill="#0E3F41"/>
<path d="M178.26 177.96H144.88V178.71H178.26V177.96Z" fill="#0E3F41"/>
<path d="M133.74 183.05L133.65 182.31L141.16 181.34V177.96H143.11V178.71H141.91V182L133.74 183.05Z" fill="#0E3F41"/>
<path d="M171.69 191.55H168.57V190.8H169.7V178.5H170.45V190.8H171.69V191.55Z" fill="#0E3F41"/>
<path d="M166.41 191.4H157.45V190.65H161.62V190.4H162.37V190.65H166.41V191.4Z" fill="#0E3F41"/>
<path d="M155.38 191.4H153.36V177.96H162.3V188.33H161.55V178.71H154.11V190.65H155.38V191.4Z" fill="#0E3F41"/>
<path d="M129.31 183.87L125.7 164.6L125.69 163.11H126.44V164.53L129.9 182.97L131.41 182.64L131.57 183.37L129.31 183.87Z" fill="#0E3F41"/>
<path d="M126.44 161H125.69V155.94H126.53V156.69H126.44V161Z" fill="#0E3F41"/>
<path d="M139.68 165.05H126.07V164.3H138.93V156.69H128.78V155.94H139.68V165.05Z" fill="#0E3F41"/>
<path d="M126.44 151.67H125.69V156.31H126.44V151.67Z" fill="#0E3F41"/>
<path d="M141.88 178.34H141.13V164.17H139.3V163.42H141.88V178.34Z" fill="#0E3F41"/>
<path fill-rule="evenodd" clip-rule="evenodd" d="M203.08 178.29C203.08 178.29 206.93 178.56 209.09 178.84C211.25 179.12 222.19 179.39 222.19 179.39L228.2 189.3L203.08 190.95V178.29Z" fill="#C8355A"/>
<mask id="mask33_3_2" style="mask-type:luminance" maskUnits="userSpaceOnUse" x="203" y="178" width="26" height="13">
<path d="M203.08 178.29C203.08 178.29 206.93 178.56 209.09 178.84C211.25 179.12 222.19 179.39 222.19 179.39L228.2 189.3L203.08 190.95V178.29Z" fill="white"/>
</mask>
<g mask="url(#mask33_3_2)">
<path d="M367.29 -17.15H57.97V294.74H367.29V-17.15Z" fill="#C8355A"/>
<mask id="mask34_3_2" style="mask-type:luminance" maskUnits="userSpaceOnUse" x="57" y="-18" width="311" height="313">
<path d="M367.29 -17.15H57.97V294.74H367.29V-17.15Z" fill="white"/>
</mask>
<g mask="url(#mask34_3_2)">
<path d="M227.83 178.22H202.63V191.07H227.83V178.22Z" fill="#C8355A"/>
<mask id="mask35_3_2" style="mask-type:luminance" maskUnits="userSpaceOnUse" x="202" y="178" width="26" height="14">
<path d="M227.83 178.22H202.63V191.07H227.83V178.22Z" fill="white"/>
</mask>
<g mask="url(#mask35_3_2)">
<path d="M227.83 178.22H202.63V191.07H227.83V178.22Z" fill="#C8355A"/>
<mask id="mask36_3_2" style="mask-type:luminance" maskUnits="userSpaceOnUse" x="202" y="178" width="26" height="14">
<path d="M227.83 178.22H202.63V191.07H227.83V178.22Z" fill="white"/>
</mask>
<g mask="url(#mask36_3_2)">
<path d="M229.31 177.85H202.76V191.96H229.31V177.85Z" fill="#C8355A"/>
</g>
</g>
</g>
</g>
<path d="M139.68 157.46H138.93V148.62H126.44V149.78H125.69V146.71H126.44V147.87H139.68V157.46Z" fill="#0E3F41"/>
<path d="M128.6 68.96H119.9V66.8H117.94V64.8H121.9V66.96H128.6V68.96Z" fill="#0E3F41"/>
<path d="M138.59 80.83L136.77 80.6L136.82 79.85H137.32L137.46 78.71L138.2 78.8L138.05 80L138.68 80.08L138.59 80.83Z" fill="#0E3F41"/>
<path d="M139.25 90.74H128.73V91.49H139.25V90.74Z" fill="#0E3F41"/>
<path d="M126.44 95.8H125.69V86.38H126.44V90.74H126.62V91.49H126.44V95.8Z" fill="#0E3F41"/>
<path d="M126.44 84.27H125.69V82.7H139.07V83.45H126.44V84.27Z" fill="#0E3F41"/>
<path d="M96.74 195.65H95.99V202.39H96.74V195.65Z" fill="#0E3F41"/>
<path d="M117.39 193.01C117.12 190.78 116.43 186.12 116.43 186.08L117.17 185.97C117.17 185.97 117.86 190.68 118.14 192.92L117.4 193.01H117.39Z" fill="#0E3F41"/>
<path d="M126.44 144.71H125.69V135.37H126.44V139.66H139.06V140.41H126.44V144.71Z" fill="#0E3F41"/>
<path d="M126.44 133.19H125.69V130.44H126.44V131.66H139.3V132.41H126.44V133.19Z" fill="#0E3F41"/>
<path d="M126.44 128.34H125.69V119.14H126.44V123.37H138.93V115.97H126.44V117.11H125.69V114.21H126.44V115.22H139.68V124.12H126.44V128.34Z" fill="#0E3F41"/>
<path d="M126.44 112.04H125.69V102.77H126.44V107.03H138.88V99.67H126.44V100.74H125.69V97.81H126.44V98.92H139.63V107.78H126.44V112.04Z" fill="#0E3F41"/>
<path d="M274.973 146.683L274.253 146.892L276.504 154.683L277.225 154.474L274.973 146.683Z" fill="#0E3F41"/>
<path d="M281.57 169.892L280.846 170.087L281.329 171.883L282.054 171.688L281.57 169.892Z" fill="#0E3F41"/>
<path d="M279.33 175.7L279.25 174.96L282.14 174.64L282.01 174.06L282.74 173.89L282.9 174.58L322.51 170.5L322.59 171.25L279.33 175.7Z" fill="#0E3F41"/>
<path d="M319.914 170.332L319.197 170.552L319.425 171.298L320.142 171.078L319.914 170.332Z" fill="#0E3F41"/>
<path d="M313.398 147.646L312.678 147.855L318.672 168.554L319.392 168.346L313.398 147.646Z" fill="#0E3F41"/>
<path d="M326.038 163.47L318.24 165.734L318.449 166.455L326.247 164.191L326.038 163.47Z" fill="#0E3F41"/>
<path d="M272.109 158.286L270.97 158.596L271.168 159.32L272.306 159.01L272.109 158.286Z" fill="#0E3F41"/>
<path d="M271.995 158.737L271.274 158.943L274.242 169.369L274.963 169.163L271.995 158.737Z" fill="#0E3F41"/>
<path d="M268.2 171.35L264.92 160.37L268.9 159.2L269.11 159.92L265.85 160.88L268.71 170.44L280.08 167.39L277.26 157.54L274.24 158.4L274.03 157.68L277.77 156.62L281.01 167.92L268.2 171.35Z" fill="#0E3F41"/>
<path d="M329.92 167.83L328.85 162.07L341.2 159.58L341.35 160.32L329.72 162.66L330.66 167.69L329.92 167.83Z" fill="#0E3F41"/>
<path d="M329.278 162.547L328.059 162.9L328.268 163.621L329.487 163.267L329.278 162.547Z" fill="#0E3F41"/>
<path d="M330.69 171.91L330.35 170.12L331.09 169.99L331.28 171L340.14 168.96L340.31 169.69L330.69 171.91Z" fill="#0E3F41"/>
<path d="M219.9 181.24L219.42 180.67C219.59 180.52 237.12 166 258.53 171.98L258.33 172.7C237.29 166.82 220.08 181.09 219.91 181.24H219.9Z" fill="#0E3F41"/>
<path d="M227.89 189.22L221.6 179.49L222.24 179.08L228.52 188.82L227.89 189.22Z" fill="#0E3F41"/>
<path d="M251.45 171.03H250.7V185.64H251.45V171.03Z" fill="#0E3F41"/>
<path d="M232.32 189.74C228.78 189.74 226.48 189.4 226.42 189.39L226.54 188.65C226.68 188.67 240.7 190.76 252.91 184.41L253.26 185.08C245.78 188.96 237.65 189.74 232.32 189.74Z" fill="#0E3F41"/>
<path d="M225.3 184.44L224.82 183.86C224.92 183.78 235.14 175.55 251.1 176.58L251.05 177.33C235.39 176.32 225.39 184.36 225.3 184.44Z" fill="#0E3F41"/>
<path d="M310.53 240.15H110.73V227.14H76.41V179.13H79.25V181.13H78.41V225.14H112.73V238.15H308.53V227.24H306.55V221.38H341.1V181.38H340.17V179.38H343.1V223.38H308.55V225.24H310.53V240.15Z" fill="#0E3F41"/>
<path d="M209.77 179.2H140.44V165H138.25V79.26L152.46 81.26L155.35 61.04L154.68 60.97L140.35 59.4L141.09 53.03L133.77 52.09L131.49 68.97H127.86V66.97H129.75L132.06 49.85L143.3 51.3L142.57 57.63L157.62 59.26L154.16 83.51L140.25 81.56V163H142.44V177.2H207.08L205.1 170.69L255.28 156.45L254.42 154.14L292.51 138.83L294.1 143.87L311.21 137.1L313.85 146.23L331.41 139.06L337.41 160.36L335.49 160.9L330.09 141.76L312.55 148.93L309.9 139.77L292.84 146.52L291.25 141.49L256.98 155.27L257.91 157.78L207.61 172.06L209.77 179.2Z" fill="#0E3F41"/>
<path d="M342.1 181.38H339.65V171.1H341.65V179.38H342.1V181.38Z" fill="#0E3F41"/>
<path d="M335.71 162.1L334.96 159.01L336.9 158.54L337.19 159.74L350.3 156.97L350.71 158.93L335.71 162.1Z" fill="#0E3F41"/>
<path d="M341.65 172.66H339.65V168.53L351.52 165.75L350.03 159.07L347.82 159.54L347.4 157.58L351.54 156.7L353.91 167.24L341.65 170.12V172.66Z" fill="#0E3F41"/>
<path d="M223.01 180.69L222.59 180.07C222.73 179.98 236.72 170.68 251.45 172.05L251.38 172.8C236.94 171.45 223.15 180.6 223.01 180.7V180.69Z" fill="#0E3F41"/>
<path d="M246.731 172.293L246.431 172.308L246.672 177.142L246.971 177.127L246.731 172.293Z" fill="#0E3F41"/>
<path d="M245.95 177.2L245.79 172.37L246.09 172.36L246.25 177.19L245.95 177.2Z" fill="#0E3F41"/>
<path d="M245.254 172.435L244.954 172.449L245.192 177.264L245.492 177.249L245.254 172.435Z" fill="#0E3F41"/>
<path d="M244.489 172.504L244.19 172.527L244.55 177.323L244.849 177.301L244.489 172.504Z" fill="#0E3F41"/>
<path d="M226.11 183.87L223.45 179.97L223.7 179.8L226.36 183.7L226.11 183.87Z" fill="#0E3F41"/>
<path d="M224.404 179.393L224.153 179.556L226.688 183.477L226.94 183.315L224.404 179.393Z" fill="#0E3F41"/>
<path d="M227.22 182.94L224.78 179.19L225.03 179.02L227.47 182.78L227.22 182.94Z" fill="#0E3F41"/>
<path d="M227.91 182.71L225.55 178.75L225.8 178.6L228.16 182.55L227.91 182.71Z" fill="#0E3F41"/>
<path d="M226.439 178.278L226.18 178.43L228.511 182.373L228.769 182.22L226.439 178.278Z" fill="#0E3F41"/>
<path d="M229.12 182.01L226.87 178.05L227.13 177.9L229.39 181.86L229.12 182.01Z" fill="#0E3F41"/>
<path d="M227.824 177.546L227.56 177.689L229.728 181.678L229.992 181.535L227.824 177.546Z" fill="#0E3F41"/>
<path d="M228.498 177.26L228.232 177.398L230.267 181.3L230.533 181.161L228.498 177.26Z" fill="#0E3F41"/>
<path d="M229.272 176.855L229.002 176.986L230.906 180.93L231.176 180.8L229.272 176.855Z" fill="#0E3F41"/>
<path d="M229.987 176.55L229.716 176.678L231.62 180.711L231.891 180.583L229.987 176.55Z" fill="#0E3F41"/>
<path d="M232.24 180.36L230.47 176.39L230.74 176.27L232.51 180.24L232.24 180.36Z" fill="#0E3F41"/>
<path d="M231.381 175.965L231.105 176.082L232.781 180.021L233.057 179.903L231.381 175.965Z" fill="#0E3F41"/>
<path d="M232.103 175.667L231.825 175.779L233.403 179.682L233.681 179.57L232.103 175.667Z" fill="#0E3F41"/>
<path d="M232.811 175.402L232.534 175.516L234.151 179.447L234.429 179.332L232.811 175.402Z" fill="#0E3F41"/>
<path d="M235.74 178.9L235.31 174.48L235.61 174.45L236.04 178.87L235.74 178.9Z" fill="#0E3F41"/>
<path d="M243.673 172.591L243.374 172.623L243.86 177.127L244.159 177.094L243.673 172.591Z" fill="#0E3F41"/>
<path d="M242.919 172.701L242.621 172.738L243.183 177.213L243.481 177.176L242.919 172.701Z" fill="#0E3F41"/>
<path d="M242.082 172.846L241.785 172.893L242.491 177.348L242.787 177.301L242.082 172.846Z" fill="#0E3F41"/>
<path d="M241.277 172.977L240.982 173.031L241.787 177.448L242.082 177.395L241.277 172.977Z" fill="#0E3F41"/>
<path d="M241.09 177.61L240.19 173.19L240.49 173.13L241.39 177.55L241.09 177.61Z" fill="#0E3F41"/>
<path d="M239.731 173.301L239.438 173.366L240.391 177.722L240.685 177.658L239.731 173.301Z" fill="#0E3F41"/>
<path d="M238.956 173.469L238.664 173.541L239.721 177.873L240.013 177.802L238.956 173.469Z" fill="#0E3F41"/>
<path d="M238.11 173.679L237.822 173.762L239.059 178.027L239.347 177.943L238.11 173.679Z" fill="#0E3F41"/>
<path d="M237.489 173.863L237.199 173.939L238.318 178.205L238.608 178.129L237.489 173.863Z" fill="#0E3F41"/>
<path d="M338.23 169.63L337.34 165.59L347.4 163.43L347.33 162.97L337.64 165.05L337.48 164.32L347.94 162.07L348.26 164.01L338.24 166.17L338.96 169.47L338.23 169.63Z" fill="#0E3F41"/>
<path d="M339.25 169.45L338.45 165.78L338.74 165.71L339.54 169.39L339.25 169.45Z" fill="#0E3F41"/>
<path d="M339.83 169.15L339.02 165.48L339.32 165.41L340.12 169.09L339.83 169.15Z" fill="#0E3F41"/>
<path d="M340.63 169.02L339.83 165.34L340.12 165.28L340.92 168.95L340.63 169.02Z" fill="#0E3F41"/>
<path d="M341.25 168.93L340.45 165.25L340.74 165.19L341.55 168.86L341.25 168.93Z" fill="#0E3F41"/>
<path d="M341.88 168.82L341.08 165.15L341.37 165.08L342.17 168.76L341.88 168.82Z" fill="#0E3F41"/>
<path d="M342.59 168.62L341.78 164.95L342.08 164.88L342.88 168.56L342.59 168.62Z" fill="#0E3F41"/>
<path d="M343.25 168.48L342.45 164.8L342.74 164.74L343.54 168.42L343.25 168.48Z" fill="#0E3F41"/>
<path d="M344.05 168.39L343.25 164.72L343.54 164.65L344.35 168.33L344.05 168.39Z" fill="#0E3F41"/>
<path d="M344.86 168.26L344.05 164.58L344.35 164.52L345.15 168.2L344.86 168.26Z" fill="#0E3F41"/>
<path d="M345.43 167.96L344.63 164.28L344.92 164.22L345.73 167.9L345.43 167.96Z" fill="#0E3F41"/>
<path d="M346.24 167.83L345.43 164.15L345.73 164.09L346.53 167.76L346.24 167.83Z" fill="#0E3F41"/>
<path d="M346.86 167.74L346.06 164.06L346.35 164L347.15 167.67L346.86 167.74Z" fill="#0E3F41"/>
<path d="M347.49 167.63L346.68 163.96L346.97 163.89L347.78 167.57L347.49 167.63Z" fill="#0E3F41"/>
<path d="M337.711 160.805L337.417 160.866L338.179 164.538L338.472 164.477L337.711 160.805Z" fill="#0E3F41"/>
<path d="M338.85 164.41L338.08 160.62L338.38 160.56L339.14 164.35L338.85 164.41Z" fill="#0E3F41"/>
<path d="M338.956 160.379L338.664 160.445L339.525 164.289L339.818 164.224L338.956 160.379Z" fill="#0E3F41"/>
<path d="M339.718 160.168L339.424 160.231L340.228 164.016L340.522 163.954L339.718 160.168Z" fill="#0E3F41"/>
<path d="M340.364 160.306L340.071 160.366L340.832 164.038L341.125 163.977L340.364 160.306Z" fill="#0E3F41"/>
<path d="M341.5 163.91L340.74 160.13L341.03 160.07L341.8 163.85L341.5 163.91Z" fill="#0E3F41"/>
<path d="M341.625 159.889L341.332 159.955L342.194 163.799L342.486 163.734L341.625 159.889Z" fill="#0E3F41"/>
<path d="M342.88 163.56L342.08 159.77L342.37 159.71L343.18 163.5L342.88 163.56Z" fill="#0E3F41"/>
<path d="M343.146 159.518L342.852 159.579L343.614 163.251L343.907 163.19L343.146 159.518Z" fill="#0E3F41"/>
<path d="M344.28 163.12L343.52 159.34L343.81 159.28L344.58 163.06L344.28 163.12Z" fill="#0E3F41"/>
<path d="M344.403 159.091L344.11 159.156L344.971 163.001L345.264 162.935L344.403 159.091Z" fill="#0E3F41"/>
<path d="M345.163 158.886L344.87 158.949L345.674 162.734L345.967 162.672L345.163 158.886Z" fill="#0E3F41"/>
<path d="M345.802 159.02L345.508 159.081L346.269 162.753L346.563 162.692L345.802 159.02Z" fill="#0E3F41"/>
<path d="M346.94 162.63L346.17 158.84L346.47 158.78L347.23 162.57L346.94 162.63Z" fill="#0E3F41"/>
<path d="M136.48 66.56L135.74 66.48L136.73 56.62L136.28 56.55L135.28 66.41L134.53 66.33L135.61 55.69L137.55 55.99L136.48 66.56Z" fill="#0E3F41"/>
<path d="M136.254 65.5722L136.225 65.8708L139.967 66.2351L139.996 65.9365L136.254 65.5722Z" fill="#0E3F41"/>
<path d="M136.136 64.9207L136.107 65.2193L139.849 65.5836L139.878 65.285L136.136 64.9207Z" fill="#0E3F41"/>
<path d="M136.252 64.1128L136.223 64.4114L139.966 64.7757L139.995 64.4771L136.252 64.1128Z" fill="#0E3F41"/>
<path d="M136.355 63.4932L136.326 63.7918L140.068 64.1561L140.097 63.8575L136.355 63.4932Z" fill="#0E3F41"/>
<path d="M136.45 62.8756L136.421 63.1742L140.163 63.5391L140.192 63.2405L136.45 62.8756Z" fill="#0E3F41"/>
<path d="M136.486 62.1319L136.459 62.4306L140.442 62.7959L140.47 62.4972L136.486 62.1319Z" fill="#0E3F41"/>
<path d="M140.43 62.12L136.52 61.76L136.55 61.46L140.46 61.83L140.43 62.12Z" fill="#0E3F41"/>
<path d="M136.715 60.6733L136.686 60.9719L140.428 61.3368L140.458 61.0382L136.715 60.6733Z" fill="#0E3F41"/>
<path d="M136.828 59.8628L136.799 60.1613L140.541 60.5256L140.57 60.2271L136.828 59.8628Z" fill="#0E3F41"/>
<path d="M140.88 59.89L136.7 59.52L136.73 59.22L140.91 59.59L140.88 59.89Z" fill="#0E3F41"/>
<path d="M140.88 59.08L136.82 58.71L136.85 58.42L140.91 58.78L140.88 59.08Z" fill="#0E3F41"/>
<path d="M136.956 57.7943L136.929 58.093L140.882 58.4576L140.909 58.1589L136.956 57.7943Z" fill="#0E3F41"/>
<path d="M137.047 57.1668L137.02 57.4655L140.973 57.8302L141 57.5314L137.047 57.1668Z" fill="#0E3F41"/>
<path d="M134.96 65.99L131.23 65.59L131.26 65.29L135 65.69L134.96 65.99Z" fill="#0E3F41"/>
<path d="M135.03 65.31L131.2 64.87L131.23 64.58L135.07 65.01L135.03 65.31Z" fill="#0E3F41"/>
<path d="M131.211 63.9466L131.183 64.2454L135.107 64.6073L135.134 64.3085L131.211 63.9466Z" fill="#0E3F41"/>
<path d="M131.298 63.1877L131.267 63.4861L135.126 63.887L135.157 63.5886L131.298 63.1877Z" fill="#0E3F41"/>
<path d="M135.31 63.31L131.58 62.91L131.61 62.61L135.34 63.02L135.31 63.31Z" fill="#0E3F41"/>
<path d="M135.38 62.63L131.54 62.19L131.58 61.9L135.41 62.33L135.38 62.63Z" fill="#0E3F41"/>
<path d="M131.555 61.262L131.527 61.5607L135.45 61.9226L135.478 61.6238L131.555 61.262Z" fill="#0E3F41"/>
<path d="M131.649 60.5027L131.618 60.8011L135.477 61.202L135.508 60.9036L131.649 60.5027Z" fill="#0E3F41"/>
<path d="M135.41 60.43L131.68 60.02L131.71 59.72L135.44 60.13L135.41 60.43Z" fill="#0E3F41"/>
<path d="M135.48 59.74L131.64 59.31L131.68 59.01L135.51 59.44L135.48 59.74Z" fill="#0E3F41"/>
<path d="M131.656 58.3769L131.628 58.6757L135.552 59.0375L135.579 58.7388L131.656 58.3769Z" fill="#0E3F41"/>
<path d="M131.742 57.6125L131.711 57.9109L135.571 58.3111L135.602 58.0127L131.742 57.6125Z" fill="#0E3F41"/>
<path d="M135.76 57.75L132.02 57.34L132.06 57.04L135.79 57.45L135.76 57.75Z" fill="#0E3F41"/>
<path d="M135.83 57.06L131.99 56.63L132.02 56.33L135.86 56.76L135.83 57.06Z" fill="#0E3F41"/>
<path d="M141.2 57.24L137.14 56.88L137.17 56.58L141.23 56.94L141.2 57.24Z" fill="#0E3F41"/>
<path d="M111.484 198.383L111.185 198.414L111.599 202.383L111.897 202.352L111.484 198.383Z" fill="#0E3F41"/>
<path d="M110.77 198.604L110.472 198.634L110.859 202.484L111.158 202.454L110.77 198.604Z" fill="#0E3F41"/>
<path d="M110.049 198.597L109.751 198.63L110.169 202.387L110.467 202.353L110.049 198.597Z" fill="#0E3F41"/>
<path d="M109.6 202.53L109.09 198.84L109.38 198.8L109.9 202.49L109.6 202.53Z" fill="#0E3F41"/>
<path d="M108.78 202.66L108.4 198.88L108.7 198.85L109.08 202.63L108.78 202.66Z" fill="#0E3F41"/>
<path d="M108.1 202.81L107.76 199.06L108.06 199.03L108.4 202.79L108.1 202.81Z" fill="#0E3F41"/>
<path d="M106.559 199.207L106.261 199.235L106.613 202.949L106.912 202.92L106.559 199.207Z" fill="#0E3F41"/>
<path d="M101.41 200.45L101.26 198.48L115.89 196.29L116.11 198.28L101.41 200.44V200.45ZM102.06 199.13L102.1 199.6L115.29 197.66L115.24 197.17L102.07 199.14L102.06 199.13Z" fill="#0E3F41"/>
<path d="M107.306 199.025L107.007 199.055L107.409 203.025L107.707 202.995L107.306 199.025Z" fill="#0E3F41"/>
<path d="M106.567 199.261L106.269 199.291L106.657 203.142L106.955 203.112L106.567 199.261Z" fill="#0E3F41"/>
<path d="M105.858 199.257L105.56 199.29L105.978 203.047L106.276 203.014L105.858 199.257Z" fill="#0E3F41"/>
<path d="M105.38 203.19L104.9 199.5L105.2 199.46L105.68 203.15L105.38 203.19Z" fill="#0E3F41"/>
<path d="M104.433 199.511L104.136 199.55L104.633 203.328L104.93 203.289L104.433 199.511Z" fill="#0E3F41"/>
<path d="M103.771 199.549L103.473 199.588L103.964 203.326L104.262 203.287L103.771 199.549Z" fill="#0E3F41"/>
<path d="M98.72 204.64L98.62 203.89L119.7 200.93L119 196.14L119.74 196.03L120.55 201.57L98.72 204.64Z" fill="#0E3F41"/>
<path d="M98.23 204.83L97.23 195.71L97.97 195.63L98.89 203.92L99.66 203.76L99.81 204.49L98.23 204.83Z" fill="#0E3F41"/>
<path d="M290.65 160.74V161.52H286.12V160.91L288.69 158.43C289.36 157.78 289.48 157.39 289.48 156.99C289.48 156.34 289.02 155.95 288.14 155.95C287.47 155.95 286.92 156.17 286.53 156.63L285.92 156.1C286.41 155.5 287.24 155.15 288.22 155.15C289.53 155.15 290.38 155.83 290.38 156.91C290.38 157.52 290.2 158.07 289.34 158.89L287.41 160.74H290.64H290.65Z" fill="#ECD2D2"/>
<path d="M296.87 159.97H295.67V161.52H294.8V159.97H291.3V159.34L294.52 155.22H295.49L292.4 159.2H294.82V157.83H295.67V159.2H296.87V159.97Z" fill="#ECD2D2"/>
<path d="M297.4 158.37C297.4 156.32 298.5 155.15 299.98 155.15C301.46 155.15 302.55 156.32 302.55 158.37C302.55 160.42 301.45 161.59 299.98 161.59C298.51 161.59 297.4 160.42 297.4 158.37ZM301.64 158.37C301.64 156.76 300.96 155.95 299.97 155.95C298.98 155.95 298.3 156.76 298.3 158.37C298.3 159.98 298.98 160.79 299.97 160.79C300.96 160.79 301.64 159.98 301.64 158.37Z" fill="#ECD2D2"/>
<path d="M307.83 159.63C307.83 160.72 307.06 161.59 305.44 161.59C304.55 161.59 303.67 161.3 303.13 160.82L303.54 160.11C303.96 160.51 304.66 160.78 305.43 160.78C306.38 160.78 306.92 160.34 306.92 159.66C306.92 158.98 306.47 158.51 305.01 158.51H303.58L303.91 155.22H307.47V156H304.67L304.5 157.73H305.2C307.08 157.73 307.82 158.51 307.82 159.63H307.83Z" fill="#ECD2D2"/>
<path d="M204.61 137.84H203.61V180.71H204.61V137.84Z" fill="#C8355A"/>
<path d="M293.76 198.35H285.52V207.32H293.76V198.35Z" fill="#FCB13F"/>
<path d="M289.42 199.67C289.34 199.67 289.27 199.71 289.23 199.76L287.39 202.21C287.33 202.3 287.37 202.41 287.48 202.45C287.51 202.47 287.55 202.47 287.59 202.47H291.27H291.29C291.42 202.46 291.51 202.37 291.5 202.27C291.5 202.25 291.49 202.22 291.47 202.2L289.63 199.75C289.59 199.69 289.5 199.66 289.41 199.66L289.42 199.67ZM289.43 200.2L290.87 202.11H287.99L289.43 200.2ZM287.57 202.93C287.44 202.93 287.35 203.03 287.36 203.12C287.36 203.15 287.37 203.17 287.39 203.19L289.23 205.64C289.29 205.73 289.44 205.76 289.55 205.71C289.59 205.69 289.62 205.67 289.64 205.64L291.48 203.19C291.54 203.1 291.51 202.99 291.4 202.94C291.37 202.93 291.34 202.92 291.31 202.92H291.29H287.61C287.61 202.92 287.6 202.92 287.59 202.92L287.57 202.93ZM288 203.29H290.88L289.44 205.2L288 203.29Z" fill="#0E3F41"/>
<path d="M286.58 203.66H284.5V207.32H286.58V203.66Z" fill="#FCB13F"/>
<path d="M134.44 195.48H126.03V200.81H134.44V195.48Z" fill="#FCB13F"/>
<path d="M130.34 195.74C130.28 195.74 130.22 195.77 130.19 195.81L128.76 197.71C128.71 197.78 128.74 197.86 128.83 197.9C128.86 197.91 128.89 197.92 128.92 197.92H131.78C131.78 197.92 131.79 197.92 131.8 197.92C131.9 197.92 131.97 197.84 131.96 197.77C131.96 197.75 131.95 197.73 131.94 197.72L130.51 195.82C130.51 195.82 130.41 195.75 130.34 195.75V195.74ZM130.35 196.16L131.47 197.65H129.24L130.36 196.16H130.35ZM128.9 198.28C128.8 198.28 128.73 198.35 128.74 198.43C128.74 198.45 128.75 198.47 128.76 198.49L130.19 200.39C130.24 200.46 130.35 200.48 130.44 200.44C130.47 200.43 130.49 200.41 130.51 200.39L131.94 198.49C131.99 198.42 131.96 198.34 131.87 198.3C131.85 198.3 131.82 198.28 131.8 198.28C131.8 198.28 131.79 198.28 131.78 198.28H128.92C128.92 198.28 128.92 198.28 128.91 198.28H128.9ZM129.23 198.56H131.46L130.34 200.05L129.22 198.56H129.23Z" fill="#0E3F41"/>
<line x1="321" y1="192.5" x2="370" y2="192.5" stroke="#A977AB"/>
<path d="M373.37 196V195.32L376.22 192.57C376.473 192.33 376.66 192.12 376.78 191.94C376.907 191.753 376.99 191.583 377.03 191.43C377.077 191.27 377.1 191.117 377.1 190.97C377.1 190.61 376.973 190.327 376.72 190.12C376.467 189.913 376.097 189.81 375.61 189.81C375.237 189.81 374.9 189.873 374.6 190C374.3 190.12 374.04 190.31 373.82 190.57L373.14 189.98C373.407 189.64 373.763 189.38 374.21 189.2C374.663 189.013 375.16 188.92 375.7 188.92C376.187 188.92 376.61 189 376.97 189.16C377.33 189.313 377.607 189.537 377.8 189.83C378 190.123 378.1 190.47 378.1 190.87C378.1 191.097 378.07 191.32 378.01 191.54C377.95 191.76 377.837 191.993 377.67 192.24C377.503 192.487 377.263 192.763 376.95 193.07L374.41 195.52L374.17 195.13H378.4V196H373.37ZM378.927 194.28V193.58L382.507 189H383.587L380.037 193.58L379.527 193.42H385.117V194.28H378.927ZM382.817 196V194.28L382.847 193.42V191.9H383.787V196H382.817ZM388.576 196.08C388.03 196.08 387.54 195.94 387.106 195.66C386.68 195.38 386.34 194.973 386.086 194.44C385.84 193.907 385.716 193.26 385.716 192.5C385.716 191.74 385.84 191.093 386.086 190.56C386.34 190.027 386.68 189.62 387.106 189.34C387.54 189.06 388.03 188.92 388.576 188.92C389.116 188.92 389.603 189.06 390.036 189.34C390.47 189.62 390.81 190.027 391.056 190.56C391.303 191.093 391.426 191.74 391.426 192.5C391.426 193.26 391.303 193.907 391.056 194.44C390.81 194.973 390.47 195.38 390.036 195.66C389.603 195.94 389.116 196.08 388.576 196.08ZM388.576 195.19C388.943 195.19 389.263 195.09 389.536 194.89C389.816 194.69 390.033 194.39 390.186 193.99C390.346 193.59 390.426 193.093 390.426 192.5C390.426 191.907 390.346 191.41 390.186 191.01C390.033 190.61 389.816 190.31 389.536 190.11C389.263 189.91 388.943 189.81 388.576 189.81C388.21 189.81 387.886 189.91 387.606 190.11C387.326 190.31 387.106 190.61 386.946 191.01C386.793 191.41 386.716 191.907 386.716 192.5C386.716 193.093 386.793 193.59 386.946 193.99C387.106 194.39 387.326 194.69 387.606 194.89C387.886 195.09 388.21 195.19 388.576 195.19ZM395.326 196.08C394.706 196.08 394.176 195.943 393.736 195.67C393.296 195.397 392.96 195.003 392.726 194.49C392.5 193.97 392.386 193.337 392.386 192.59C392.386 191.797 392.526 191.127 392.806 190.58C393.086 190.033 393.476 189.62 393.976 189.34C394.476 189.06 395.05 188.92 395.696 188.92C396.03 188.92 396.346 188.953 396.646 189.02C396.953 189.087 397.216 189.19 397.436 189.33L397.056 190.11C396.876 189.983 396.67 189.897 396.436 189.85C396.21 189.803 395.97 189.78 395.716 189.78C395.003 189.78 394.436 190.003 394.016 190.45C393.596 190.89 393.386 191.547 393.386 192.42C393.386 192.56 393.393 192.727 393.406 192.92C393.42 193.113 393.453 193.303 393.506 193.49L393.166 193.15C393.266 192.843 393.423 192.587 393.636 192.38C393.856 192.167 394.116 192.01 394.416 191.91C394.723 191.803 395.053 191.75 395.406 191.75C395.873 191.75 396.286 191.837 396.646 192.01C397.006 192.183 397.29 192.43 397.496 192.75C397.703 193.063 397.806 193.437 397.806 193.87C397.806 194.317 397.696 194.707 397.476 195.04C397.256 195.373 396.96 195.63 396.586 195.81C396.213 195.99 395.793 196.08 395.326 196.08ZM395.286 195.27C395.593 195.27 395.86 195.213 396.086 195.1C396.32 194.987 396.503 194.83 396.636 194.63C396.77 194.423 396.836 194.183 396.836 193.91C396.836 193.497 396.693 193.17 396.406 192.93C396.12 192.683 395.73 192.56 395.236 192.56C394.916 192.56 394.636 192.62 394.396 192.74C394.156 192.86 393.966 193.023 393.826 193.23C393.693 193.43 393.626 193.66 393.626 193.92C393.626 194.16 393.69 194.383 393.816 194.59C393.943 194.79 394.13 194.953 394.376 195.08C394.623 195.207 394.926 195.27 395.286 195.27Z" fill="#A977AB"/>
<path d="M69 168L133 168" stroke="#A977AB"/>
<path d="M44.37 171V170.32L47.22 167.57C47.4733 167.33 47.66 167.12 47.78 166.94C47.9067 166.753 47.99 166.583 48.03 166.43C48.0767 166.27 48.1 166.117 48.1 165.97C48.1 165.61 47.9733 165.327 47.72 165.12C47.4667 164.913 47.0967 164.81 46.61 164.81C46.2367 164.81 45.9 164.873 45.6 165C45.3 165.12 45.04 165.31 44.82 165.57L44.14 164.98C44.4067 164.64 44.7633 164.38 45.21 164.2C45.6633 164.013 46.16 163.92 46.7 163.92C47.1867 163.92 47.61 164 47.97 164.16C48.33 164.313 48.6067 164.537 48.8 164.83C49 165.123 49.1 165.47 49.1 165.87C49.1 166.097 49.07 166.32 49.01 166.54C48.95 166.76 48.8367 166.993 48.67 167.24C48.5033 167.487 48.2633 167.763 47.95 168.07L45.41 170.52L45.17 170.13H49.4V171H44.37ZM51.4022 171V164.4L51.8322 164.87H49.8222V164H52.3922V171H51.4022ZM56.7834 171.08C56.2367 171.08 55.7467 170.94 55.3134 170.66C54.8867 170.38 54.5467 169.973 54.2934 169.44C54.0467 168.907 53.9234 168.26 53.9234 167.5C53.9234 166.74 54.0467 166.093 54.2934 165.56C54.5467 165.027 54.8867 164.62 55.3134 164.34C55.7467 164.06 56.2367 163.92 56.7834 163.92C57.3234 163.92 57.81 164.06 58.2434 164.34C58.6767 164.62 59.0167 165.027 59.2634 165.56C59.51 166.093 59.6334 166.74 59.6334 167.5C59.6334 168.26 59.51 168.907 59.2634 169.44C59.0167 169.973 58.6767 170.38 58.2434 170.66C57.81 170.94 57.3234 171.08 56.7834 171.08ZM56.7834 170.19C57.15 170.19 57.47 170.09 57.7434 169.89C58.0234 169.69 58.24 169.39 58.3934 168.99C58.5534 168.59 58.6334 168.093 58.6334 167.5C58.6334 166.907 58.5534 166.41 58.3934 166.01C58.24 165.61 58.0234 165.31 57.7434 165.11C57.47 164.91 57.15 164.81 56.7834 164.81C56.4167 164.81 56.0934 164.91 55.8134 165.11C55.5334 165.31 55.3134 165.61 55.1534 166.01C55 166.41 54.9234 166.907 54.9234 167.5C54.9234 168.093 55 168.59 55.1534 168.99C55.3134 169.39 55.5334 169.69 55.8134 169.89C56.0934 170.09 56.4167 170.19 56.7834 170.19ZM60.4833 171V170.32L63.3333 167.57C63.5866 167.33 63.7733 167.12 63.8933 166.94C64.0199 166.753 64.1033 166.583 64.1433 166.43C64.1899 166.27 64.2133 166.117 64.2133 165.97C64.2133 165.61 64.0866 165.327 63.8333 165.12C63.5799 164.913 63.2099 164.81 62.7233 164.81C62.3499 164.81 62.0133 164.873 61.7133 165C61.4133 165.12 61.1533 165.31 60.9333 165.57L60.2533 164.98C60.5199 164.64 60.8766 164.38 61.3233 164.2C61.7766 164.013 62.2733 163.92 62.8133 163.92C63.2999 163.92 63.7233 164 64.0833 164.16C64.4433 164.313 64.7199 164.537 64.9133 164.83C65.1133 165.123 65.2133 165.47 65.2133 165.87C65.2133 166.097 65.1833 166.32 65.1233 166.54C65.0633 166.76 64.9499 166.993 64.7833 167.24C64.6166 167.487 64.3766 167.763 64.0633 168.07L61.5233 170.52L61.2833 170.13H65.5133V171H60.4833Z" fill="#A977AB"/>
<line x1="323" y1="150.5" x2="372" y2="150.5" stroke="#A977AB"/>
<path d="M375.37 154V153.32L378.22 150.57C378.473 150.33 378.66 150.12 378.78 149.94C378.907 149.753 378.99 149.583 379.03 149.43C379.077 149.27 379.1 149.117 379.1 148.97C379.1 148.61 378.973 148.327 378.72 148.12C378.467 147.913 378.097 147.81 377.61 147.81C377.237 147.81 376.9 147.873 376.6 148C376.3 148.12 376.04 148.31 375.82 148.57L375.14 147.98C375.407 147.64 375.763 147.38 376.21 147.2C376.663 147.013 377.16 146.92 377.7 146.92C378.187 146.92 378.61 147 378.97 147.16C379.33 147.313 379.607 147.537 379.8 147.83C380 148.123 380.1 148.47 380.1 148.87C380.1 149.097 380.07 149.32 380.01 149.54C379.95 149.76 379.837 149.993 379.67 150.24C379.503 150.487 379.263 150.763 378.95 151.07L376.41 153.52L376.17 153.13H380.4V154H375.37ZM380.927 152.28V151.58L384.507 147H385.587L382.037 151.58L381.527 151.42H387.117V152.28H380.927ZM384.817 154V152.28L384.847 151.42V149.9H385.787V154H384.817ZM390.576 154.08C390.03 154.08 389.54 153.94 389.106 153.66C388.68 153.38 388.34 152.973 388.086 152.44C387.84 151.907 387.716 151.26 387.716 150.5C387.716 149.74 387.84 149.093 388.086 148.56C388.34 148.027 388.68 147.62 389.106 147.34C389.54 147.06 390.03 146.92 390.576 146.92C391.116 146.92 391.603 147.06 392.036 147.34C392.47 147.62 392.81 148.027 393.056 148.56C393.303 149.093 393.426 149.74 393.426 150.5C393.426 151.26 393.303 151.907 393.056 152.44C392.81 152.973 392.47 153.38 392.036 153.66C391.603 153.94 391.116 154.08 390.576 154.08ZM390.576 153.19C390.943 153.19 391.263 153.09 391.536 152.89C391.816 152.69 392.033 152.39 392.186 151.99C392.346 151.59 392.426 151.093 392.426 150.5C392.426 149.907 392.346 149.41 392.186 149.01C392.033 148.61 391.816 148.31 391.536 148.11C391.263 147.91 390.943 147.81 390.576 147.81C390.21 147.81 389.886 147.91 389.606 148.11C389.326 148.31 389.106 148.61 388.946 149.01C388.793 149.41 388.716 149.907 388.716 150.5C388.716 151.093 388.793 151.59 388.946 151.99C389.106 152.39 389.326 152.69 389.606 152.89C389.886 153.09 390.21 153.19 390.576 153.19ZM395.528 154L398.498 147.42L398.758 147.87H394.598L395.098 147.38V149.12H394.138V147H399.418V147.68L396.588 154H395.528Z" fill="#A977AB"/>
</svg>
