<svg xmlns="http://www.w3.org/2000/svg" fill="none" viewBox="76.41 49.85 277.5 190.3">
<path d="M126 165H141.5V181.5L129.5 183.5L126 165Z" fill="#A977AB"/>
<path d="M256 155L275 147.5L280 165.5L260.5 171L256 155Z" fill="#A977AB"/>
<path d="M263 170L279.5 164.5L281.5 170.5L264.5 175.5L263 170Z" fill="#A977AB"/>
<path d="M309.9 239.67H251.36V225.45H309.9V239.67ZM252.11 238.92H309.15V226.2H252.11V238.92Z" fill="#0E3F41"/>
<path d="M342.88 205.75H328.5L328.27 179.82H342.88V205.75ZM329.27 205H341.88V180.82H329.27V205Z" fill="#0E3F41"/>
<path d="M292.59 187.49H285.5V197.9H292.59V187.49Z" fill="#B8D7D7"/>
<mask id="mask0_4_563" style="mask-type:luminance" maskUnits="userSpaceOnUse" x="285" y="187" width="8" height="11">
<path d="M292.59 187.49H285.5V197.9H292.59V187.49Z" fill="white"/>
</mask>
<g mask="url(#mask0_4_563)">
<path d="M368.64 -17.43H56.32V294.89H368.64V-17.43Z" fill="#B8D7D7"/>
<mask id="mask1_4_563" style="mask-type:luminance" maskUnits="userSpaceOnUse" x="56" y="-18" width="313" height="313">
<path d="M368.64 -17.43H56.32V294.89H368.64V-17.43Z" fill="white"/>
</mask>
<g mask="url(#mask1_4_563)">
<path d="M293.31 186.77H284.78V198.63H293.31V186.77Z" fill="#B8D7D7"/>
</g>
</g>
<path d="M295.62 188.14H284.21V179.63H295.62V188.14ZM285.21 187.14H294.62V180.63H285.21V187.14Z" fill="#0E3F41"/>
<mask id="mask2_4_563" style="mask-type:luminance" maskUnits="userSpaceOnUse" x="284" y="179" width="12" height="10">
<path d="M295.62 188.14H284.21V179.63H295.62V188.14ZM285.21 187.14H294.62V180.63H285.21V187.14Z" fill="white"/>
</mask>
<g mask="url(#mask2_4_563)">
<path d="M369.14 295.39H55.8199V-17.93H369.14V295.39ZM56.8199 294.39H368.14V-16.93H56.8199V294.39Z" fill="#0E3F41"/>
</g>
<path d="M154.01 198.02H134.94V221.66H154.01V198.02Z" fill="#B8D7D7"/>
<path fill-rule="evenodd" clip-rule="evenodd" d="M135 222H154V197H147.973V202.308H139.935V197H135V222Z" fill="#B8D7D7"/>
<path d="M129.68 183.91L129.53 182.92L140.94 181.24V165.17H126.3V164.17H141.94V182.1L129.68 183.91Z" fill="#0E3F41"/>
<mask id="mask3_4_563" style="mask-type:luminance" maskUnits="userSpaceOnUse" x="126" y="164" width="16" height="20">
<path d="M129.68 183.91L129.53 182.92L140.94 181.24V165.17H126.3V164.17H141.94V182.1L129.68 183.91Z" fill="white"/>
</mask>
<g mask="url(#mask3_4_563)">
<path d="M369.14 295.39H55.82V-17.93H369.14V295.39ZM56.82 294.39H368.14V-16.93H56.82V294.39Z" fill="#0E3F41"/>
</g>
<path d="M154.15 82.95L136.83 80.65L140.45 57.82L141.44 57.97L137.98 79.8L153.31 81.83L156.54 60.07L157.53 60.22L154.15 82.95Z" fill="#0E3F41"/>
<mask id="mask4_4_563" style="mask-type:luminance" maskUnits="userSpaceOnUse" x="136" y="57" width="22" height="26">
<path d="M154.15 82.95L136.83 80.65L140.45 57.82L141.44 57.97L137.98 79.8L153.31 81.83L156.54 60.07L157.53 60.22L154.15 82.95Z" fill="white"/>
</mask>
<g mask="url(#mask4_4_563)">
<path d="M369.14 295.39H55.82V-17.93H369.14V295.39ZM56.82 294.39H368.14V-16.93H56.82V294.39Z" fill="#0E3F41"/>
</g>
<path fill-rule="evenodd" clip-rule="evenodd" d="M150.1 215.6V218.23C150.1 218.29 150.1 218.35 150.08 218.41C150.01 218.59 149.81 218.67 149.62 218.6C149.48 218.55 149.4 218.43 149.4 218.27C149.4 218.14 149.4 218.02 149.4 217.89C149.4 217.32 149.4 216.74 149.4 216.17C149.4 215.84 149.4 215.51 149.4 215.17C149.4 215.15 149.4 215.12 149.4 215.1C149.39 215.05 149.35 215.02 149.3 215.01C149.24 215.01 149.2 215.03 149.18 215.08C149.17 215.11 149.17 215.14 149.17 215.17C149.17 216.19 149.17 217.22 149.17 218.24C149.17 218.34 149.16 218.43 149.09 218.5C148.99 218.61 148.87 218.65 148.73 218.62C148.59 218.59 148.5 218.49 148.46 218.36C148.45 218.32 148.44 218.27 148.44 218.22C148.44 217.51 148.44 216.8 148.44 216.1C148.44 215.05 148.44 214 148.44 212.94C148.44 212.86 148.42 212.83 148.36 212.81C148.29 212.79 148.21 212.81 148.17 212.87C148.16 212.89 148.16 212.9 148.16 212.92C148.16 213.3 148.16 213.67 148.16 214.05C148.16 214.33 148.16 214.6 148.16 214.88C148.16 214.99 148.12 215.08 148.01 215.13C147.91 215.17 147.8 215.15 147.72 215.07C147.67 215.02 147.65 214.97 147.65 214.9C147.65 214.19 147.65 213.48 147.65 212.77C147.65 212.58 147.69 212.4 147.79 212.24C147.97 211.96 148.22 211.8 148.56 211.79C148.99 211.78 149.42 211.79 149.84 211.79C150.28 211.79 150.7 212.14 150.8 212.57C150.82 212.67 150.84 212.77 150.84 212.87C150.84 213.53 150.84 214.2 150.84 214.86C150.84 215 150.78 215.08 150.66 215.12C150.5 215.17 150.35 215.07 150.34 214.9C150.34 214.88 150.34 214.86 150.34 214.84C150.34 214.2 150.34 213.55 150.34 212.91C150.34 212.81 150.25 212.77 150.19 212.79C150.13 212.8 150.1 212.84 150.1 212.9V215.58V215.6Z" fill="#5B629C"/>
<mask id="mask5_4_563" style="mask-type:luminance" maskUnits="userSpaceOnUse" x="147" y="211" width="4" height="8">
<path d="M150.1 215.6V218.23C150.1 218.29 150.1 218.35 150.08 218.41C150.01 218.59 149.81 218.67 149.62 218.6C149.48 218.55 149.4 218.43 149.4 218.27C149.4 218.14 149.4 218.02 149.4 217.89C149.4 217.32 149.4 216.74 149.4 216.17C149.4 215.84 149.4 215.51 149.4 215.17C149.4 215.15 149.4 215.12 149.4 215.1C149.39 215.05 149.35 215.02 149.3 215.01C149.24 215.01 149.2 215.03 149.18 215.08C149.17 215.11 149.17 215.14 149.17 215.17C149.17 216.19 149.17 217.22 149.17 218.24C149.17 218.34 149.16 218.43 149.09 218.5C148.99 218.61 148.87 218.65 148.73 218.62C148.59 218.59 148.5 218.49 148.46 218.36C148.45 218.32 148.44 218.27 148.44 218.22C148.44 217.51 148.44 216.8 148.44 216.1C148.44 215.05 148.44 214 148.44 212.94C148.44 212.86 148.42 212.83 148.36 212.81C148.29 212.79 148.21 212.81 148.17 212.87C148.16 212.89 148.16 212.9 148.16 212.92C148.16 213.3 148.16 213.67 148.16 214.05C148.16 214.33 148.16 214.6 148.16 214.88C148.16 214.99 148.12 215.08 148.01 215.13C147.91 215.17 147.8 215.15 147.72 215.07C147.67 215.02 147.65 214.97 147.65 214.9C147.65 214.19 147.65 213.48 147.65 212.77C147.65 212.58 147.69 212.4 147.79 212.24C147.97 211.96 148.22 211.8 148.56 211.79C148.99 211.78 149.42 211.79 149.84 211.79C150.28 211.79 150.7 212.14 150.8 212.57C150.82 212.67 150.84 212.77 150.84 212.87C150.84 213.53 150.84 214.2 150.84 214.86C150.84 215 150.78 215.08 150.66 215.12C150.5 215.17 150.35 215.07 150.34 214.9C150.34 214.88 150.34 214.86 150.34 214.84C150.34 214.2 150.34 213.55 150.34 212.91C150.34 212.81 150.25 212.77 150.19 212.79C150.13 212.8 150.1 212.84 150.1 212.9V215.58V215.6Z" fill="white"/>
</mask>
<g mask="url(#mask5_4_563)">
<path d="M368.64 -17.43H56.32V294.89H368.64V-17.43Z" fill="#5B629C"/>
<mask id="mask6_4_563" style="mask-type:luminance" maskUnits="userSpaceOnUse" x="56" y="-18" width="313" height="313">
<path d="M368.64 -17.43H56.32V294.89H368.64V-17.43Z" fill="white"/>
</mask>
<g mask="url(#mask6_4_563)">
<path d="M151.56 211.07H146.92V219.36H151.56V211.07Z" fill="#5B629C"/>
</g>
</g>
<path fill-rule="evenodd" clip-rule="evenodd" d="M149.22 210.23C149.59 210.23 149.89 210.53 149.89 210.9C149.89 211.27 149.6 211.57 149.22 211.57C148.84 211.57 148.56 211.29 148.55 210.9C148.55 210.52 148.84 210.23 149.22 210.22" fill="#5B629C"/>
<mask id="mask7_4_563" style="mask-type:luminance" maskUnits="userSpaceOnUse" x="148" y="210" width="2" height="2">
<path d="M149.22 210.23C149.59 210.23 149.89 210.53 149.89 210.9C149.89 211.27 149.6 211.57 149.22 211.57C148.84 211.57 148.56 211.29 148.55 210.9C148.55 210.52 148.84 210.23 149.22 210.22" fill="white"/>
</mask>
<g mask="url(#mask7_4_563)">
<path d="M368.64 -17.43H56.32V294.89H368.64V-17.43Z" fill="#5B629C"/>
<mask id="mask8_4_563" style="mask-type:luminance" maskUnits="userSpaceOnUse" x="56" y="-18" width="313" height="313">
<path d="M368.64 -17.43H56.32V294.89H368.64V-17.43Z" fill="white"/>
</mask>
<g mask="url(#mask8_4_563)">
<path d="M150.61 209.51H147.83V212.3H150.61V209.51Z" fill="#5B629C"/>
</g>
</g>
<path fill-rule="evenodd" clip-rule="evenodd" d="M139.99 217.24C139.99 217.6 139.99 217.97 139.99 218.33C139.99 218.44 139.95 218.53 139.85 218.59C139.75 218.65 139.64 218.65 139.53 218.59C139.42 218.54 139.38 218.44 139.38 218.33C139.38 217.62 139.38 216.91 139.38 216.2C139.38 216.18 139.38 216.16 139.38 216.14C139.38 216.08 139.33 216.05 139.28 216.05C139.22 216.05 139.18 216.09 139.18 216.15V218.3C139.18 218.41 139.16 218.5 139.07 218.57C138.96 218.65 138.84 218.66 138.72 218.6C138.6 218.55 138.56 218.44 138.55 218.32C138.55 218.3 138.55 218.28 138.55 218.26V216.13C138.55 216.083 138.527 216.06 138.48 216.06C138.22 216.06 137.97 216.06 137.72 216.06C137.67 216.06 137.66 216.06 137.68 216.01C137.74 215.8 137.81 215.58 137.88 215.37C137.98 215.06 138.07 214.74 138.17 214.43C138.25 214.17 138.33 213.91 138.41 213.64C138.49 213.38 138.57 213.11 138.65 212.85C138.67 212.78 138.65 212.73 138.59 212.71C138.53 212.69 138.47 212.71 138.45 212.79C138.4 212.93 138.36 213.08 138.31 213.22C138.19 213.58 138.08 213.93 137.96 214.29C137.91 214.44 137.86 214.6 137.81 214.75C137.76 214.91 137.63 214.97 137.48 214.9C137.37 214.85 137.32 214.74 137.36 214.62C137.46 214.28 137.57 213.94 137.67 213.6C137.79 213.2 137.91 212.8 138.03 212.4C138.12 212.09 138.39 211.87 138.71 211.83C138.76 211.83 138.82 211.83 138.87 211.83C139.22 211.83 139.57 211.83 139.92 211.83C140.11 211.83 140.29 211.88 140.44 212C140.59 212.12 140.67 212.27 140.72 212.45C140.85 212.92 140.98 213.39 141.1 213.86C141.17 214.12 141.24 214.39 141.31 214.65C141.34 214.78 141.25 214.92 141.11 214.93C140.98 214.94 140.89 214.88 140.85 214.75C140.74 214.38 140.64 214.01 140.54 213.64L140.34 212.93C140.32 212.87 140.31 212.81 140.29 212.76C140.27 212.7 140.22 212.68 140.17 212.69C140.11 212.71 140.09 212.75 140.1 212.81C140.18 213.12 140.26 213.44 140.34 213.75C140.43 214.1 140.52 214.45 140.61 214.8C140.71 215.21 140.82 215.62 140.92 216.03C140.93 216.07 140.91 216.07 140.88 216.07C140.61 216.07 140.34 216.07 140.07 216.07C140 216.07 140 216.07 140 216.14V217.24H139.99Z" fill="#5B629C"/>
<mask id="mask9_4_563" style="mask-type:luminance" maskUnits="userSpaceOnUse" x="137" y="211" width="5" height="8">
<path d="M139.99 217.24C139.99 217.6 139.99 217.97 139.99 218.33C139.99 218.44 139.95 218.53 139.85 218.59C139.75 218.65 139.64 218.65 139.53 218.59C139.42 218.54 139.38 218.44 139.38 218.33C139.38 217.62 139.38 216.91 139.38 216.2C139.38 216.18 139.38 216.16 139.38 216.14C139.38 216.08 139.33 216.05 139.28 216.05C139.22 216.05 139.18 216.09 139.18 216.15V218.3C139.18 218.41 139.16 218.5 139.07 218.57C138.96 218.65 138.84 218.66 138.72 218.6C138.6 218.55 138.56 218.44 138.55 218.32C138.55 218.3 138.55 218.28 138.55 218.26V216.13C138.55 216.083 138.527 216.06 138.48 216.06C138.22 216.06 137.97 216.06 137.72 216.06C137.67 216.06 137.66 216.06 137.68 216.01C137.74 215.8 137.81 215.58 137.88 215.37C137.98 215.06 138.07 214.74 138.17 214.43C138.25 214.17 138.33 213.91 138.41 213.64C138.49 213.38 138.57 213.11 138.65 212.85C138.67 212.78 138.65 212.73 138.59 212.71C138.53 212.69 138.47 212.71 138.45 212.79C138.4 212.93 138.36 213.08 138.31 213.22C138.19 213.58 138.08 213.93 137.96 214.29C137.91 214.44 137.86 214.6 137.81 214.75C137.76 214.91 137.63 214.97 137.48 214.9C137.37 214.85 137.32 214.74 137.36 214.62C137.46 214.28 137.57 213.94 137.67 213.6C137.79 213.2 137.91 212.8 138.03 212.4C138.12 212.09 138.39 211.87 138.71 211.83C138.76 211.83 138.82 211.83 138.87 211.83C139.22 211.83 139.57 211.83 139.92 211.83C140.11 211.83 140.29 211.88 140.44 212C140.59 212.12 140.67 212.27 140.72 212.45C140.85 212.92 140.98 213.39 141.1 213.86C141.17 214.12 141.24 214.39 141.31 214.65C141.34 214.78 141.25 214.92 141.11 214.93C140.98 214.94 140.89 214.88 140.85 214.75C140.74 214.38 140.64 214.01 140.54 213.64L140.34 212.93C140.32 212.87 140.31 212.81 140.29 212.76C140.27 212.7 140.22 212.68 140.17 212.69C140.11 212.71 140.09 212.75 140.1 212.81C140.18 213.12 140.26 213.44 140.34 213.75C140.43 214.1 140.52 214.45 140.61 214.8C140.71 215.21 140.82 215.62 140.92 216.03C140.93 216.07 140.91 216.07 140.88 216.07C140.61 216.07 140.34 216.07 140.07 216.07C140 216.07 140 216.07 140 216.14V217.24H139.99Z" fill="white"/>
</mask>
<g mask="url(#mask9_4_563)">
<path d="M368.64 -17.43H56.32V294.89H368.64V-17.43Z" fill="#5B629C"/>
<mask id="mask10_4_563" style="mask-type:luminance" maskUnits="userSpaceOnUse" x="56" y="-18" width="313" height="313">
<path d="M368.64 -17.43H56.32V294.89H368.64V-17.43Z" fill="white"/>
</mask>
<g mask="url(#mask10_4_563)">
<path d="M142.03 211.11H136.61V219.36H142.03V211.11Z" fill="#5B629C"/>
</g>
</g>
<path fill-rule="evenodd" clip-rule="evenodd" d="M138.69 210.91C138.69 210.55 138.97 210.23 139.36 210.23C139.75 210.23 140.04 210.54 140.04 210.92C140.04 211.29 139.73 211.6 139.36 211.59C138.99 211.59 138.68 211.28 138.69 210.91Z" fill="#5B629C"/>
<mask id="mask11_4_563" style="mask-type:luminance" maskUnits="userSpaceOnUse" x="138" y="210" width="3" height="2">
<path d="M138.69 210.91C138.69 210.55 138.97 210.23 139.36 210.23C139.75 210.23 140.04 210.54 140.04 210.92C140.04 211.29 139.73 211.6 139.36 211.59C138.99 211.59 138.68 211.28 138.69 210.91Z" fill="white"/>
</mask>
<g mask="url(#mask11_4_563)">
<path d="M368.64 -17.43H56.32V294.89H368.64V-17.43Z" fill="#5B629C"/>
<mask id="mask12_4_563" style="mask-type:luminance" maskUnits="userSpaceOnUse" x="56" y="-18" width="313" height="313">
<path d="M368.64 -17.43H56.32V294.89H368.64V-17.43Z" fill="white"/>
</mask>
<g mask="url(#mask12_4_563)">
<path d="M140.77 209.51H137.97V212.32H140.77V209.51Z" fill="#5B629C"/>
</g>
</g>
<path d="M131.79 200.32C131.79 200.32 131.77 200.32 131.76 200.32C131.48 200.32 131.21 200.17 130.99 199.9C130.77 199.64 130.56 199.38 130.35 199.12L130.06 198.76C129.94 198.79 129.82 198.79 129.72 198.76V199.06C129.72 199.24 129.72 199.5 129.59 199.76C129.4 200.15 129.03 200.35 128.62 200.3C128.14 200.25 127.8 199.89 127.76 199.4C127.74 199.19 127.73 198.99 127.72 198.78C127.5 198.81 127.27 198.75 127.08 198.59C126.69 198.29 126.6 197.79 126.86 197.4C127.25 196.82 127.68 196.3 128.15 195.85C128.38 195.63 128.63 195.6 128.78 195.61C129.05 195.62 129.3 195.77 129.53 196.04L130.49 197.18C130.61 197.16 130.73 197.16 130.83 197.18V196.85C130.83 196.57 130.83 195.71 131.74 195.62C132.08 195.59 132.29 195.72 132.41 195.83C132.65 196.04 132.76 196.38 132.76 196.86V197.17C133.02 197.12 133.28 197.19 133.5 197.38C133.88 197.71 133.94 198.22 133.64 198.59C133.27 199.06 132.87 199.55 132.44 200.01C132.22 200.25 131.97 200.3 131.8 200.3L131.79 200.32ZM128.65 196.78L128.7 197.81C128.71 198.02 128.72 198.22 128.72 198.43C128.72 198.48 128.72 198.53 128.72 198.58V196.88L129.23 197.25L128.77 196.7C128.77 196.7 128.76 196.69 128.75 196.68C128.72 196.71 128.68 196.75 128.65 196.78Z" fill="#0E3F41"/>
<mask id="mask13_4_563" style="mask-type:luminance" maskUnits="userSpaceOnUse" x="126" y="195" width="8" height="6">
<path d="M131.79 200.32C131.79 200.32 131.77 200.32 131.76 200.32C131.48 200.32 131.21 200.17 130.99 199.9C130.77 199.64 130.56 199.38 130.35 199.12L130.06 198.76C129.94 198.79 129.82 198.79 129.72 198.76V199.06C129.72 199.24 129.72 199.5 129.59 199.76C129.4 200.15 129.03 200.35 128.62 200.3C128.14 200.25 127.8 199.89 127.76 199.4C127.74 199.19 127.73 198.99 127.72 198.78C127.5 198.81 127.27 198.75 127.08 198.59C126.69 198.29 126.6 197.79 126.86 197.4C127.25 196.82 127.68 196.3 128.15 195.85C128.38 195.63 128.63 195.6 128.78 195.61C129.05 195.62 129.3 195.77 129.53 196.04L130.49 197.18C130.61 197.16 130.73 197.16 130.83 197.18V196.85C130.83 196.57 130.83 195.71 131.74 195.62C132.08 195.59 132.29 195.72 132.41 195.83C132.65 196.04 132.76 196.38 132.76 196.86V197.17C133.02 197.12 133.28 197.19 133.5 197.38C133.88 197.71 133.94 198.22 133.64 198.59C133.27 199.06 132.87 199.55 132.44 200.01C132.22 200.25 131.97 200.3 131.8 200.3L131.79 200.32ZM128.65 196.78L128.7 197.81C128.71 198.02 128.72 198.22 128.72 198.43C128.72 198.48 128.72 198.53 128.72 198.58V196.88L129.23 197.25L128.77 196.7C128.77 196.7 128.76 196.69 128.75 196.68C128.72 196.71 128.68 196.75 128.65 196.78Z" fill="white"/>
</mask>
<g mask="url(#mask13_4_563)">
<path d="M369.14 295.39H55.82V-17.93H369.14V295.39ZM56.82 294.39H368.14V-16.93H56.82V294.39Z" fill="#0E3F41"/>
<mask id="mask14_4_563" style="mask-type:luminance" maskUnits="userSpaceOnUse" x="55" y="-18" width="315" height="314">
<path d="M369.14 295.39H55.82V-17.93H369.14V295.39ZM56.82 294.39H368.14V-16.93H56.82V294.39Z" fill="white"/>
</mask>
<g mask="url(#mask14_4_563)">
<path d="M134.04 195.39H126.49V200.54H134.04V195.39Z" fill="#191818"/>
<path d="M134.55 201.04H126V194.89H134.55V201.04ZM126.99 200.04H133.54V195.89H126.99V200.04Z" fill="#0E3F41"/>
</g>
</g>
<path d="M80.25 180.96H78.25V64.8H120.76V66.8H80.25V180.96Z" fill="#0E3F41"/>
<path d="M138.268 74.1766L137.854 76.4288L138.591 76.5645L139.006 74.3122L138.268 74.1766Z" fill="#0E3F41"/>
<path d="M138.97 74.68L129.54 73.33L129.83 71.62L130.57 71.74L130.41 72.69L138.34 73.83L140.67 57.84L141.42 57.95L138.97 74.68Z" fill="#0E3F41"/>
<path d="M113.52 77.86H110.73V78.61H113.52V77.86Z" fill="#0E3F41"/>
<path d="M129.97 72.68H127.58V73.43H129.97V72.68Z" fill="#0E3F41"/>
<path d="M130.189 67.921L130.052 69.2942L130.799 69.3684L130.935 67.9952L130.189 67.921Z" fill="#0E3F41"/>
<path d="M117.14 225.63H113.84V226.38H117.14V225.63Z" fill="#0E3F41"/>
<path d="M122.17 225.63H119.48V226.38H122.17V225.63Z" fill="#0E3F41"/>
<path d="M121.2 226H120.45V239.59H121.2V226Z" fill="#0E3F41"/>
<path d="M129.59 226H128.84V239.42H129.59V226Z" fill="#0E3F41"/>
<path d="M137.95 239.42H137.2V226.38H136.27V225.63H137.95V239.42Z" fill="#0E3F41"/>
<path d="M154.11 222.12H125.28V219.95H126.03V221.37H153.36V197.13H154.11V222.12Z" fill="#0E3F41"/>
<path d="M126.03 215.2H125.28V217.65H126.03V215.2Z" fill="#0E3F41"/>
<path d="M134.88 215.3H125.65V216.05H134.88V215.3Z" fill="#0E3F41"/>
<path d="M126.03 209.12H125.28V212.78H126.03V209.12Z" fill="#0E3F41"/>
<path d="M134.88 200.87H125.65V201.62H134.88V200.87Z" fill="#0E3F41"/>
<path d="M135.26 195.11H134.51V221.75H135.26V195.11Z" fill="#0E3F41"/>
<path d="M144.57 221.74H143.82V208.16H141.16V202.38H141.91V207.41H144.57V221.74Z" fill="#0E3F41"/>
<path d="M142.71 202H138.44V202.75H142.71V202Z" fill="#0E3F41"/>
<path d="M150 202H144.88V202.75H150V202Z" fill="#0E3F41"/>
<path d="M147.08 202.38H146.33V207.78H147.08V202.38Z" fill="#0E3F41"/>
<path d="M146.97 207.41H141.27V208.16H146.97V207.41Z" fill="#0E3F41"/>
<path d="M108.53 77.86H103V78.61H108.53V77.86Z" fill="#0E3F41"/>
<path d="M103.77 65.8H103.02V78.24H103.77V65.8Z" fill="#0E3F41"/>
<path d="M112.49 65.8H111.74V78.24H112.49V65.8Z" fill="#0E3F41"/>
<path d="M121.27 78.61H115.59V77.86H120.52V67.96H121.27V78.61Z" fill="#0E3F41"/>
<path d="M329.38 185.39H328.63V180.01H342.1V180.76H329.38V185.39Z" fill="#0E3F41"/>
<path d="M329.38 187.69H328.63V193.8H329.38V187.69Z" fill="#0E3F41"/>
<path d="M329.38 195.87H328.63V198.63H329.38V195.87Z" fill="#0E3F41"/>
<path d="M325.06 222.75H316.55V209.61H312.38V208.86H321.5V209.61H317.3V222H325.06V222.75Z" fill="#0E3F41"/>
<path d="M316.92 222.75H308.33V209.61H307.32V208.86H310.17V209.61H309.08V222H316.92V222.75Z" fill="#0E3F41"/>
<path d="M306.96 222.25H300.19V208.86H305.21V209.61H300.94V221.5H306.96V222.25Z" fill="#0E3F41"/>
<path d="M342.1 188.65H329.01V189.4H342.1V188.65Z" fill="#0E3F41"/>
<path d="M307.55 225.72H304.22V226.47H307.55V225.72Z" fill="#0E3F41"/>
<path d="M300.92 239.52H292.13V226.47H287.85V225.72H297.05V226.47H292.88V238.77H300.17V226.47H299.19V225.72H301.91V226.47H300.92V239.52Z" fill="#0E3F41"/>
<path d="M284.69 239.52H251.36V225.5L252.11 225.5V225.72H256.29V226.47H252.11V238.77H259.43V226.47H258.46V225.72H264.49V226.47H260.18V238.77H267.66V226.47H266.59V225.72H269.42V226.47H268.41V238.77H275.76V226.47H271.48V225.72H280.75V226.47H276.51V238.77H283.94V226.47H282.96V225.72H285.68V226.47H284.69V239.52Z" fill="#0E3F41"/>
<path d="M242.82 224.72H242.07V239.15H242.82V224.72Z" fill="#0E3F41"/>
<path d="M242.45 225.77H230.73V226.52H242.45V225.77Z" fill="#0E3F41"/>
<path d="M227.57 239.38H226.82V225.77H227.57H228.52V226.52H227.57V239.38Z" fill="#0E3F41"/>
<path d="M126.69 225.63H121.59V226.38H126.69V225.63Z" fill="#0E3F41"/>
<path d="M134 225.63H128.76V226.38H134V225.63Z" fill="#0E3F41"/>
<path d="M138.88 225.63H137.57V226.38H138.88V225.63Z" fill="#0E3F41"/>
<path d="M170.41 239.6H145.23V226.38H140.99V225.63H150.33V226.38H145.98V238.85H153.42V226.38H152.3V225.63H155.11V226.38H154.17V238.85H161.55V226.38H157.33V225.63H166.59V226.38H162.3V238.85H169.66V226.38H168.66V225.63H171.49V226.38H170.41V239.6Z" fill="#0E3F41"/>
<path d="M182.96 225.63H173.66V226.38H182.96V225.63Z" fill="#0E3F41"/>
<path d="M286.06 190.87H274.61V190.12H285.31V186.99H294.54V183.6H295.29V187.74H286.06V190.87Z" fill="#0E3F41"/>
<path d="M286.92 180.01H280.44V180.76H286.92V180.01Z" fill="#0E3F41"/>
<path d="M295.29 181.44H294.54V180.76H288.99V180.01H295.29V181.44Z" fill="#0E3F41"/>
<path d="M291.34 180.39H290.59V187.37H291.34V180.39Z" fill="#0E3F41"/>
<path d="M285.62 204H284.23V203.338H284.87V190.49H285.62V204Z" fill="#0E3F41"/>
<path d="M294.44 200.41H293.69V198.42H285.25V197.67H294.44V200.41Z" fill="#0E3F41"/>
<path d="M135.26 194.86H132.41V195.61H135.26V194.86Z" fill="#0E3F41"/>
<path d="M126.03 206.72H125.28V194.84H129.68V195.59H126.03V206.72Z" fill="#0E3F41"/>
<path d="M292.95 196.12H292.2V198.05H292.95V196.12Z" fill="#0E3F41"/>
<path d="M292.95 189.99H292.2V193.92H292.95V189.99Z" fill="#0E3F41"/>
<path d="M292.95 187.37H292.2V187.91H292.95V187.37Z" fill="#0E3F41"/>
<path d="M292.57 191.69H285.25V192.44H292.57V191.69Z" fill="#0E3F41"/>
<path fill-rule="evenodd" clip-rule="evenodd" d="M289.44 190.31V191.56C289.44 191.56 289.44 191.62 289.43 191.65C289.39 191.74 289.3 191.78 289.21 191.74C289.14 191.72 289.11 191.66 289.1 191.59C289.1 191.53 289.1 191.47 289.1 191.41C289.1 191.14 289.1 190.86 289.1 190.59C289.1 190.43 289.1 190.28 289.1 190.12C289.1 190.11 289.1 190.1 289.1 190.08C289.1 190.06 289.08 190.04 289.05 190.04C289.02 190.04 289 190.05 288.99 190.07C288.99 190.08 288.99 190.1 288.99 190.11C288.99 190.6 288.99 191.08 288.99 191.57C288.99 191.62 288.99 191.66 288.95 191.7C288.9 191.75 288.84 191.77 288.78 191.75C288.71 191.74 288.67 191.69 288.65 191.63C288.65 191.61 288.65 191.59 288.65 191.56C288.65 191.22 288.65 190.89 288.65 190.55C288.65 190.05 288.65 189.55 288.65 189.05C288.65 189.01 288.65 189 288.61 188.99C288.58 188.98 288.54 188.99 288.52 189.02V189.04C288.52 189.22 288.52 189.4 288.52 189.58C288.52 189.71 288.52 189.84 288.52 189.98C288.52 190.03 288.5 190.07 288.45 190.1C288.4 190.12 288.35 190.1 288.31 190.07C288.29 190.05 288.28 190.02 288.28 189.99C288.28 189.65 288.28 189.32 288.28 188.98C288.28 188.89 288.3 188.81 288.35 188.73C288.43 188.6 288.56 188.52 288.71 188.51C288.91 188.51 289.12 188.51 289.32 188.51C289.53 188.51 289.73 188.68 289.78 188.88C289.79 188.93 289.8 188.97 289.8 189.02C289.8 189.33 289.8 189.65 289.8 189.96C289.8 190.03 289.77 190.06 289.72 190.08C289.64 190.1 289.57 190.05 289.57 189.98C289.57 189.98 289.57 189.96 289.57 189.95C289.57 189.64 289.57 189.34 289.57 189.03C289.57 188.98 289.53 188.96 289.5 188.97C289.47 188.97 289.46 188.99 289.46 189.02V190.29L289.44 190.31Z" fill="#5B629C"/>
<mask id="mask15_4_563" style="mask-type:luminance" maskUnits="userSpaceOnUse" x="288" y="188" width="2" height="4">
<path d="M289.44 190.31V191.56C289.44 191.56 289.44 191.62 289.43 191.65C289.39 191.74 289.3 191.78 289.21 191.74C289.14 191.72 289.11 191.66 289.1 191.59C289.1 191.53 289.1 191.47 289.1 191.41C289.1 191.14 289.1 190.86 289.1 190.59C289.1 190.43 289.1 190.28 289.1 190.12C289.1 190.11 289.1 190.1 289.1 190.08C289.1 190.06 289.08 190.04 289.05 190.04C289.02 190.04 289 190.05 288.99 190.07C288.99 190.08 288.99 190.1 288.99 190.11C288.99 190.6 288.99 191.08 288.99 191.57C288.99 191.62 288.99 191.66 288.95 191.7C288.9 191.75 288.84 191.77 288.78 191.75C288.71 191.74 288.67 191.69 288.65 191.63C288.65 191.61 288.65 191.59 288.65 191.56C288.65 191.22 288.65 190.89 288.65 190.55C288.65 190.05 288.65 189.55 288.65 189.05C288.65 189.01 288.65 189 288.61 188.99C288.58 188.98 288.54 188.99 288.52 189.02V189.04C288.52 189.22 288.52 189.4 288.52 189.58C288.52 189.71 288.52 189.84 288.52 189.98C288.52 190.03 288.5 190.07 288.45 190.1C288.4 190.12 288.35 190.1 288.31 190.07C288.29 190.05 288.28 190.02 288.28 189.99C288.28 189.65 288.28 189.32 288.28 188.98C288.28 188.89 288.3 188.81 288.35 188.73C288.43 188.6 288.56 188.52 288.71 188.51C288.91 188.51 289.12 188.51 289.32 188.51C289.53 188.51 289.73 188.68 289.78 188.88C289.79 188.93 289.8 188.97 289.8 189.02C289.8 189.33 289.8 189.65 289.8 189.96C289.8 190.03 289.77 190.06 289.72 190.08C289.64 190.1 289.57 190.05 289.57 189.98C289.57 189.98 289.57 189.96 289.57 189.95C289.57 189.64 289.57 189.34 289.57 189.03C289.57 188.98 289.53 188.96 289.5 188.97C289.47 188.97 289.46 188.99 289.46 189.02V190.29L289.44 190.31Z" fill="white"/>
</mask>
<g mask="url(#mask15_4_563)">
<path d="M368.64 -17.43H56.3201V294.89H368.64V-17.43Z" fill="#5B629C"/>
<mask id="mask16_4_563" style="mask-type:luminance" maskUnits="userSpaceOnUse" x="56" y="-18" width="313" height="313">
<path d="M368.64 -17.43H56.3201V294.89H368.64V-17.43Z" fill="white"/>
</mask>
<g mask="url(#mask16_4_563)">
<path d="M290.51 187.78H287.55V192.47H290.51V187.78Z" fill="#5B629C"/>
</g>
</g>
<path fill-rule="evenodd" clip-rule="evenodd" d="M289.03 187.76C289.2 187.76 289.35 187.9 289.35 188.08C289.35 188.25 289.21 188.4 289.03 188.4C288.85 188.4 288.71 188.27 288.71 188.08C288.71 187.9 288.85 187.76 289.03 187.76Z" fill="#5B629C"/>
<mask id="mask17_4_563" style="mask-type:luminance" maskUnits="userSpaceOnUse" x="288" y="187" width="2" height="2">
<path d="M289.03 187.76C289.2 187.76 289.35 187.9 289.35 188.08C289.35 188.25 289.21 188.4 289.03 188.4C288.85 188.4 288.71 188.27 288.71 188.08C288.71 187.9 288.85 187.76 289.03 187.76Z" fill="white"/>
</mask>
<g mask="url(#mask17_4_563)">
<path d="M368.64 -17.43H56.3199V294.89H368.64V-17.43Z" fill="#5B629C"/>
<mask id="mask18_4_563" style="mask-type:luminance" maskUnits="userSpaceOnUse" x="56" y="-18" width="313" height="313">
<path d="M368.64 -17.43H56.3199V294.89H368.64V-17.43Z" fill="white"/>
</mask>
<g mask="url(#mask18_4_563)">
<path d="M290.07 187.04H287.99V189.12H290.07V187.04Z" fill="#5B629C"/>
</g>
</g>
<path fill-rule="evenodd" clip-rule="evenodd" d="M289.36 196.51C289.36 196.68 289.36 196.86 289.36 197.03C289.36 197.08 289.34 197.13 289.29 197.15C289.24 197.18 289.19 197.18 289.14 197.15C289.09 197.12 289.07 197.08 289.07 197.02C289.07 196.68 289.07 196.35 289.07 196.01C289.07 196.01 289.07 195.99 289.07 195.98C289.07 195.95 289.05 195.94 289.02 195.94C288.99 195.94 288.97 195.96 288.97 195.99V197.01C288.97 197.06 288.97 197.11 288.92 197.14C288.87 197.18 288.81 197.18 288.76 197.16C288.7 197.13 288.68 197.08 288.68 197.03C288.68 197.03 288.68 197.01 288.68 197V195.99C288.68 195.99 288.68 195.96 288.65 195.96H288.29C288.29 195.96 288.26 195.96 288.27 195.94C288.3 195.84 288.33 195.74 288.36 195.64C288.41 195.49 288.45 195.34 288.5 195.19C288.54 195.07 288.58 194.94 288.62 194.82C288.66 194.69 288.7 194.57 288.73 194.44C288.73 194.41 288.73 194.38 288.7 194.37C288.67 194.37 288.64 194.37 288.63 194.41C288.61 194.48 288.59 194.55 288.56 194.62C288.5 194.79 288.45 194.96 288.4 195.13C288.38 195.2 288.35 195.28 288.33 195.35C288.31 195.43 288.25 195.45 288.17 195.42C288.12 195.4 288.09 195.34 288.11 195.29C288.16 195.13 288.21 194.97 288.26 194.81C288.32 194.62 288.38 194.43 288.43 194.24C288.47 194.09 288.6 193.99 288.75 193.97C288.78 193.97 288.8 193.97 288.83 193.97C289 193.97 289.16 193.97 289.33 193.97C289.42 193.97 289.5 193.99 289.58 194.05C289.65 194.11 289.69 194.18 289.71 194.26C289.77 194.48 289.83 194.71 289.89 194.93C289.92 195.05 289.96 195.18 289.99 195.31C290.01 195.37 289.96 195.44 289.9 195.44C289.84 195.44 289.79 195.42 289.78 195.36C289.73 195.19 289.68 195.01 289.63 194.83C289.6 194.72 289.57 194.61 289.53 194.49C289.53 194.46 289.52 194.43 289.51 194.41C289.51 194.38 289.48 194.37 289.45 194.38C289.42 194.38 289.41 194.41 289.42 194.44C289.46 194.59 289.5 194.74 289.53 194.89C289.57 195.06 289.61 195.22 289.66 195.39C289.71 195.58 289.76 195.78 289.81 195.97C289.81 195.99 289.81 195.99 289.79 195.99C289.66 195.99 289.53 195.99 289.41 195.99C289.38 195.99 289.38 195.99 289.38 196.02V196.54L289.36 196.51Z" fill="#5B629C"/>
<mask id="mask19_4_563" style="mask-type:luminance" maskUnits="userSpaceOnUse" x="288" y="193" width="2" height="5">
<path d="M289.36 196.51C289.36 196.68 289.36 196.86 289.36 197.03C289.36 197.08 289.34 197.13 289.29 197.15C289.24 197.18 289.19 197.18 289.14 197.15C289.09 197.12 289.07 197.08 289.07 197.02C289.07 196.68 289.07 196.35 289.07 196.01C289.07 196.01 289.07 195.99 289.07 195.98C289.07 195.95 289.05 195.94 289.02 195.94C288.99 195.94 288.97 195.96 288.97 195.99V197.01C288.97 197.06 288.97 197.11 288.92 197.14C288.87 197.18 288.81 197.18 288.76 197.16C288.7 197.13 288.68 197.08 288.68 197.03C288.68 197.03 288.68 197.01 288.68 197V195.99C288.68 195.99 288.68 195.96 288.65 195.96H288.29C288.29 195.96 288.26 195.96 288.27 195.94C288.3 195.84 288.33 195.74 288.36 195.64C288.41 195.49 288.45 195.34 288.5 195.19C288.54 195.07 288.58 194.94 288.62 194.82C288.66 194.69 288.7 194.57 288.73 194.44C288.73 194.41 288.73 194.38 288.7 194.37C288.67 194.37 288.64 194.37 288.63 194.41C288.61 194.48 288.59 194.55 288.56 194.62C288.5 194.79 288.45 194.96 288.4 195.13C288.38 195.2 288.35 195.28 288.33 195.35C288.31 195.43 288.25 195.45 288.17 195.42C288.12 195.4 288.09 195.34 288.11 195.29C288.16 195.13 288.21 194.97 288.26 194.81C288.32 194.62 288.38 194.43 288.43 194.24C288.47 194.09 288.6 193.99 288.75 193.97C288.78 193.97 288.8 193.97 288.83 193.97C289 193.97 289.16 193.97 289.33 193.97C289.42 193.97 289.5 193.99 289.58 194.05C289.65 194.11 289.69 194.18 289.71 194.26C289.77 194.48 289.83 194.71 289.89 194.93C289.92 195.05 289.96 195.18 289.99 195.31C290.01 195.37 289.96 195.44 289.9 195.44C289.84 195.44 289.79 195.42 289.78 195.36C289.73 195.19 289.68 195.01 289.63 194.83C289.6 194.72 289.57 194.61 289.53 194.49C289.53 194.46 289.52 194.43 289.51 194.41C289.51 194.38 289.48 194.37 289.45 194.38C289.42 194.38 289.41 194.41 289.42 194.44C289.46 194.59 289.5 194.74 289.53 194.89C289.57 195.06 289.61 195.22 289.66 195.39C289.71 195.58 289.76 195.78 289.81 195.97C289.81 195.99 289.81 195.99 289.79 195.99C289.66 195.99 289.53 195.99 289.41 195.99C289.38 195.99 289.38 195.99 289.38 196.02V196.54L289.36 196.51Z" fill="white"/>
</mask>
<g mask="url(#mask19_4_563)">
<path d="M368.64 -17.43H56.3201V294.89H368.64V-17.43Z" fill="#5B629C"/>
<mask id="mask20_4_563" style="mask-type:luminance" maskUnits="userSpaceOnUse" x="56" y="-18" width="313" height="313">
<path d="M368.64 -17.43H56.3201V294.89H368.64V-17.43Z" fill="white"/>
</mask>
<g mask="url(#mask20_4_563)">
<path d="M290.71 193.23H287.38V197.91H290.71V193.23Z" fill="#5B629C"/>
</g>
</g>
<path fill-rule="evenodd" clip-rule="evenodd" d="M288.74 193.51C288.74 193.34 288.88 193.19 289.06 193.19C289.24 193.19 289.38 193.34 289.38 193.52C289.38 193.7 289.23 193.84 289.06 193.84C288.89 193.84 288.74 193.7 288.74 193.52" fill="#5B629C"/>
<mask id="mask21_4_563" style="mask-type:luminance" maskUnits="userSpaceOnUse" x="288" y="193" width="2" height="1">
<path d="M288.74 193.51C288.74 193.34 288.88 193.19 289.06 193.19C289.24 193.19 289.38 193.34 289.38 193.52C289.38 193.7 289.23 193.84 289.06 193.84C288.89 193.84 288.74 193.7 288.74 193.52" fill="white"/>
</mask>
<g mask="url(#mask21_4_563)">
<path d="M368.64 -17.43H56.32V294.89H368.64V-17.43Z" fill="#5B629C"/>
<mask id="mask22_4_563" style="mask-type:luminance" maskUnits="userSpaceOnUse" x="56" y="-18" width="313" height="313">
<path d="M368.64 -17.43H56.32V294.89H368.64V-17.43Z" fill="white"/>
</mask>
<g mask="url(#mask22_4_563)">
<path d="M290.11 192.47H288.02V194.56H290.11V192.47Z" fill="#5B629C"/>
</g>
</g>
<path d="M121.96 209.37H83V208.62H121.21V197.57H119.46V196.82H121.96V209.37Z" fill="#0E3F41"/>
<path d="M121.96 208.43H121.21V222H121.96V208.43Z" fill="#0E3F41"/>
<path d="M96 189.51L95.81 188.78C97.82 188.25 102.51 187.04 103.11 187.04H103.13L103.08 187.79C102.66 187.79 98.51 188.84 96 189.5V189.51Z" fill="#0E3F41"/>
<path d="M109.17 186.78L109.12 186.03C110.04 185.97 118.08 185.45 119.17 185.69L119 186.42C118.26 186.25 112.72 186.54 109.17 186.77V186.78Z" fill="#0E3F41"/>
<path d="M107.055 186.381L105.686 186.553L105.78 187.297L107.149 187.125L107.055 186.381Z" fill="#0E3F41"/>
<path d="M106.806 186.689L106.063 186.791L107.106 194.379L107.849 194.277L106.806 186.689Z" fill="#0E3F41"/>
<path d="M96.74 197.15H95.99V200.65H96.74V197.15Z" fill="#0E3F41"/>
<path d="M203.08 191.4H201.12V190.65H202.33V178.71H194.95V190.65H198.98V191.4H190.02V190.65H194.2V177.96H203.08V191.4Z" fill="#0E3F41"/>
<path d="M188 191.4H184.79V190.65H186.02V178.71H178.63V190.65H182.72V191.4H173.85V190.65H177.88V177.96H194.57V178.71H186.77V190.65H188V191.4Z" fill="#0E3F41"/>
<path d="M178.26 177.96H144.88V178.71H178.26V177.96Z" fill="#0E3F41"/>
<path d="M133.74 183.05L133.65 182.31L141.16 181.34V177.96H143.11V178.71H141.91V182L133.74 183.05Z" fill="#0E3F41"/>
<path d="M171.69 191.55H168.57V190.8H169.7V178.5H170.45V190.8H171.69V191.55Z" fill="#0E3F41"/>
<path d="M166.41 191.4H157.45V190.65H161.62V190.4H162.37V190.65H166.41V191.4Z" fill="#0E3F41"/>
<path d="M155.38 191.4H153.36V177.96H162.3V188.33H161.55V178.71H154.11V190.65H155.38V191.4Z" fill="#0E3F41"/>
<path d="M129.31 183.87L125.7 164.6L125.69 163.11H126.44V164.53L129.9 182.97L131.41 182.64L131.57 183.37L129.31 183.87Z" fill="#0E3F41"/>
<path d="M126.44 161H125.69V155.94H126.53V156.69H126.44V161Z" fill="#0E3F41"/>
<path d="M139.68 165.05H126.07V164.3H138.93V156.69H128.78V155.94H139.68V165.05Z" fill="#0E3F41"/>
<path d="M126.44 151.67H125.69V156.31H126.44V151.67Z" fill="#0E3F41"/>
<path d="M141.88 178.34H141.13V164.17H139.3V163.42H141.88V178.34Z" fill="#0E3F41"/>
<path d="M139.68 157.46H138.93V148.62H126.44V149.78H125.69V146.71H126.44V147.87H139.68V157.46Z" fill="#0E3F41"/>
<path d="M128.6 68.96H119.9V66.8H117.94V64.8H121.9V66.96H128.6V68.96Z" fill="#0E3F41"/>
<path d="M138.59 80.83L136.77 80.6L136.82 79.85H137.32L137.46 78.71L138.2 78.8L138.05 80L138.68 80.08L138.59 80.83Z" fill="#0E3F41"/>
<path d="M139.25 90.74H128.73V91.49H139.25V90.74Z" fill="#0E3F41"/>
<path d="M126.44 95.8H125.69V86.38H126.44V90.74H126.62V91.49H126.44V95.8Z" fill="#0E3F41"/>
<path d="M126.44 84.27H125.69V82.7H139.07V83.45H126.44V84.27Z" fill="#0E3F41"/>
<path d="M96.74 195.65H95.99V209H96.74V195.65Z" fill="#0E3F41"/>
<path d="M117.39 193.01C117.12 190.78 116.43 186.12 116.43 186.08L117.17 185.97C117.17 185.97 117.86 190.68 118.14 192.92L117.4 193.01H117.39Z" fill="#0E3F41"/>
<path d="M126.44 144.71H125.69V135.37H126.44V139.66H139.06V140.41H126.44V144.71Z" fill="#0E3F41"/>
<path d="M126.44 133.19H125.69V130.44H126.44V131.66H139.3V132.41H126.44V133.19Z" fill="#0E3F41"/>
<path d="M126.44 128.34H125.69V119.14H126.44V123.37H138.93V115.97H126.44V117.11H125.69V114.21H126.44V115.22H139.68V124.12H126.44V128.34Z" fill="#0E3F41"/>
<path d="M126.44 112.04H125.69V102.77H126.44V107.03H138.88V99.67H126.44V100.74H125.69V97.81H126.44V98.92H139.63V107.78H126.44V112.04Z" fill="#0E3F41"/>
<path d="M274.973 146.683L274.253 146.892L281.7 172.66L282.42 172.452L274.973 146.683Z" fill="#0E3F41"/>
<path d="M282.853 174.677L282.132 174.885L282.468 176.047L283.188 175.839L282.853 174.677Z" fill="#0E3F41"/>
<path d="M281.67 170.809L281.461 170.089L263.993 175.137L264.201 175.858L281.67 170.809Z" fill="#0E3F41"/>
<path d="M260.395 170.559L260.187 169.839L255.257 171.264L255.465 171.984L260.395 170.559Z" fill="#0E3F41"/>
<path d="M262.992 170.965L262.783 170.244L260 171.049L260.208 171.769L262.992 170.965Z" fill="#0E3F41"/>
<path d="M300.632 170.822L300.424 170.102L282.291 175.342L282.499 176.063L300.632 170.822Z" fill="#0E3F41"/>
<path d="M325.282 168.634L325.074 167.914L301.404 174.755L301.612 175.475L325.282 168.634Z" fill="#0E3F41"/>
<path d="M326.537 165.819L326.329 165.099L323.808 165.827L324.016 166.548L326.537 165.819Z" fill="#0E3F41"/>
<path d="M256.721 157L256 157.208L260.091 171.363L260.811 171.155L256.721 157Z" fill="#0E3F41"/>
<path d="M263.216 170.095L262.495 170.303L263.091 172.363L263.811 172.155L263.216 170.095Z" fill="#0E3F41"/>
<path d="M293.721 146L293 146.208L300.447 171.976L301.168 171.768L293.721 146Z" fill="#0E3F41"/>
<path d="M301.969 174.078L301.248 174.287L301.447 174.976L302.168 174.768L301.969 174.078Z" fill="#0E3F41"/>
<path d="M313.398 147.646L312.678 147.855L319.084 169.976L319.804 169.768L313.398 147.646Z" fill="#0E3F41"/>
<path d="M322.556 159.244L321.835 159.453L324.406 168.33L325.126 168.122L322.556 159.244Z" fill="#0E3F41"/>
<path d="M329.92 167.83L328.85 162.07L341.2 159.58L341.35 160.32L329.72 162.66L330.66 167.69L329.92 167.83Z" fill="#0E3F41"/>
<path d="M330.69 171.91L330.35 170.12L331.09 169.99L331.28 171L340.14 168.96L340.31 169.69L330.69 171.91Z" fill="#0E3F41"/>
<path d="M219.9 181.24L219.42 180.67C219.59 180.52 237.12 166 258.53 171.98L258.33 172.7C237.29 166.82 220.08 181.09 219.91 181.24H219.9Z" fill="#0E3F41"/>
<path d="M227.89 189.22L221.6 179.49L222.24 179.08L228.52 188.82L227.89 189.22Z" fill="#0E3F41"/>
<path d="M251.45 171.03H250.7V185.64H251.45V171.03Z" fill="#0E3F41"/>
<path d="M232.32 189.74C228.78 189.74 226.48 189.4 226.42 189.39L226.54 188.65C226.68 188.67 240.7 190.76 252.91 184.41L253.26 185.08C245.78 188.96 237.65 189.74 232.32 189.74Z" fill="#0E3F41"/>
<path d="M225.3 184.44L224.82 183.86C224.92 183.78 235.14 175.55 251.1 176.58L251.05 177.33C235.39 176.32 225.39 184.36 225.3 184.44Z" fill="#0E3F41"/>
<path d="M310.53 240.15H110.73V227.14H76.41V179.13H79.25V181.13H78.41V225.14H112.73V238.15H308.53V227.24H306.55V221.38H341.1V181.38H340.17V179.38H343.1V223.38H308.55V225.24H310.53V240.15Z" fill="#0E3F41"/>
<path d="M310.53 240.15H110.73V227.14H76.41V179.13H79.25V181.13H78.41V225.14H112.73V238.15H308.53V227.24H306.55V221.38H341.1V181.38H340.17V179.38H343.1V223.38H308.55V225.24H310.53V240.15Z" fill="#0E3F41"/>
<path d="M310.53 240.15H110.73V227.14H76.41V179.13H79.25V181.13H78.41V225.14H112.73V238.15H308.53V227.24H306.55V221.38H341.1V181.38H340.17V179.38H343.1V223.38H308.55V225.24H310.53V240.15Z" fill="#0E3F41"/>
<path d="M209.77 179.2H140.44V165H138.25V79.26L152.46 81.26L155.35 61.04L154.68 60.97L140.35 59.4L141.09 53.03L133.77 52.09L131.49 68.97H127.86V66.97H129.75L132.06 49.85L143.3 51.3L142.57 57.63L157.62 59.26L154.16 83.51L140.25 81.56V163H142.44V177.2H207.08L205.1 170.69L255.28 156.45L254.42 154.14L292.51 138.83L294.1 143.87L311.21 137.1L313.85 146.23L331.41 139.06L337.41 160.36L335.49 160.9L330.09 141.76L312.55 148.93L309.9 139.77L292.84 146.52L291.25 141.49L256.98 155.27L257.91 157.78L207.61 172.06L209.77 179.2Z" fill="#0E3F41"/>
<path d="M342.1 181.38H339.65V171.1H341.65V179.38H342.1V181.38Z" fill="#0E3F41"/>
<path d="M335.71 162.1L334.96 159.01L336.9 158.54L337.19 159.74L350.3 156.97L350.71 158.93L335.71 162.1Z" fill="#0E3F41"/>
<path d="M341.65 172.66H339.65V168.53L351.52 165.75L350.03 159.07L347.82 159.54L347.4 157.58L351.54 156.7L353.91 167.24L341.65 170.12V172.66Z" fill="#0E3F41"/>
<path d="M223.01 180.69L222.59 180.07C222.73 179.98 236.72 170.68 251.45 172.05L251.38 172.8C236.94 171.45 223.15 180.6 223.01 180.7V180.69Z" fill="#0E3F41"/>
<path d="M246.731 172.293L246.431 172.308L246.672 177.142L246.971 177.127L246.731 172.293Z" fill="#0E3F41"/>
<path d="M245.95 177.2L245.79 172.37L246.09 172.36L246.25 177.19L245.95 177.2Z" fill="#0E3F41"/>
<path d="M245.254 172.435L244.954 172.449L245.192 177.264L245.492 177.249L245.254 172.435Z" fill="#0E3F41"/>
<path d="M244.489 172.504L244.19 172.527L244.55 177.323L244.849 177.301L244.489 172.504Z" fill="#0E3F41"/>
<path d="M226.11 183.87L223.45 179.97L223.7 179.8L226.36 183.7L226.11 183.87Z" fill="#0E3F41"/>
<path d="M224.404 179.393L224.153 179.556L226.688 183.477L226.94 183.315L224.404 179.393Z" fill="#0E3F41"/>
<path d="M227.22 182.94L224.78 179.19L225.03 179.02L227.47 182.78L227.22 182.94Z" fill="#0E3F41"/>
<path d="M227.91 182.71L225.55 178.75L225.8 178.6L228.16 182.55L227.91 182.71Z" fill="#0E3F41"/>
<path d="M226.439 178.278L226.18 178.43L228.511 182.373L228.769 182.22L226.439 178.278Z" fill="#0E3F41"/>
<path d="M229.12 182.01L226.87 178.05L227.13 177.9L229.39 181.86L229.12 182.01Z" fill="#0E3F41"/>
<path d="M227.824 177.546L227.56 177.689L229.728 181.678L229.992 181.535L227.824 177.546Z" fill="#0E3F41"/>
<path d="M228.498 177.26L228.232 177.398L230.267 181.3L230.533 181.161L228.498 177.26Z" fill="#0E3F41"/>
<path d="M229.272 176.855L229.002 176.986L230.906 180.93L231.176 180.8L229.272 176.855Z" fill="#0E3F41"/>
<path d="M229.987 176.55L229.716 176.678L231.62 180.711L231.891 180.583L229.987 176.55Z" fill="#0E3F41"/>
<path d="M232.24 180.36L230.47 176.39L230.74 176.27L232.51 180.24L232.24 180.36Z" fill="#0E3F41"/>
<path d="M231.381 175.965L231.105 176.082L232.781 180.021L233.057 179.903L231.381 175.965Z" fill="#0E3F41"/>
<path d="M232.103 175.667L231.825 175.779L233.403 179.682L233.681 179.57L232.103 175.667Z" fill="#0E3F41"/>
<path d="M232.811 175.402L232.534 175.516L234.151 179.447L234.429 179.332L232.811 175.402Z" fill="#0E3F41"/>
<path d="M235.74 178.9L235.31 174.48L235.61 174.45L236.04 178.87L235.74 178.9Z" fill="#0E3F41"/>
<path d="M243.673 172.591L243.374 172.623L243.86 177.127L244.159 177.094L243.673 172.591Z" fill="#0E3F41"/>
<path d="M242.919 172.701L242.621 172.738L243.183 177.213L243.481 177.176L242.919 172.701Z" fill="#0E3F41"/>
<path d="M242.082 172.846L241.785 172.893L242.491 177.348L242.787 177.301L242.082 172.846Z" fill="#0E3F41"/>
<path d="M241.277 172.977L240.982 173.031L241.787 177.448L242.082 177.395L241.277 172.977Z" fill="#0E3F41"/>
<path d="M241.09 177.61L240.19 173.19L240.49 173.13L241.39 177.55L241.09 177.61Z" fill="#0E3F41"/>
<path d="M239.731 173.301L239.438 173.366L240.391 177.722L240.685 177.658L239.731 173.301Z" fill="#0E3F41"/>
<path d="M238.956 173.469L238.664 173.541L239.721 177.873L240.013 177.802L238.956 173.469Z" fill="#0E3F41"/>
<path d="M238.11 173.679L237.822 173.762L239.059 178.027L239.347 177.943L238.11 173.679Z" fill="#0E3F41"/>
<path d="M237.489 173.863L237.199 173.939L238.318 178.205L238.608 178.129L237.489 173.863Z" fill="#0E3F41"/>
<path d="M338.23 169.63L337.34 165.59L347.4 163.43L347.33 162.97L337.64 165.05L337.48 164.32L347.94 162.07L348.26 164.01L338.24 166.17L338.96 169.47L338.23 169.63Z" fill="#0E3F41"/>
<path d="M339.25 169.45L338.45 165.78L338.74 165.71L339.54 169.39L339.25 169.45Z" fill="#0E3F41"/>
<path d="M339.83 169.15L339.02 165.48L339.32 165.41L340.12 169.09L339.83 169.15Z" fill="#0E3F41"/>
<path d="M340.63 169.02L339.83 165.34L340.12 165.28L340.92 168.95L340.63 169.02Z" fill="#0E3F41"/>
<path d="M341.25 168.93L340.45 165.25L340.74 165.19L341.55 168.86L341.25 168.93Z" fill="#0E3F41"/>
<path d="M341.88 168.82L341.08 165.15L341.37 165.08L342.17 168.76L341.88 168.82Z" fill="#0E3F41"/>
<path d="M342.59 168.62L341.78 164.95L342.08 164.88L342.88 168.56L342.59 168.62Z" fill="#0E3F41"/>
<path d="M343.25 168.48L342.45 164.8L342.74 164.74L343.54 168.42L343.25 168.48Z" fill="#0E3F41"/>
<path d="M344.05 168.39L343.25 164.72L343.54 164.65L344.35 168.33L344.05 168.39Z" fill="#0E3F41"/>
<path d="M344.86 168.26L344.05 164.58L344.35 164.52L345.15 168.2L344.86 168.26Z" fill="#0E3F41"/>
<path d="M345.43 167.96L344.63 164.28L344.92 164.22L345.73 167.9L345.43 167.96Z" fill="#0E3F41"/>
<path d="M346.24 167.83L345.43 164.15L345.73 164.09L346.53 167.76L346.24 167.83Z" fill="#0E3F41"/>
<path d="M346.86 167.74L346.06 164.06L346.35 164L347.15 167.67L346.86 167.74Z" fill="#0E3F41"/>
<path d="M347.49 167.63L346.68 163.96L346.97 163.89L347.78 167.57L347.49 167.63Z" fill="#0E3F41"/>
<path d="M337.711 160.805L337.417 160.866L338.179 164.538L338.472 164.477L337.711 160.805Z" fill="#0E3F41"/>
<path d="M338.85 164.41L338.08 160.62L338.38 160.56L339.14 164.35L338.85 164.41Z" fill="#0E3F41"/>
<path d="M338.956 160.379L338.664 160.445L339.525 164.289L339.818 164.224L338.956 160.379Z" fill="#0E3F41"/>
<path d="M339.718 160.168L339.424 160.231L340.228 164.016L340.522 163.954L339.718 160.168Z" fill="#0E3F41"/>
<path d="M340.364 160.306L340.071 160.366L340.832 164.038L341.125 163.977L340.364 160.306Z" fill="#0E3F41"/>
<path d="M341.5 163.91L340.74 160.13L341.03 160.07L341.8 163.85L341.5 163.91Z" fill="#0E3F41"/>
<path d="M341.625 159.889L341.332 159.955L342.194 163.799L342.486 163.734L341.625 159.889Z" fill="#0E3F41"/>
<path d="M342.88 163.56L342.08 159.77L342.37 159.71L343.18 163.5L342.88 163.56Z" fill="#0E3F41"/>
<path d="M343.146 159.518L342.852 159.579L343.614 163.251L343.907 163.19L343.146 159.518Z" fill="#0E3F41"/>
<path d="M344.28 163.12L343.52 159.34L343.81 159.28L344.58 163.06L344.28 163.12Z" fill="#0E3F41"/>
<path d="M344.403 159.091L344.11 159.156L344.971 163.001L345.264 162.935L344.403 159.091Z" fill="#0E3F41"/>
<path d="M345.163 158.886L344.87 158.949L345.674 162.734L345.967 162.672L345.163 158.886Z" fill="#0E3F41"/>
<path d="M345.802 159.02L345.508 159.081L346.269 162.753L346.563 162.692L345.802 159.02Z" fill="#0E3F41"/>
<path d="M346.94 162.63L346.17 158.84L346.47 158.78L347.23 162.57L346.94 162.63Z" fill="#0E3F41"/>
<path d="M136.48 66.56L135.74 66.48L136.73 56.62L136.28 56.55L135.28 66.41L134.53 66.33L135.61 55.69L137.55 55.99L136.48 66.56Z" fill="#0E3F41"/>
<path d="M136.254 65.5722L136.225 65.8708L139.967 66.2351L139.996 65.9365L136.254 65.5722Z" fill="#0E3F41"/>
<path d="M136.136 64.9207L136.107 65.2193L139.849 65.5836L139.878 65.285L136.136 64.9207Z" fill="#0E3F41"/>
<path d="M136.252 64.1128L136.223 64.4114L139.966 64.7757L139.995 64.4771L136.252 64.1128Z" fill="#0E3F41"/>
<path d="M136.355 63.4932L136.326 63.7918L140.068 64.1561L140.097 63.8575L136.355 63.4932Z" fill="#0E3F41"/>
<path d="M136.45 62.8756L136.421 63.1742L140.163 63.5391L140.192 63.2405L136.45 62.8756Z" fill="#0E3F41"/>
<path d="M136.486 62.1319L136.459 62.4306L140.442 62.7959L140.47 62.4972L136.486 62.1319Z" fill="#0E3F41"/>
<path d="M140.43 62.12L136.52 61.76L136.55 61.46L140.46 61.83L140.43 62.12Z" fill="#0E3F41"/>
<path d="M136.715 60.6733L136.686 60.9719L140.428 61.3368L140.458 61.0382L136.715 60.6733Z" fill="#0E3F41"/>
<path d="M136.828 59.8628L136.799 60.1613L140.541 60.5256L140.57 60.2271L136.828 59.8628Z" fill="#0E3F41"/>
<path d="M140.88 59.89L136.7 59.52L136.73 59.22L140.91 59.59L140.88 59.89Z" fill="#0E3F41"/>
<path d="M140.88 59.08L136.82 58.71L136.85 58.42L140.91 58.78L140.88 59.08Z" fill="#0E3F41"/>
<path d="M136.956 57.7943L136.929 58.093L140.882 58.4576L140.909 58.1589L136.956 57.7943Z" fill="#0E3F41"/>
<path d="M137.047 57.1668L137.02 57.4655L140.973 57.8302L141 57.5314L137.047 57.1668Z" fill="#0E3F41"/>
<path d="M134.96 65.99L131.23 65.59L131.26 65.29L135 65.69L134.96 65.99Z" fill="#0E3F41"/>
<path d="M135.03 65.31L131.2 64.87L131.23 64.58L135.07 65.01L135.03 65.31Z" fill="#0E3F41"/>
<path d="M131.211 63.9466L131.183 64.2454L135.107 64.6073L135.134 64.3085L131.211 63.9466Z" fill="#0E3F41"/>
<path d="M131.298 63.1877L131.267 63.4861L135.126 63.887L135.157 63.5886L131.298 63.1877Z" fill="#0E3F41"/>
<path d="M135.31 63.31L131.58 62.91L131.61 62.61L135.34 63.02L135.31 63.31Z" fill="#0E3F41"/>
<path d="M135.38 62.63L131.54 62.19L131.58 61.9L135.41 62.33L135.38 62.63Z" fill="#0E3F41"/>
<path d="M131.555 61.262L131.527 61.5607L135.45 61.9226L135.478 61.6238L131.555 61.262Z" fill="#0E3F41"/>
<path d="M131.649 60.5027L131.618 60.8011L135.477 61.202L135.508 60.9036L131.649 60.5027Z" fill="#0E3F41"/>
<path d="M135.41 60.43L131.68 60.02L131.71 59.72L135.44 60.13L135.41 60.43Z" fill="#0E3F41"/>
<path d="M135.48 59.74L131.64 59.31L131.68 59.01L135.51 59.44L135.48 59.74Z" fill="#0E3F41"/>
<path d="M131.656 58.3769L131.628 58.6757L135.552 59.0375L135.579 58.7388L131.656 58.3769Z" fill="#0E3F41"/>
<path d="M131.742 57.6125L131.711 57.9109L135.571 58.3111L135.602 58.0127L131.742 57.6125Z" fill="#0E3F41"/>
<path d="M135.76 57.75L132.02 57.34L132.06 57.04L135.79 57.45L135.76 57.75Z" fill="#0E3F41"/>
<path d="M135.83 57.06L131.99 56.63L132.02 56.33L135.86 56.76L135.83 57.06Z" fill="#0E3F41"/>
<path d="M141.2 57.24L137.14 56.88L137.17 56.58L141.23 56.94L141.2 57.24Z" fill="#0E3F41"/>
<path d="M111.484 198.383L111.185 198.414L111.599 202.383L111.897 202.352L111.484 198.383Z" fill="#0E3F41"/>
<path d="M110.77 198.604L110.472 198.634L110.859 202.484L111.158 202.454L110.77 198.604Z" fill="#0E3F41"/>
<path d="M110.049 198.597L109.751 198.63L110.169 202.387L110.467 202.353L110.049 198.597Z" fill="#0E3F41"/>
<path d="M109.6 202.53L109.09 198.84L109.38 198.8L109.9 202.49L109.6 202.53Z" fill="#0E3F41"/>
<path d="M108.78 202.66L108.4 198.88L108.7 198.85L109.08 202.63L108.78 202.66Z" fill="#0E3F41"/>
<path d="M108.1 202.81L107.76 199.06L108.06 199.03L108.4 202.79L108.1 202.81Z" fill="#0E3F41"/>
<path d="M106.559 199.207L106.261 199.235L106.613 202.949L106.912 202.92L106.559 199.207Z" fill="#0E3F41"/>
<path d="M101.41 200.45L101.26 198.48L115.89 196.29L116.11 198.28L101.41 200.44V200.45ZM102.06 199.13L102.1 199.6L115.29 197.66L115.24 197.17L102.07 199.14L102.06 199.13Z" fill="#0E3F41"/>
<path d="M107.306 199.025L107.008 199.055L107.409 203.025L107.707 202.995L107.306 199.025Z" fill="#0E3F41"/>
<path d="M106.567 199.261L106.269 199.291L106.657 203.142L106.955 203.112L106.567 199.261Z" fill="#0E3F41"/>
<path d="M105.858 199.257L105.56 199.29L105.978 203.047L106.276 203.014L105.858 199.257Z" fill="#0E3F41"/>
<path d="M105.38 203.19L104.9 199.5L105.2 199.46L105.68 203.15L105.38 203.19Z" fill="#0E3F41"/>
<path d="M104.433 199.511L104.136 199.55L104.633 203.328L104.93 203.289L104.433 199.511Z" fill="#0E3F41"/>
<path d="M103.771 199.549L103.473 199.588L103.964 203.326L104.262 203.287L103.771 199.549Z" fill="#0E3F41"/>
<path d="M98.72 204.64L98.62 203.89L119.7 200.93L119 196.14L119.74 196.03L120.55 201.57L98.72 204.64Z" fill="#0E3F41"/>
<path d="M98.23 204.83L97.23 195.71L97.97 195.63L98.89 203.92L99.66 203.76L99.81 204.49L98.23 204.83Z" fill="#0E3F41"/>
<path d="M293.76 198.35H285.52V207.32H293.76V198.35Z" fill="#FCB13F"/>
<path d="M289.42 199.67C289.34 199.67 289.27 199.71 289.23 199.76L287.39 202.21C287.33 202.3 287.37 202.41 287.48 202.45C287.51 202.47 287.55 202.47 287.59 202.47H291.27H291.29C291.42 202.46 291.51 202.37 291.5 202.27C291.5 202.25 291.49 202.22 291.47 202.2L289.63 199.75C289.59 199.69 289.5 199.66 289.41 199.66L289.42 199.67ZM289.43 200.2L290.87 202.11H287.99L289.43 200.2ZM287.57 202.93C287.44 202.93 287.35 203.03 287.36 203.12C287.36 203.15 287.37 203.17 287.39 203.19L289.23 205.64C289.29 205.73 289.44 205.76 289.55 205.71C289.59 205.69 289.62 205.67 289.64 205.64L291.48 203.19C291.54 203.1 291.51 202.99 291.4 202.94C291.37 202.93 291.34 202.92 291.31 202.92H291.29H287.61C287.61 202.92 287.6 202.92 287.59 202.92L287.57 202.93ZM288 203.29H290.88L289.44 205.2L288 203.29Z" fill="#0E3F41"/>
<path d="M286.08 204H285V207.333H286.08V204Z" fill="#FCB13F"/>
<path d="M134.44 195.48H126.03V200.81H134.44V195.48Z" fill="#FCB13F"/>
<path d="M130.34 195.74C130.28 195.74 130.22 195.77 130.19 195.81L128.76 197.71C128.71 197.78 128.74 197.86 128.83 197.9C128.86 197.91 128.89 197.92 128.92 197.92H131.78C131.78 197.92 131.79 197.92 131.8 197.92C131.9 197.92 131.97 197.84 131.96 197.77C131.96 197.75 131.95 197.73 131.94 197.72L130.51 195.82C130.51 195.82 130.41 195.75 130.34 195.75V195.74ZM130.35 196.16L131.47 197.65H129.24L130.36 196.16H130.35ZM128.9 198.28C128.8 198.28 128.73 198.35 128.74 198.43C128.74 198.45 128.75 198.47 128.76 198.49L130.19 200.39C130.24 200.46 130.35 200.48 130.44 200.44C130.47 200.43 130.49 200.41 130.51 200.39L131.94 198.49C131.99 198.42 131.96 198.34 131.87 198.3C131.85 198.3 131.82 198.28 131.8 198.28C131.8 198.28 131.79 198.28 131.78 198.28H128.92C128.92 198.28 128.92 198.28 128.91 198.28H128.9ZM129.23 198.56H131.46L130.34 200.05L129.22 198.56H129.23Z" fill="#0E3F41"/>
<line x1="95" y1="82.65" x2="121" y2="82.65" stroke="#0E3F41" stroke-width="0.7"/>
<line x1="95" y1="101.65" x2="121" y2="101.65" stroke="#0E3F41" stroke-width="0.7"/>
<line x1="95.35" y1="83" x2="95.35" y2="86" stroke="#0E3F41" stroke-width="0.7"/>
<line x1="95.35" y1="88" x2="95.35" y2="102" stroke="#0E3F41" stroke-width="0.7"/>
<line x1="120.65" y1="102" x2="120.65" y2="88" stroke="#0E3F41" stroke-width="0.7"/>
<line x1="120.65" y1="85" x2="120.65" y2="83" stroke="#0E3F41" stroke-width="0.7"/>
<line x1="95" y1="148.65" x2="121" y2="148.65" stroke="#0E3F41" stroke-width="0.7"/>
<line x1="94" y1="148.65" x2="100" y2="148.65" stroke="#0E3F41" stroke-width="0.7"/>
<line x1="80" y1="148.65" x2="91" y2="148.65" stroke="#0E3F41" stroke-width="0.7"/>
<line x1="100" y1="164.65" x2="121" y2="164.65" stroke="#0E3F41" stroke-width="0.7"/>
<line x1="101" y1="173.65" x2="121" y2="173.65" stroke="#0E3F41" stroke-width="0.7"/>
<line x1="101" y1="181.65" x2="121" y2="181.65" stroke="#0E3F41" stroke-width="0.7"/>
<line x1="80" y1="180.65" x2="97" y2="180.65" stroke="#0E3F41" stroke-width="0.7"/>
<line x1="83" y1="184.65" x2="96" y2="184.65" stroke="#0E3F41" stroke-width="0.7"/>
<line x1="83" y1="192.65" x2="96" y2="192.65" stroke="#0E3F41" stroke-width="0.7"/>
<line x1="83" y1="200.65" x2="96" y2="200.65" stroke="#0E3F41" stroke-width="0.7"/>
<line x1="95" y1="164.65" x2="97" y2="164.65" stroke="#0E3F41" stroke-width="0.7"/>
<line x1="95.35" y1="149" x2="95.35" y2="155" stroke="#0E3F41" stroke-width="0.7"/>
<line x1="95.35" y1="154" x2="95.35" y2="165" stroke="#0E3F41" stroke-width="0.7"/>
<line x1="120.65" y1="165" x2="120.65" y2="154" stroke="#0E3F41" stroke-width="0.7"/>
<line x1="120.65" y1="167" x2="120.65" y2="156" stroke="#0E3F41" stroke-width="0.7"/>
<line x1="120.65" y1="182" x2="120.65" y2="172" stroke="#0E3F41" stroke-width="0.7"/>
<line x1="95.65" y1="193" x2="95.65" y2="185" stroke="#0E3F41" stroke-width="0.7"/>
<line x1="100.65" y1="182" x2="100.65" y2="165" stroke="#0E3F41" stroke-width="0.7"/>
<line x1="120.65" y1="151" x2="120.65" y2="149" stroke="#0E3F41" stroke-width="0.7"/>
<line x1="105.65" y1="83" x2="105.65" y2="81" stroke="#0E3F41" stroke-width="0.7"/>
<line x1="95" y1="115.65" x2="121" y2="115.65" stroke="#0E3F41" stroke-width="0.7"/>
<line x1="94" y1="115.65" x2="120" y2="115.65" stroke="#0E3F41" stroke-width="0.7"/>
<line x1="79" y1="115.65" x2="91" y2="115.65" stroke="#0E3F41" stroke-width="0.7"/>
<line x1="95" y1="134.65" x2="121" y2="134.65" stroke="#0E3F41" stroke-width="0.7"/>
<line x1="95.35" y1="116" x2="95.35" y2="129" stroke="#0E3F41" stroke-width="0.7"/>
<line x1="95.35" y1="131" x2="95.35" y2="135" stroke="#0E3F41" stroke-width="0.7"/>
<line x1="120.65" y1="135" x2="120.65" y2="121" stroke="#0E3F41" stroke-width="0.7"/>
<line x1="120.65" y1="116" x2="120.65" y2="106" stroke="#0E3F41" stroke-width="0.7"/>
<line x1="120.65" y1="103" x2="120.65" y2="101" stroke="#0E3F41" stroke-width="0.7"/>
<line x1="120.65" y1="118" x2="120.65" y2="116" stroke="#0E3F41" stroke-width="0.7"/>
<line x1="83.35" y1="185" x2="83.35" y2="189" stroke="#0E3F41" stroke-width="0.7"/>
<line x1="83.35" y1="193" x2="83.35" y2="197" stroke="#0E3F41" stroke-width="0.7"/>
<line x1="83.35" y1="201" x2="83.35" y2="205" stroke="#0E3F41" stroke-width="0.7"/>
<line x1="83.35" y1="191" x2="83.35" y2="193" stroke="#0E3F41" stroke-width="0.7"/>
<line x1="83.35" y1="199" x2="83.35" y2="201" stroke="#0E3F41" stroke-width="0.7"/>
<line x1="83.35" y1="207" x2="83.35" y2="209" stroke="#0E3F41" stroke-width="0.7"/>
<line x1="83.35" y1="209" x2="83.35" y2="222" stroke="#0E3F41" stroke-width="0.7"/>
<line x1="91.35" y1="209" x2="91.35" y2="222" stroke="#0E3F41" stroke-width="0.7"/>
<line x1="105.35" y1="209" x2="105.35" y2="222" stroke="#0E3F41" stroke-width="0.7"/>
<path d="M98 195.5L119 192.5V193.5L98 196.5V195.5Z" fill="#0E3F41"/>
<line x1="83" y1="221.65" x2="88" y2="221.65" stroke="#0E3F41" stroke-width="0.7"/>
<line x1="91" y1="221.65" x2="96" y2="221.65" stroke="#0E3F41" stroke-width="0.7"/>
<line x1="99" y1="221.65" x2="105" y2="221.65" stroke="#0E3F41" stroke-width="0.7"/>
<line x1="105" y1="221.65" x2="112" y2="221.65" stroke="#0E3F41" stroke-width="0.7"/>
<line x1="115" y1="221.65" x2="122" y2="221.65" stroke="#0E3F41" stroke-width="0.7"/>
<line x1="90" y1="221.65" x2="91" y2="221.65" stroke="#0E3F41" stroke-width="0.7"/>
<path d="M140.5 197H135" stroke="#0E3F41" stroke-width="0.7"/>
<path d="M148 197L156.5 197" stroke="#0E3F41" stroke-width="0.7"/>
<path d="M148 197L156.5 197" stroke="#0E3F41" stroke-width="0.7"/>
<path d="M161 197H165" stroke="#0E3F41" stroke-width="0.7"/>
<path d="M176 197L168 197" stroke="#0E3F41" stroke-width="0.7"/>
<path d="M176 197L168 197" stroke="#0E3F41" stroke-width="0.7"/>
<path d="M177 197L175 197" stroke="#0E3F41" stroke-width="0.7"/>
<path d="M207 197H181" stroke="#0E3F41" stroke-width="0.7"/>
<path d="M176 222L153 222" stroke="#0E3F41" stroke-width="0.7"/>
<path d="M207 222L180 222" stroke="#0E3F41" stroke-width="0.7"/>
<path d="M177 222H176" stroke="#0E3F41" stroke-width="0.7"/>
<line x1="148.35" y1="197" x2="148.35" y2="199" stroke="#0E3F41" stroke-width="0.7"/>
<line y1="-0.35" x2="2" y2="-0.35" transform="matrix(4.37114e-08 1 1 -4.37114e-08 140.5 197)" stroke="#0E3F41" stroke-width="0.7"/>
<line y1="-0.35" x2="11" y2="-0.35" transform="matrix(4.37113e-08 1 1 -4.37113e-08 176 197)" stroke="#0E3F41" stroke-width="0.7"/>
<line y1="-0.35" x2="11" y2="-0.35" transform="matrix(4.37113e-08 1 1 -4.37113e-08 176 197)" stroke="#0E3F41" stroke-width="0.7"/>
<line y1="-0.35" x2="11" y2="-0.35" transform="matrix(4.37113e-08 1 1 -4.37113e-08 207 197)" stroke="#0E3F41" stroke-width="0.7"/>
<line y1="-0.35" x2="11" y2="-0.35" transform="matrix(4.37113e-08 1 1 -4.37113e-08 207 211)" stroke="#0E3F41" stroke-width="0.7"/>
<line y1="-0.35" x2="11" y2="-0.35" transform="matrix(4.37113e-08 1 1 -4.37113e-08 176 211)" stroke="#0E3F41" stroke-width="0.7"/>
<line x1="194.35" y1="197" x2="194.35" y2="222" stroke="#0E3F41" stroke-width="0.7"/>
<line x1="163.35" y1="197" x2="163.35" y2="222" stroke="#0E3F41" stroke-width="0.7"/>
<line x1="178.35" y1="226" x2="178.35" y2="239" stroke="#0E3F41" stroke-width="0.7"/>
<line x1="186.35" y1="226" x2="186.35" y2="239" stroke="#0E3F41" stroke-width="0.7"/>
<line x1="194.35" y1="226" x2="194.35" y2="239" stroke="#0E3F41" stroke-width="0.7"/>
<line y1="-0.35" x2="13" y2="-0.35" transform="matrix(0 1 1 0 203 226)" stroke="#0E3F41" stroke-width="0.7"/>
<path d="M185 226L188 226" stroke="#0E3F41" stroke-width="0.7"/>
<path d="M190 226L199 226" stroke="#0E3F41" stroke-width="0.7"/>
<path d="M203 226L201 226" stroke="#0E3F41" stroke-width="0.7"/>
<line x1="209" y1="178.65" x2="223" y2="178.65" stroke="#0E3F41" stroke-width="0.7"/>
<line x1="230.35" y1="194" x2="230.35" y2="221" stroke="#0E3F41" stroke-width="0.7"/>
<line x1="214.35" y1="212" x2="214.35" y2="221" stroke="#0E3F41" stroke-width="0.7"/>
<line x1="253.35" y1="212" x2="253.35" y2="221" stroke="#0E3F41" stroke-width="0.7"/>
<line x1="274.35" y1="211" x2="274.35" y2="221" stroke="#0E3F41" stroke-width="0.7"/>
<path d="M253.35 207.159L253.35 209.159" stroke="#0E3F41" stroke-width="0.7"/>
<line x1="214" y1="220.65" x2="221" y2="220.65" stroke="#0E3F41" stroke-width="0.7"/>
<line x1="214" y1="220.65" x2="221" y2="220.65" stroke="#0E3F41" stroke-width="0.7"/>
<line x1="214" y1="220.65" x2="221" y2="220.65" stroke="#0E3F41" stroke-width="0.7"/>
<line x1="214" y1="220.65" x2="221" y2="220.65" stroke="#0E3F41" stroke-width="0.7"/>
<line x1="214" y1="211.65" x2="230" y2="211.65" stroke="#0E3F41" stroke-width="0.7"/>
<line x1="214" y1="211.65" x2="230" y2="211.65" stroke="#0E3F41" stroke-width="0.7"/>
<line x1="214" y1="211.65" x2="230" y2="211.65" stroke="#0E3F41" stroke-width="0.7"/>
<line x1="214" y1="211.65" x2="230" y2="211.65" stroke="#0E3F41" stroke-width="0.7"/>
<line x1="216" y1="202.65" x2="230" y2="202.65" stroke="#0E3F41" stroke-width="0.7"/>
<line x1="216" y1="202.65" x2="230" y2="202.65" stroke="#0E3F41" stroke-width="0.7"/>
<line x1="216" y1="202.65" x2="230" y2="202.65" stroke="#0E3F41" stroke-width="0.7"/>
<line x1="216" y1="202.65" x2="230" y2="202.65" stroke="#0E3F41" stroke-width="0.7"/>
<path d="M216.343 202.418L215 208.5" stroke="#0E3F41" stroke-width="0.7"/>
<path d="M216.343 202.418L215 208.5" stroke="#0E3F41" stroke-width="0.7"/>
<path d="M216.343 202.418L215 208.5" stroke="#0E3F41" stroke-width="0.7"/>
<path d="M216.343 202.418L215 208.5" stroke="#0E3F41" stroke-width="0.7"/>
<path d="M218.343 194.024L217 200.106" stroke="#0E3F41" stroke-width="0.7"/>
<path d="M218.343 194.024L217 200.106" stroke="#0E3F41" stroke-width="0.7"/>
<path d="M218.343 194.024L217 200.106" stroke="#0E3F41" stroke-width="0.7"/>
<path d="M218.343 194.024L217 200.106" stroke="#0E3F41" stroke-width="0.7"/>
<path d="M218 194.354L230 194.354" stroke="#0E3F41" stroke-width="0.7"/>
<path d="M218 194.354L230 194.354" stroke="#0E3F41" stroke-width="0.7"/>
<path d="M218 194.354L230 194.354" stroke="#0E3F41" stroke-width="0.7"/>
<path d="M218 194.354L230 194.354" stroke="#0E3F41" stroke-width="0.7"/>
<line x1="224" y1="220.65" x2="270" y2="220.65" stroke="#0E3F41" stroke-width="0.7"/>
<line x1="224" y1="220.65" x2="270" y2="220.65" stroke="#0E3F41" stroke-width="0.7"/>
<line x1="224" y1="220.65" x2="270" y2="220.65" stroke="#0E3F41" stroke-width="0.7"/>
<line x1="224" y1="220.65" x2="270" y2="220.65" stroke="#0E3F41" stroke-width="0.7"/>
<line x1="273" y1="220.65" x2="281" y2="220.65" stroke="#0E3F41" stroke-width="0.7"/>
<line x1="273" y1="220.65" x2="281" y2="220.65" stroke="#0E3F41" stroke-width="0.7"/>
<line x1="273" y1="220.65" x2="281" y2="220.65" stroke="#0E3F41" stroke-width="0.7"/>
<line x1="273" y1="220.65" x2="281" y2="220.65" stroke="#0E3F41" stroke-width="0.7"/>
<line x1="284" y1="220.65" x2="285" y2="220.65" stroke="#0E3F41" stroke-width="0.7"/>
<line x1="284" y1="220.65" x2="285" y2="220.65" stroke="#0E3F41" stroke-width="0.7"/>
<line x1="284" y1="220.65" x2="285" y2="220.65" stroke="#0E3F41" stroke-width="0.7"/>
<line x1="284" y1="220.65" x2="285" y2="220.65" stroke="#0E3F41" stroke-width="0.7"/>
<line x1="285" y1="220.65" x2="286" y2="220.65" stroke="#0E3F41" stroke-width="0.7"/>
<line x1="285" y1="220.65" x2="286" y2="220.65" stroke="#0E3F41" stroke-width="0.7"/>
<line x1="285" y1="220.65" x2="286" y2="220.65" stroke="#0E3F41" stroke-width="0.7"/>
<line x1="285" y1="220.65" x2="286" y2="220.65" stroke="#0E3F41" stroke-width="0.7"/>
<line x1="289" y1="220.65" x2="296" y2="220.65" stroke="#0E3F41" stroke-width="0.7"/>
<line x1="289" y1="220.65" x2="296" y2="220.65" stroke="#0E3F41" stroke-width="0.7"/>
<line x1="289" y1="220.65" x2="296" y2="220.65" stroke="#0E3F41" stroke-width="0.7"/>
<line x1="289" y1="220.65" x2="296" y2="220.65" stroke="#0E3F41" stroke-width="0.7"/>
<path d="M285.269 213L296.334 213" stroke="#0E3F41" stroke-width="0.7"/>
<path d="M285.269 213L296.334 213" stroke="#0E3F41" stroke-width="0.7"/>
<path d="M285.269 213L296.334 213" stroke="#0E3F41" stroke-width="0.7"/>
<path d="M285.269 213L296.334 213" stroke="#0E3F41" stroke-width="0.7"/>
<line x1="285" y1="207.65" x2="294" y2="207.65" stroke="#0E3F41" stroke-width="0.7"/>
<line x1="285" y1="207.65" x2="294" y2="207.65" stroke="#0E3F41" stroke-width="0.7"/>
<line x1="285" y1="207.65" x2="294" y2="207.65" stroke="#0E3F41" stroke-width="0.7"/>
<line x1="285" y1="207.65" x2="294" y2="207.65" stroke="#0E3F41" stroke-width="0.7"/>
<path d="M274 211L285 211" stroke="#0E3F41" stroke-width="0.7"/>
<path d="M274 211L285 211" stroke="#0E3F41" stroke-width="0.7"/>
<path d="M274 211L285 211" stroke="#0E3F41" stroke-width="0.7"/>
<path d="M274 211L285 211" stroke="#0E3F41" stroke-width="0.7"/>
<path d="M230 207.5L253 207.5" stroke="#0E3F41" stroke-width="0.7"/>
<path d="M230 207.5L253 207.5" stroke="#0E3F41" stroke-width="0.7"/>
<path d="M230 207.5L253 207.5" stroke="#0E3F41" stroke-width="0.7"/>
<path d="M230 207.5L253 207.5" stroke="#0E3F41" stroke-width="0.7"/>
<path d="M274.35 180.654L274.35 204" stroke="#0E3F41" stroke-width="0.7"/>
<line x1="274" y1="203.65" x2="285" y2="203.65" stroke="#0E3F41" stroke-width="0.7"/>
<path d="M285 221L285 204" stroke="#0E3F41" stroke-width="0.7"/>
<path d="M296 221L296 213" stroke="#0E3F41" stroke-width="0.7"/>
<path d="M294 209L294 204" stroke="#0E3F41" stroke-width="0.7"/>
<path d="M294 213L294 212" stroke="#0E3F41" stroke-width="0.7"/>
<line x1="300" y1="205.65" x2="324" y2="205.65" stroke="#0E3F41" stroke-width="0.7"/>
<line x1="300" y1="180.65" x2="324" y2="180.65" stroke="#0E3F41" stroke-width="0.7"/>
<line x1="300.35" y1="181" x2="300.35" y2="201" stroke="#0E3F41" stroke-width="0.7"/>
<path d="M324.35 180.304L324.35 201" stroke="#0E3F41" stroke-width="0.7"/>
<path d="M324.35 203.5V206" stroke="#0E3F41" stroke-width="0.7"/>
<path d="M300.35 203.5V206" stroke="#0E3F41" stroke-width="0.7"/>
<path d="M325.35 209L325.35 222" stroke="#0E3F41" stroke-width="0.7"/>
<line x1="329" y1="209.35" x2="324" y2="209.35" stroke="#0E3F41" stroke-width="0.7"/>
<path d="M274 180.5H277" stroke="#0E3F41" stroke-width="0.7"/>
<path d="M274 183H273" stroke="#0E3F41" stroke-width="0.7"/>
<path d="M269 183H267" stroke="#0E3F41" stroke-width="0.7"/>
<line x1="328.65" y1="209" x2="328.65" y2="208" stroke="#0E3F41" stroke-width="0.7"/>
<path d="M230 194.5C229.576 194.234 239 195.5 249 192.5C259 189.5 262 186.5 267.5 183" stroke="#0E3F41" stroke-width="0.7"/>
<line x1="267.5" y1="159" x2="267.5" y2="135" stroke="#A977AB"/>
<path d="M259.62 132.08C259.127 132.08 258.647 132.003 258.18 131.85C257.72 131.697 257.343 131.49 257.05 131.23L257.51 130.44C257.743 130.66 258.047 130.84 258.42 130.98C258.793 131.12 259.193 131.19 259.62 131.19C260.14 131.19 260.543 131.08 260.83 130.86C261.123 130.633 261.27 130.33 261.27 129.95C261.27 129.583 261.13 129.29 260.85 129.07C260.577 128.843 260.14 128.73 259.54 128.73H258.98V128.03L261.06 125.47L261.2 125.87H257.37V125H261.99V125.68L259.92 128.23L259.4 127.92H259.73C260.577 127.92 261.21 128.11 261.63 128.49C262.057 128.87 262.27 129.353 262.27 129.94C262.27 130.333 262.173 130.693 261.98 131.02C261.787 131.347 261.493 131.607 261.1 131.8C260.713 131.987 260.22 132.08 259.62 132.08ZM263.103 130.28V129.58L266.683 125H267.763L264.213 129.58L263.703 129.42H269.293V130.28H263.103ZM266.993 132V130.28L267.023 129.42V127.9H267.963V132H266.993ZM272.752 132.08C272.205 132.08 271.715 131.94 271.282 131.66C270.855 131.38 270.515 130.973 270.262 130.44C270.015 129.907 269.892 129.26 269.892 128.5C269.892 127.74 270.015 127.093 270.262 126.56C270.515 126.027 270.855 125.62 271.282 125.34C271.715 125.06 272.205 124.92 272.752 124.92C273.292 124.92 273.779 125.06 274.212 125.34C274.645 125.62 274.985 126.027 275.232 126.56C275.479 127.093 275.602 127.74 275.602 128.5C275.602 129.26 275.479 129.907 275.232 130.44C274.985 130.973 274.645 131.38 274.212 131.66C273.779 131.94 273.292 132.08 272.752 132.08ZM272.752 131.19C273.119 131.19 273.439 131.09 273.712 130.89C273.992 130.69 274.209 130.39 274.362 129.99C274.522 129.59 274.602 129.093 274.602 128.5C274.602 127.907 274.522 127.41 274.362 127.01C274.209 126.61 273.992 126.31 273.712 126.11C273.439 125.91 273.119 125.81 272.752 125.81C272.385 125.81 272.062 125.91 271.782 126.11C271.502 126.31 271.282 126.61 271.122 127.01C270.969 127.41 270.892 127.907 270.892 128.5C270.892 129.093 270.969 129.59 271.122 129.99C271.282 130.39 271.502 130.69 271.782 130.89C272.062 131.09 272.385 131.19 272.752 131.19ZM277.742 132V125.4L278.172 125.87H276.162V125H278.732V132H277.742Z" fill="#A977AB"/>
<path d="M171.62 171.08C171.127 171.08 170.647 171.003 170.18 170.85C169.72 170.697 169.343 170.49 169.05 170.23L169.51 169.44C169.743 169.66 170.047 169.84 170.42 169.98C170.793 170.12 171.193 170.19 171.62 170.19C172.14 170.19 172.543 170.08 172.83 169.86C173.123 169.633 173.27 169.33 173.27 168.95C173.27 168.583 173.13 168.29 172.85 168.07C172.577 167.843 172.14 167.73 171.54 167.73H170.98V167.03L173.06 164.47L173.2 164.87H169.37V164H173.99V164.68L171.92 167.23L171.4 166.92H171.73C172.577 166.92 173.21 167.11 173.63 167.49C174.057 167.87 174.27 168.353 174.27 168.94C174.27 169.333 174.173 169.693 173.98 170.02C173.787 170.347 173.493 170.607 173.1 170.8C172.713 170.987 172.22 171.08 171.62 171.08ZM176.383 171V164.4L176.813 164.87H174.803V164H177.373V171H176.383ZM181.764 171.08C181.217 171.08 180.727 170.94 180.294 170.66C179.867 170.38 179.527 169.973 179.274 169.44C179.027 168.907 178.904 168.26 178.904 167.5C178.904 166.74 179.027 166.093 179.274 165.56C179.527 165.027 179.867 164.62 180.294 164.34C180.727 164.06 181.217 163.92 181.764 163.92C182.304 163.92 182.79 164.06 183.224 164.34C183.657 164.62 183.997 165.027 184.244 165.56C184.49 166.093 184.614 166.74 184.614 167.5C184.614 168.26 184.49 168.907 184.244 169.44C183.997 169.973 183.657 170.38 183.224 170.66C182.79 170.94 182.304 171.08 181.764 171.08ZM181.764 170.19C182.13 170.19 182.45 170.09 182.724 169.89C183.004 169.69 183.22 169.39 183.374 168.99C183.534 168.59 183.614 168.093 183.614 167.5C183.614 166.907 183.534 166.41 183.374 166.01C183.22 165.61 183.004 165.31 182.724 165.11C182.45 164.91 182.13 164.81 181.764 164.81C181.397 164.81 181.074 164.91 180.794 165.11C180.514 165.31 180.294 165.61 180.134 166.01C179.98 166.41 179.904 166.907 179.904 167.5C179.904 168.093 179.98 168.59 180.134 168.99C180.294 169.39 180.514 169.69 180.794 169.89C181.074 170.09 181.397 170.19 181.764 170.19ZM185.464 171V170.32L188.314 167.57C188.567 167.33 188.754 167.12 188.874 166.94C189 166.753 189.084 166.583 189.124 166.43C189.17 166.27 189.194 166.117 189.194 165.97C189.194 165.61 189.067 165.327 188.814 165.12C188.56 164.913 188.19 164.81 187.704 164.81C187.33 164.81 186.994 164.873 186.694 165C186.394 165.12 186.134 165.31 185.914 165.57L185.234 164.98C185.5 164.64 185.857 164.38 186.304 164.2C186.757 164.013 187.254 163.92 187.794 163.92C188.28 163.92 188.704 164 189.064 164.16C189.424 164.313 189.7 164.537 189.894 164.83C190.094 165.123 190.194 165.47 190.194 165.87C190.194 166.097 190.164 166.32 190.104 166.54C190.044 166.76 189.93 166.993 189.764 167.24C189.597 167.487 189.357 167.763 189.044 168.07L186.504 170.52L186.264 170.13H190.494V171H185.464Z" fill="#A977AB"/>
<line x1="135" y1="167.5" x2="165" y2="167.5" stroke="#A977AB"/>
</svg>